<svg width="390" height="390" viewBox="0 0 390 390" fill="none" xmlns="http://www.w3.org/2000/svg">
<path d="M375.811 0H14.1887C6.35249 0 0 3.8177 0 8.52707V381.473C0 386.182 6.35249 390 14.1887 390H375.811C383.648 390 390 386.182 390 381.473V8.52707C390 3.8177 383.648 0 375.811 0Z" fill="url(#paint0_linear)"/>
<path d="M310.449 194.439C308.818 197.808 306.542 200.824 303.751 203.317C298.433 208.115 294.07 213.874 290.89 220.291C288.344 225.122 258.575 271.473 253.666 279.437C241.98 300.328 217.643 314.781 189.401 314.781C186.79 314.781 184.179 314.781 181.567 314.611C169.02 314.573 156.66 311.557 145.505 305.811C145.386 305.721 145.254 305.651 145.113 305.602C129.915 296.711 120.175 280.286 118.191 251.535V136.637C118.171 136.425 118.171 136.21 118.191 135.998C118.302 133.919 119.031 131.922 120.285 130.261C121.539 128.6 123.26 127.351 125.228 126.675C126.35 126.251 127.541 126.039 128.741 126.049C131.548 126.052 134.239 127.169 136.224 129.154C138.209 131.139 139.326 133.83 139.329 136.637V189.556C139.304 189.623 139.304 189.697 139.329 189.765C139.425 191.395 140.147 192.925 141.345 194.035C142.542 195.146 144.122 195.751 145.755 195.724C147.388 195.697 148.948 195.04 150.108 193.891C151.268 192.741 151.939 191.188 151.981 189.556V104.936C151.979 103.545 152.251 102.167 152.782 100.881C153.313 99.5945 154.092 98.4258 155.076 97.4416L156.224 96.4624C158.133 95.2452 160.313 94.5186 162.57 94.3472C165.377 94.3507 168.069 95.4674 170.054 97.4524C172.039 99.4375 173.155 102.129 173.159 104.936V181.134V181.356C173.256 182.987 173.979 184.517 175.178 185.627C176.377 186.736 177.958 187.34 179.591 187.311C181.224 187.283 182.784 186.624 183.943 185.473C185.102 184.322 185.771 182.767 185.811 181.134V85.8213C185.862 82.4637 187.198 79.2534 189.545 76.8514C191.319 75.0737 193.581 73.8623 196.044 73.3707C198.507 72.8791 201.06 73.1294 203.381 74.0898C205.701 75.0502 207.685 76.6776 209.08 78.766C210.476 80.8543 211.22 83.3097 211.219 85.8213V181.134V181.356C211.248 183.036 211.944 184.635 213.152 185.801C214.36 186.968 215.983 187.607 217.662 187.578C219.342 187.548 220.941 186.853 222.107 185.644C223.274 184.436 223.913 182.814 223.884 181.134V115.512C223.87 114.276 224.055 113.046 224.432 111.869C225.006 109.847 226.1 108.01 227.605 106.542C228.389 105.771 229.266 105.1 230.216 104.544L236.614 102.808C238.282 102.806 239.934 103.134 241.475 103.772C243.017 104.41 244.417 105.346 245.596 106.526C246.775 107.706 247.71 109.107 248.346 110.649C248.982 112.191 249.308 113.844 249.305 115.512V209.258C249.396 211.752 249.305 213.697 249.305 215.225C249.305 218.985 249.644 220.004 252.647 219.964C254.868 219.868 257.027 219.197 258.91 218.016C260.794 216.835 262.339 215.185 263.393 213.227C268.547 203.92 275.759 195.913 284.479 189.817C287.902 187.516 291.658 185.754 295.616 184.594C298.43 183.719 301.353 183.248 304.299 183.197C312.263 183.21 310.906 193.59 310.449 194.439Z" fill="#FDD9A9"/>
<path d="M189.402 319.011C154.423 319.011 118.1 311.034 114 251.835V136.689C114.114 132.83 115.728 129.167 118.498 126.478C121.269 123.789 124.978 122.284 128.839 122.284C132.7 122.284 136.409 123.789 139.179 126.478C141.949 129.167 143.563 132.83 143.678 136.689V189.608C143.678 190.169 143.9 190.707 144.297 191.103C144.694 191.5 145.232 191.723 145.793 191.723C146.354 191.723 146.892 191.5 147.288 191.103C147.685 190.707 147.908 190.169 147.908 189.608V104.936C147.908 101.006 149.469 97.2363 152.248 94.4571C155.027 91.678 158.797 90.1167 162.727 90.1167C166.657 90.1167 170.427 91.678 173.206 94.4571C175.985 97.2363 177.546 101.006 177.546 104.936V181.134C177.546 181.695 177.769 182.233 178.166 182.63C178.563 183.026 179.101 183.249 179.661 183.249C180.222 183.249 180.76 183.026 181.157 182.63C181.554 182.233 181.777 181.695 181.777 181.134V85.8211C182.069 81.5288 183.98 77.5077 187.123 74.5707C190.267 71.6337 194.409 70 198.711 70C203.013 70 207.155 71.6337 210.298 74.5707C213.442 77.5077 215.353 81.5288 215.645 85.8211V181.134C215.687 181.668 215.929 182.166 216.322 182.53C216.715 182.894 217.231 183.096 217.767 183.096C218.303 183.096 218.819 182.894 219.212 182.53C219.605 182.166 219.847 181.668 219.889 181.134V115.512C220.181 111.219 222.092 107.198 225.236 104.261C228.379 101.324 232.521 99.6906 236.823 99.6906C241.125 99.6906 245.267 101.324 248.411 104.261C251.554 107.198 253.465 111.219 253.757 115.512V209.232C253.757 210.955 253.757 212.509 253.757 213.815C253.757 214.428 253.757 215.12 253.757 215.642C255.054 215.395 256.28 214.863 257.346 214.084C258.412 213.305 259.291 212.299 259.92 211.138C265.395 201.265 273.059 192.779 282.325 186.33C288.896 181.87 296.586 179.342 304.521 179.032C306.253 178.975 307.968 179.383 309.489 180.214C311.009 181.046 312.278 182.27 313.165 183.758C314.185 185.698 314.795 187.827 314.956 190.013C315.118 192.198 314.828 194.394 314.105 196.462C312.225 200.333 309.593 203.791 306.362 206.633C301.474 211.052 297.484 216.372 294.611 222.301C292.966 225.409 281.881 242.878 268.629 263.691C263.406 272.008 258.862 279.032 257.217 281.696C244.422 304.636 218.387 319.011 189.402 319.011ZM128.832 130.331C127.994 130.327 127.164 130.489 126.389 130.807C125.614 131.125 124.909 131.593 124.315 132.183C123.72 132.774 123.248 133.476 122.926 134.249C122.603 135.022 122.436 135.852 122.434 136.689V251.587C125.346 293.368 144.735 310.603 189.375 310.603C215.293 310.603 238.494 297.886 249.932 277.413C251.694 274.567 256.173 267.516 261.5 259.134C271.07 244.119 285.524 221.413 287.13 218.345C290.521 211.396 295.251 205.184 301.048 200.066C303.305 198.019 305.149 195.56 306.48 192.82C306.769 191.152 306.532 189.437 305.801 187.91C305.683 187.754 305.474 187.492 304.495 187.492C298.25 187.793 292.209 189.813 287.039 193.329C278.842 199.054 272.07 206.585 267.245 215.342C265.813 217.928 263.74 220.102 261.224 221.655C258.709 223.208 255.836 224.087 252.883 224.208C250.843 224.367 248.823 223.709 247.268 222.38C245.179 220.33 245.179 217.588 245.192 213.801C245.192 212.574 245.192 211.099 245.192 209.362V115.512C245.192 113.261 244.298 111.102 242.707 109.511C241.115 107.919 238.956 107.025 236.706 107.025C234.455 107.025 232.296 107.919 230.704 109.511C229.113 111.102 228.219 113.261 228.219 115.512V181.134C228.269 182.555 228.032 183.971 227.523 185.299C227.013 186.626 226.242 187.838 225.254 188.861C224.267 189.883 223.083 190.697 221.774 191.253C220.466 191.808 219.058 192.095 217.636 192.095C216.215 192.095 214.807 191.808 213.499 191.253C212.19 190.697 211.006 189.883 210.019 188.861C209.031 187.838 208.26 186.626 207.75 185.299C207.241 183.971 207.004 182.555 207.054 181.134V85.8211C207.054 83.5702 206.16 81.4116 204.568 79.82C202.977 78.2284 200.818 77.3343 198.567 77.3343C196.317 77.3343 194.158 78.2284 192.566 79.82C190.975 81.4116 190.081 83.5702 190.081 85.8211V181.134C190.081 183.942 188.965 186.636 186.979 188.621C184.993 190.607 182.3 191.723 179.492 191.723C176.683 191.723 173.99 190.607 172.004 188.621C170.018 186.636 168.903 183.942 168.903 181.134V104.936C168.903 103.253 168.234 101.639 167.044 100.449C165.854 99.2589 164.24 98.5904 162.557 98.5904C160.874 98.5904 159.26 99.2589 158.07 100.449C156.88 101.639 156.212 103.253 156.212 104.936V189.608C156.212 192.416 155.096 195.109 153.11 197.095C151.125 199.081 148.431 200.197 145.623 200.197C142.815 200.197 140.121 199.081 138.136 197.095C136.15 195.109 135.034 192.416 135.034 189.608V136.689C135.035 135.03 134.386 133.436 133.228 132.248C132.069 131.06 130.491 130.372 128.832 130.331V130.331Z" fill="#502D4B"/>
<defs>
<linearGradient id="paint0_linear" x1="-87.2368" y1="292.933" x2="304.167" y2="-83.093" gradientUnits="userSpaceOnUse">
<stop stop-color="#8E3089"/>
<stop offset="0.08" stop-color="#A53C8D"/>
<stop offset="0.21" stop-color="#BF4991"/>
<stop offset="0.35" stop-color="#D35494"/>
<stop offset="0.5" stop-color="#E15B96"/>
<stop offset="0.69" stop-color="#E96098"/>
<stop offset="1" stop-color="#EC6198"/>
</linearGradient>
</defs>
</svg>
