<svg width="390" height="390" viewBox="0 0 390 390" fill="none" xmlns="http://www.w3.org/2000/svg">
<path d="M375.811 0H14.1887C6.3525 0 0 3.8177 0 8.52707V381.473C0 386.182 6.3525 390 14.1887 390H375.811C383.648 390 390 386.182 390 381.473V8.52707C390 3.8177 383.648 0 375.811 0Z" fill="url(#paint0_linear)"/>
<path d="M309.774 211.789C307.794 209.001 293.957 182.953 293.957 182.953L270.902 161.879L230.051 145.402L189.859 140.133H170.753L140.45 151.99L109.476 171.756L84.8058 202.423L73.9045 244.914L84.8058 279.802L100.976 294.971L137.207 305.497L224.179 308.797L275.568 300.9L301.262 290.351L317.739 252.128C317.739 252.128 311.754 214.576 309.774 211.789Z" fill="#60BCA5"/>
<path d="M90.086 174.533C90.9267 174.535 91.7555 174.334 92.5022 173.948C93.249 173.562 93.8917 173.001 94.376 172.314V172.314C94.4443 172.2 102.342 161.253 118.762 150.477C128.541 144.088 139.146 139.062 150.282 135.536C179.951 126.479 211.648 126.479 241.317 135.536C252.378 139.048 262.901 144.072 272.587 150.466C288.802 161.242 296.483 172.166 296.597 172.269C297.235 173.192 298.151 173.888 299.212 174.255C300.272 174.621 301.423 174.639 302.494 174.307C303.566 173.974 304.504 173.308 305.171 172.405C305.837 171.502 306.198 170.41 306.201 169.287C306.211 168.217 305.885 167.17 305.268 166.294C304.927 165.782 296.586 153.88 278.868 142.011C268.354 134.997 256.914 129.482 244.878 125.625C234.046 122.168 222.864 119.92 211.537 118.923L215.998 107.668H216.589C220.295 107.672 223.885 106.374 226.731 104.001C229.578 101.628 231.501 98.3312 232.165 94.6853C232.829 91.0393 232.192 87.276 230.364 84.052C228.537 80.8279 225.636 78.3479 222.166 77.0446C218.697 75.7413 214.881 75.6974 211.383 76.9208C207.884 78.1441 204.927 80.5569 203.026 83.7382C201.125 86.9194 200.402 90.6671 200.982 94.3273C201.562 97.9875 203.409 101.328 206.2 103.765L200.442 118.217C198.917 118.217 197.392 118.149 195.89 118.149C194.127 118.149 192.363 118.149 190.599 118.24L184.841 103.709C187.63 101.272 189.474 97.9342 190.053 94.2769C190.632 90.6195 189.909 86.875 188.009 83.6966C186.109 80.5182 183.154 78.1077 179.658 76.8856C176.163 75.6635 172.349 75.7075 168.883 77.0097C165.417 78.3119 162.518 80.7899 160.692 84.0111C158.866 87.2324 158.228 90.9926 158.891 94.6356C159.554 98.2787 161.475 101.573 164.319 103.945C167.163 106.316 170.749 107.614 174.452 107.612H175.044L179.527 118.934C168.402 119.959 157.422 122.187 146.778 125.579C134.676 129.435 123.162 134.937 112.56 141.931C94.6719 153.789 86.1602 165.68 85.8188 166.181C85.2547 166.968 84.9192 167.897 84.8494 168.863C84.7795 169.829 84.9781 170.796 85.4231 171.657C85.8681 172.517 86.5423 173.238 87.3712 173.74C88.2 174.241 89.1514 174.504 90.1202 174.499L90.086 174.533ZM216.578 86.5827C217.62 86.5827 218.64 86.892 219.506 87.4714C220.373 88.0509 221.048 88.8744 221.447 89.8377C221.845 90.8011 221.949 91.861 221.744 92.8834C221.54 93.9057 221.037 94.8444 220.299 95.5808C219.561 96.3172 218.622 96.8181 217.599 97.0201C216.576 97.2221 215.516 97.1161 214.554 96.7156C213.591 96.3151 212.769 95.638 212.192 94.7701C211.614 93.9022 211.307 92.8825 211.309 91.8399C211.312 90.4446 211.869 89.1074 212.857 88.1218C213.844 87.1362 215.183 86.5827 216.578 86.5827ZM169.149 91.8399C169.149 90.7979 169.458 89.7793 170.037 88.9129C170.616 88.0464 171.439 87.3711 172.402 86.9724C173.364 86.5736 174.424 86.4693 175.446 86.6726C176.468 86.8759 177.406 87.3776 178.143 88.1145C178.88 88.8513 179.382 89.7901 179.585 90.8121C179.788 91.8341 179.684 92.8934 179.285 93.8561C178.887 94.8189 178.211 95.6417 177.345 96.2206C176.478 96.7995 175.46 97.1085 174.418 97.1085C173.725 97.11 173.04 96.9748 172.4 96.7105C171.76 96.4463 171.179 96.0583 170.689 95.5687C170.199 95.0792 169.811 94.4978 169.547 93.8579C169.283 93.218 169.148 92.5322 169.149 91.8399Z" fill="#502D4B"/>
<path d="M195.492 134.353C80.0834 134.353 40.2788 254.575 90.0517 296.747C92.9656 299.149 96.1928 301.143 99.6444 302.675C99.6444 302.675 113.834 313.224 195.492 313.224C277.15 313.224 291.362 302.675 291.362 302.675C294.809 301.14 298.032 299.146 300.944 296.747C350.728 254.575 310.912 134.353 195.492 134.353ZM294.127 288.701C291.94 290.487 289.521 291.968 286.936 293.105L285.946 293.56L285.525 293.879C284.592 294.334 279.835 296.382 267.75 298.362C250.226 301.219 225.92 302.675 195.492 302.675C165.064 302.675 140.769 301.219 123.256 298.362C111.149 296.382 106.415 294.334 105.471 293.879L105.05 293.56L104.06 293.105C101.476 291.965 99.0574 290.484 96.8679 288.701C88.2196 281.385 82.5414 270.711 80.4476 257.864C78.3083 244.766 79.9469 230.292 85.1813 215.988C88.6924 206.473 93.5807 197.524 99.6899 189.429C106.237 180.732 114.068 173.081 122.915 166.738C132.631 159.806 143.385 154.459 154.777 150.898C181.333 142.888 209.662 142.888 236.218 150.898C247.612 154.455 258.367 159.802 268.08 166.738C276.933 173.078 284.768 180.729 291.317 189.429C297.423 197.523 302.304 206.472 305.803 215.988C311.048 230.292 312.63 244.766 310.536 257.864C308.465 270.699 302.776 281.385 294.127 288.701Z" fill="#502D4B"/>
<path d="M200.522 299.102C239.574 299.102 271.233 267.444 271.233 228.391C271.233 189.339 239.574 157.68 200.522 157.68C161.469 157.68 129.811 189.339 129.811 228.391C129.811 267.444 161.469 299.102 200.522 299.102Z" fill="#F4E600"/>
<path d="M216.362 227.264C212.948 226.422 209.534 225.284 206.462 224.442C203.048 223.589 199.953 222.462 196.562 221.609C189.495 219.333 185.82 216.238 185.82 212.278C185.829 210.789 186.263 209.334 187.069 208.083C187.875 206.832 189.02 205.836 190.371 205.211C193.543 203.343 197.16 202.365 200.84 202.378C204.844 202.379 208.8 203.249 212.436 204.927C213.908 205.573 215.327 206.334 216.68 207.203C217.318 207.566 218.04 207.754 218.774 207.748C219.507 207.742 220.226 207.542 220.858 207.169C221.49 206.796 222.012 206.263 222.371 205.623C222.731 204.984 222.915 204.261 222.905 203.527C222.969 202.823 222.813 202.117 222.458 201.505C222.103 200.894 221.568 200.407 220.925 200.113C219.502 199.271 218.091 198.702 216.68 197.838C214.38 196.916 212.019 196.156 209.614 195.562C208.116 195.241 206.593 195.054 205.062 195.004V185.901C205.062 184.775 204.615 183.695 203.819 182.899C203.023 182.103 201.943 181.656 200.818 181.656C199.692 181.656 198.612 182.103 197.816 182.899C197.02 183.695 196.573 184.775 196.573 185.901V195.004C191.836 195.458 187.323 197.241 183.555 200.148C179.004 203.561 176.489 208.113 176.489 213.154C176.489 218.844 179.311 223.395 184.966 226.456C187.8 227.867 193.455 229.563 202.217 231.827C209.58 233.523 213.813 235.503 215.52 237.517C216.532 238.927 217.12 240.597 217.215 242.331C217.215 245.153 215.52 248.02 212.402 250.239C209.284 252.458 205.335 253.653 200.237 253.653C198.714 253.702 197.19 253.607 195.686 253.368C194.263 253.084 192.852 252.799 191.134 252.515C188.06 251.554 185.114 250.225 182.36 248.555C181.71 248.161 180.967 247.947 180.207 247.935C179.446 247.923 178.697 248.115 178.035 248.489C177.373 248.863 176.823 249.407 176.441 250.065C176.059 250.723 175.86 251.47 175.863 252.23C175.895 252.954 176.09 253.661 176.432 254.3C176.775 254.938 177.257 255.491 177.843 255.917C181.764 258.047 185.945 259.662 190.28 260.719C191.987 261.004 193.967 261.288 195.663 261.573V270.904C195.633 271.479 195.721 272.054 195.92 272.594C196.12 273.135 196.427 273.628 196.824 274.046C197.22 274.464 197.697 274.796 198.227 275.024C198.756 275.251 199.326 275.368 199.902 275.368C200.477 275.368 201.047 275.251 201.577 275.024C202.106 274.796 202.583 274.464 202.98 274.046C203.376 273.628 203.684 273.135 203.883 272.594C204.083 272.054 204.17 271.479 204.14 270.904V261.288C209.484 260.822 214.586 258.849 218.854 255.599C223.94 251.639 226.489 246.825 226.489 241.454C227.115 235.184 223.428 230.382 216.362 227.264Z" fill="#63365D"/>
<defs>
<linearGradient id="paint0_linear" x1="-87.2368" y1="292.926" x2="304.174" y2="-83.0928" gradientUnits="userSpaceOnUse">
<stop stop-color="#EB5B28"/>
<stop offset="0.06" stop-color="#EC602D"/>
<stop offset="0.42" stop-color="#EF7946"/>
<stop offset="0.74" stop-color="#F18956"/>
<stop offset="1" stop-color="#F28E5B"/>
</linearGradient>
</defs>
</svg>
