<svg width="390" height="390" viewBox="0 0 390 390" fill="none" xmlns="http://www.w3.org/2000/svg">
<path d="M375.811 0H14.1887C6.3525 0 0 3.8177 0 8.52707V381.473C0 386.182 6.3525 390 14.1887 390H375.811C383.648 390 390 386.182 390 381.473V8.52707C390 3.8177 383.648 0 375.811 0Z" fill="url(#paint0_linear)"/>
<path d="M251.77 127.15H250.88V117.81C250.877 115.786 250.476 113.783 249.699 111.914C248.923 110.046 247.785 108.348 246.353 106.919C244.92 105.49 243.219 104.357 241.349 103.585C239.478 102.813 237.474 102.417 235.45 102.42C231.367 102.428 227.453 104.056 224.569 106.948C221.686 109.839 220.067 113.756 220.07 117.84V127.15V118.78C220.067 116.758 219.667 114.756 218.89 112.888C218.114 111.021 216.977 109.325 215.545 107.896C214.114 106.468 212.414 105.336 210.545 104.565C208.676 103.793 206.672 103.397 204.65 103.4C200.76 103.405 197.016 104.883 194.17 107.535C191.324 110.188 189.588 113.82 189.31 117.7C189.07 113.775 187.339 110.089 184.47 107.399C181.601 104.709 177.813 103.218 173.88 103.23C169.797 103.238 165.883 104.866 162.999 107.758C160.116 110.649 158.497 114.566 158.5 118.65V122.08C158.004 118.92 156.395 116.042 153.964 113.965C151.532 111.887 148.438 110.747 145.24 110.75C141.685 110.755 138.278 112.172 135.767 114.688C133.256 117.205 131.847 120.615 131.85 124.17V147.08C131.847 148.635 132.118 150.179 132.65 151.64V196.36C132.685 203.295 134.678 210.078 138.4 215.93L157.4 243L156.67 257.72L239.58 258.16L239.38 238.28L268.31 184.93C270.541 180.8 271.719 176.184 271.74 171.49L271.87 147.93C271.94 136.47 262.88 127.15 251.77 127.15Z" fill="#FDD9A9"/>
<path d="M220.01 127.09V118.78C220.002 114.696 218.374 110.783 215.483 107.899C212.591 105.016 208.674 103.397 204.59 103.4C202.41 103.397 200.254 103.864 198.27 104.77C200.928 106.005 203.178 107.973 204.756 110.442C206.334 112.911 207.175 115.779 207.18 118.71V130.32C209.528 128.241 212.555 127.092 215.69 127.09H220.01Z" fill="#F4C08E"/>
<path d="M250.82 117.81C250.818 115.786 250.416 113.783 249.639 111.914C248.863 110.046 247.725 108.348 246.293 106.919C244.86 105.49 243.159 104.357 241.289 103.585C239.418 102.813 237.414 102.417 235.39 102.42C233.24 102.425 231.115 102.878 229.15 103.75C231.835 104.975 234.11 106.946 235.706 109.428C237.302 111.911 238.15 114.799 238.15 117.75V127.1H250.88L250.82 117.81Z" fill="#F4C08E"/>
<path d="M260.29 263.88C260.294 263.143 260.153 262.413 259.875 261.731C259.596 261.049 259.186 260.428 258.668 259.904C258.15 259.381 257.534 258.964 256.855 258.678C256.176 258.393 255.447 258.244 254.71 258.24L142.56 257.64C141.823 257.636 141.093 257.777 140.411 258.056C139.729 258.334 139.108 258.744 138.585 259.262C138.061 259.78 137.644 260.396 137.359 261.075C137.073 261.755 136.924 262.483 136.92 263.22L136.88 276.28C136.872 277.769 137.455 279.2 138.502 280.259C139.548 281.319 140.971 281.919 142.46 281.93L218.79 282.33L233.39 282.41L254.61 282.53C256.099 282.535 257.529 281.95 258.587 280.902C259.644 279.854 260.242 278.429 260.25 276.94L260.29 263.88Z" fill="#E52332"/>
<path d="M254.71 258.24L242.04 258.17C243.529 258.18 244.953 258.781 245.999 259.841C247.045 260.9 247.628 262.331 247.62 263.82L247.55 276.88C247.546 277.617 247.397 278.345 247.112 279.025C246.826 279.704 246.41 280.32 245.886 280.838C245.362 281.356 244.741 281.766 244.059 282.044C243.377 282.323 242.647 282.464 241.91 282.46L254.58 282.53C255.317 282.534 256.047 282.393 256.729 282.114C257.411 281.836 258.032 281.426 258.556 280.908C259.08 280.39 259.496 279.774 259.782 279.095C260.067 278.415 260.216 277.687 260.22 276.95L260.29 263.88C260.294 263.143 260.153 262.413 259.875 261.731C259.596 261.049 259.186 260.428 258.668 259.904C258.15 259.381 257.534 258.964 256.855 258.678C256.176 258.393 255.447 258.244 254.71 258.24Z" fill="#CD1420"/>
<path d="M145.93 281.95L141.27 334.79C141.176 335.841 141.301 336.901 141.638 337.901C141.975 338.901 142.516 339.821 143.226 340.601C143.937 341.382 144.802 342.006 145.767 342.434C146.732 342.863 147.775 343.086 148.83 343.09L248.37 343.63C249.407 343.635 250.433 343.429 251.387 343.025C252.342 342.62 253.203 342.026 253.92 341.277C254.637 340.528 255.194 339.642 255.557 338.671C255.919 337.7 256.08 336.665 256.03 335.63L253.24 282.55L145.93 281.95Z" fill="#E52332"/>
<path d="M253.24 282.52L145.92 281.94L145.18 290.37L218.58 290.76L233.18 290.84L253.68 290.95L253.24 282.52Z" fill="#BA1822"/>
<path d="M253.24 282.52L240.57 282.45L243.78 343.59H248.37C249.406 343.595 250.433 343.389 251.387 342.985C252.342 342.58 253.203 341.986 253.92 341.237C254.637 340.488 255.194 339.602 255.556 338.631C255.919 337.66 256.08 336.625 256.03 335.59L253.24 282.52Z" fill="#CD1420"/>
<path d="M240.57 282.45L241.01 290.88L253.68 290.95L253.24 282.52L240.57 282.45Z" fill="#9A1919"/>
<path d="M238.43 167.59C238.467 166.596 238.301 165.605 237.944 164.677C237.586 163.748 237.044 162.903 236.35 162.19H236.3C235.283 161.158 234.073 160.337 232.737 159.774C231.402 159.211 229.969 158.917 228.52 158.91H215.58C214.171 158.901 212.772 158.661 211.44 158.2C209.328 159.242 207.005 159.783 204.65 159.78H204.54C200.746 159.75 197.094 158.329 194.277 155.788C191.459 153.247 189.671 149.761 189.25 145.99C188.791 149.743 186.974 153.198 184.143 155.703C181.311 158.209 177.661 159.591 173.88 159.59H173.77C170.202 159.562 166.753 158.304 164.004 156.029C161.255 153.753 159.375 150.6 158.68 147.1C158.678 150.663 157.266 154.081 154.754 156.608C152.242 159.135 148.833 160.566 145.27 160.59H145.18C142.455 160.567 139.801 159.721 137.565 158.164C135.329 156.606 133.616 154.408 132.65 151.86V165.25C136.31 167.822 140.667 169.217 145.14 169.25H145.28C150.666 169.224 155.858 167.233 159.88 163.65C163.936 166.582 168.806 168.173 173.81 168.2H173.97C179.53 168.207 184.92 166.277 189.21 162.74C193.5 166.36 198.927 168.353 204.54 168.37H204.7C207.21 168.365 209.704 167.967 212.09 167.19C213.24 167.387 214.404 167.491 215.57 167.5L238.43 167.59Z" fill="#F7AD6C"/>
<path d="M268.63 130.26C264.912 126.48 260.03 124.06 254.77 123.39V117.8C254.762 112.671 252.719 107.754 249.089 104.13C245.459 100.506 240.54 98.47 235.41 98.47C232.325 98.4689 229.284 99.2052 226.54 100.618C223.797 102.03 221.431 104.078 219.64 106.59C219.21 106.06 218.75 105.59 218.27 105.07C216.327 103.123 213.99 101.614 211.417 100.642C208.843 99.671 206.092 99.2601 203.347 99.4371C200.602 99.6141 197.926 100.375 195.498 101.669C193.071 102.963 190.948 104.76 189.27 106.94C187.469 104.564 185.142 102.636 182.472 101.307C179.803 99.9783 176.862 99.2845 173.88 99.28C170.158 99.2899 166.517 100.371 163.393 102.394C160.268 104.418 157.792 107.297 156.26 110.69C153.155 108.159 149.267 106.784 145.26 106.8C140.651 106.8 136.23 108.631 132.971 111.89C129.711 115.15 127.88 119.571 127.88 124.18V147.08C127.887 148.847 128.16 150.604 128.69 152.29V186.34C128.703 187.392 129.131 188.397 129.879 189.136C130.628 189.875 131.638 190.29 132.69 190.29C133.742 190.29 134.752 189.875 135.501 189.136C136.25 188.397 136.677 187.392 136.69 186.34V162.15C139.292 163.66 142.242 164.466 145.25 164.49H145.36C148.148 164.484 150.894 163.808 153.366 162.521C155.839 161.233 157.967 159.37 159.57 157.09C161.377 159.098 163.583 160.708 166.047 161.817C168.511 162.926 171.178 163.509 173.88 163.53H174.01C176.955 163.523 179.86 162.848 182.505 161.554C185.151 160.259 187.467 158.381 189.28 156.06C191.079 158.422 193.397 160.339 196.056 161.662C198.714 162.985 201.641 163.679 204.61 163.69H204.74C206.456 163.69 208.165 163.461 209.82 163.01C210 162.957 210.177 162.894 210.35 162.82C211.574 163.097 212.825 163.234 214.08 163.23L226.87 163.16C227.811 163.159 228.743 163.345 229.612 163.708C230.48 164.07 231.268 164.601 231.93 165.27C233.12 166.455 233.89 167.997 234.12 169.66L225.04 182.52C224.971 182.613 224.908 182.71 224.85 182.81C221.356 188.901 219.328 195.721 218.925 202.731C218.522 209.741 219.757 216.749 222.53 223.2C222.84 223.909 223.348 224.514 223.994 224.94C224.64 225.366 225.396 225.595 226.17 225.6C226.703 225.601 227.231 225.492 227.72 225.28C228.197 225.077 228.63 224.782 228.993 224.412C229.356 224.041 229.642 223.603 229.836 223.122C230.029 222.641 230.125 222.126 230.119 221.607C230.113 221.089 230.005 220.577 229.8 220.1C227.558 214.799 226.554 209.056 226.864 203.308C227.174 197.561 228.791 191.959 231.59 186.93L241.38 173.08C241.851 172.412 242.105 171.617 242.11 170.8C242.12 168.73 241.717 166.679 240.926 164.766C240.134 162.854 238.97 161.118 237.5 159.66C236.107 158.263 234.452 157.154 232.63 156.397C230.807 155.64 228.853 155.25 226.88 155.25H226.79L214 155.33C213.01 155.341 212.025 155.178 211.09 154.85C210.811 154.758 210.538 154.651 210.27 154.53C209.47 154.16 208.726 153.678 208.06 153.1C207.745 152.823 207.45 152.522 207.18 152.2C207.18 152.2 207.18 152.2 207.18 152.15L207.07 152.02C207.059 151.993 207.042 151.969 207.02 151.95L206.76 151.61C206.63 151.42 206.51 151.24 206.39 151.04C206.29 150.86 206.19 150.69 206.09 150.5L206 150.31C205.951 150.216 205.907 150.119 205.87 150.02C205.8 149.88 205.74 149.73 205.68 149.58C205.62 149.43 205.57 149.29 205.52 149.15V149.05L205.34 148.43V148.28C205.34 148.1 205.26 147.92 205.23 147.74C205.23 147.74 205.23 147.67 205.23 147.64C205.23 147.42 205.17 147.19 205.14 146.97V146.59C205.14 146.36 205.14 146.12 205.14 145.88V141.16V141.1C205.127 138.599 206.084 136.19 207.81 134.38C208.01 134.17 208.23 133.97 208.45 133.77C208.887 133.33 209.366 132.935 209.88 132.59C212.81 132.2 227.31 130.45 250.04 131.04C250.306 131.101 250.578 131.131 250.85 131.13H251.79C253.886 131.129 255.962 131.546 257.895 132.357C259.828 133.167 261.581 134.355 263.05 135.85C264.614 137.44 265.846 139.325 266.675 141.395C267.504 143.466 267.914 145.68 267.88 147.91L267.76 171.47C267.724 175.518 266.694 179.494 264.76 183.05L235.88 236.39C235.557 236.981 235.392 237.646 235.4 238.32L235.57 254.19L160.88 253.79L161.41 243.2C161.452 242.321 161.202 241.453 160.7 240.73L141.76 213.73C139.23 209.722 137.593 205.217 136.96 200.52C136.981 199.94 136.876 199.362 136.651 198.827C136.427 198.292 136.088 197.812 135.66 197.421C135.231 197.03 134.723 196.736 134.17 196.561C133.616 196.386 133.032 196.334 132.456 196.407C131.88 196.481 131.328 196.679 130.836 196.987C130.345 197.296 129.926 197.707 129.61 198.194C129.293 198.68 129.087 199.23 129.004 199.804C128.921 200.378 128.964 200.964 129.13 201.52C129.913 207.383 131.96 213.006 135.13 218L135.23 218.15L153.44 244.15L152.96 253.73H142.57C140.046 253.738 137.626 254.741 135.836 256.521C134.047 258.301 133.031 260.716 133.01 263.24L132.88 276.26C132.864 278.661 133.752 280.979 135.367 282.755C136.983 284.53 139.209 285.631 141.6 285.84L137.31 334.45C137.171 336.045 137.363 337.653 137.876 339.17C138.388 340.687 139.21 342.082 140.289 343.266C141.367 344.45 142.68 345.397 144.143 346.049C145.606 346.7 147.189 347.041 148.79 347.05L248.33 347.58H248.39C249.964 347.582 251.522 347.264 252.969 346.644C254.415 346.024 255.721 345.117 256.805 343.976C257.89 342.835 258.73 341.486 259.276 340.01C259.822 338.534 260.062 336.962 259.98 335.39L257.39 286.06C259.342 285.463 261.053 284.259 262.273 282.622C263.492 280.985 264.157 279.001 264.17 276.96L264.24 263.9C264.247 262.645 264.006 261.4 263.532 260.238C263.057 259.075 262.359 258.018 261.475 257.125C260.592 256.233 259.542 255.523 258.385 255.037C257.227 254.55 255.986 254.297 254.73 254.29L243.5 254.23L243.35 239.23L271.79 186.79C274.328 182.084 275.67 176.827 275.7 171.48L275.83 147.92C275.862 144.646 275.242 141.398 274.006 138.366C272.77 135.334 270.942 132.578 268.63 130.26ZM145.28 156.59H145.2C143.344 156.569 141.534 156.009 139.99 154.98C138.446 153.95 137.233 152.495 136.5 150.79C136.467 150.623 136.421 150.459 136.36 150.3C135.989 149.27 135.8 148.184 135.8 147.09V124.18C135.803 121.675 136.798 119.274 138.567 117.501C140.336 115.728 142.735 114.728 145.24 114.72C147.451 114.732 149.588 115.514 151.284 116.933C152.98 118.351 154.128 120.316 154.53 122.49L154.8 146.74C154.8 146.85 154.8 146.97 154.8 147.09C154.792 149.611 153.786 152.025 152.002 153.806C150.218 155.586 147.801 156.587 145.28 156.59ZM173.93 155.59H173.88C171.292 155.566 168.788 154.674 166.768 153.056C164.748 151.439 163.329 149.19 162.74 146.67L162.47 122.03V118.62C162.478 115.594 163.682 112.695 165.82 110.554C167.957 108.412 170.855 107.203 173.88 107.19C176.783 107.191 179.577 108.294 181.697 110.277C183.817 112.26 185.105 114.974 185.3 117.87V145.65C184.924 148.4 183.565 150.921 181.475 152.748C179.386 154.575 176.706 155.584 173.93 155.59ZM193.2 145.64V117.9C193.435 115.036 194.735 112.363 196.844 110.41C198.952 108.457 201.716 107.365 204.59 107.35C207.625 107.35 210.536 108.555 212.683 110.7C214.83 112.845 216.037 115.755 216.04 118.79V123.96C211.04 124.39 208.35 124.8 208.04 124.84H207.95H207.72L207.54 124.89L207.36 124.95L207.14 125.04H207.05H206.98L206.84 125.11C205.395 125.77 204.049 126.628 202.84 127.66C202.42 128.02 202.02 128.4 201.64 128.79C198.505 132.117 196.797 136.539 196.88 141.11V141.22V145.94C196.88 146.33 196.88 146.73 196.93 147.2V147.44C196.93 147.86 197.01 148.26 197.07 148.64V148.82V148.96C197.12 149.23 197.17 149.51 197.24 149.78V149.9C197.33 150.28 197.44 150.66 197.56 151.04V151.13C197.61 151.28 197.67 151.44 197.73 151.6L197.91 152.04L198.03 152.33C198.18 152.67 198.33 153.01 198.49 153.33V153.39V153.46V153.53L198.66 153.83C197.202 152.96 195.955 151.776 195.011 150.365C194.067 148.954 193.448 147.35 193.2 145.67V145.64ZM223.97 123.39V117.81C223.973 114.775 225.178 111.865 227.323 109.716C229.467 107.568 232.375 106.358 235.41 106.35C236.917 106.346 238.409 106.64 239.802 107.214C241.195 107.788 242.46 108.632 243.526 109.697C244.592 110.762 245.437 112.027 246.012 113.419C246.588 114.811 246.883 116.303 246.88 117.81V123.05C237.72 122.89 230.03 123.1 223.97 123.42V123.39ZM251.08 338.53C250.737 338.893 250.323 339.182 249.864 339.378C249.404 339.574 248.91 339.673 248.41 339.67V343.67V339.67L148.88 339.14C148.371 339.138 147.868 339.03 147.403 338.824C146.938 338.617 146.521 338.316 146.178 337.941C145.835 337.565 145.573 337.122 145.41 336.64C145.247 336.158 145.186 335.647 145.23 335.14L149.58 285.92L198.91 286.18L249.52 286.45L252.11 335.8C252.137 336.301 252.059 336.803 251.882 337.273C251.704 337.743 251.431 338.171 251.08 338.53ZM255.88 262.69C256.034 262.844 256.155 263.026 256.237 263.227C256.32 263.428 256.362 263.643 256.36 263.86L256.29 276.92C256.285 277.358 256.108 277.776 255.798 278.084C255.487 278.393 255.068 278.567 254.63 278.57V278.82V278.59L142.48 277.99C142.042 277.987 141.622 277.811 141.313 277.5C141.004 277.189 140.83 276.768 140.83 276.33L140.9 263.26C140.905 262.821 141.084 262.401 141.396 262.092C141.709 261.783 142.131 261.61 142.57 261.61L156.69 261.69L192.19 261.88L254.72 262.21C254.936 262.21 255.149 262.252 255.348 262.335C255.547 262.417 255.728 262.538 255.88 262.69Z" fill="#502D4B"/>
<path d="M202.34 79.98C201.381 79.9813 200.431 79.7934 199.545 79.427C198.659 79.0606 197.854 78.5229 197.175 77.8448C196.497 77.1667 195.96 76.3614 195.593 75.4751C195.227 74.5889 195.039 73.639 195.04 72.68V50.3C195.04 48.3639 195.809 46.5071 197.178 45.1381C198.547 43.7691 200.404 43 202.34 43C204.276 43 206.133 43.7691 207.502 45.1381C208.871 46.5071 209.64 48.3639 209.64 50.3V72.68C209.64 74.6161 208.871 76.4729 207.502 77.8419C206.133 79.2109 204.276 79.98 202.34 79.98Z" fill="#F4E600"/>
<path d="M240.97 85.1399C239.602 83.771 238.834 81.915 238.834 79.9799C238.834 78.0447 239.602 76.1887 240.97 74.8199L255.56 60.2299C256.24 59.5523 257.048 59.0153 257.935 58.6495C258.823 58.2838 259.774 58.0965 260.734 58.0984C261.695 58.1003 262.645 58.2912 263.531 58.6604C264.418 59.0295 265.223 59.5696 265.9 60.2499C266.578 60.9301 267.115 61.7372 267.481 62.625C267.846 63.5127 268.034 64.4639 268.032 65.424C268.03 66.3842 267.839 67.3346 267.47 68.2209C267.101 69.1073 266.56 69.9123 265.88 70.5899L251.29 85.1799C249.916 86.5425 248.057 87.3037 246.122 87.2962C244.187 87.2887 242.334 86.5131 240.97 85.1399Z" fill="#F4E600"/>
<path d="M304.51 160.26H289.88C287.992 160.19 286.205 159.391 284.894 158.031C283.583 156.67 282.85 154.854 282.85 152.965C282.85 151.076 283.583 149.26 284.894 147.9C286.205 146.539 287.992 145.74 289.88 145.67H304.48C305.461 145.634 306.439 145.796 307.356 146.146C308.272 146.496 309.109 147.028 309.816 147.709C310.522 148.39 311.085 149.206 311.469 150.109C311.852 151.012 312.05 151.984 312.05 152.965C312.05 153.946 311.852 154.918 311.469 155.821C311.085 156.724 310.522 157.541 309.816 158.222C309.109 158.903 308.272 159.434 307.356 159.784C306.439 160.135 305.461 160.296 304.48 160.26H304.51Z" fill="#F4E600"/>
<path d="M100.16 160.26H85.5701C84.5894 160.296 83.6114 160.135 82.6947 159.784C81.7779 159.434 80.9412 158.903 80.2345 158.222C79.5279 157.541 78.9658 156.724 78.5818 155.821C78.1979 154.918 78 153.946 78 152.965C78 151.984 78.1979 151.012 78.5818 150.109C78.9658 149.206 79.5279 148.39 80.2345 147.709C80.9412 147.028 81.7779 146.496 82.6947 146.146C83.6114 145.796 84.5894 145.634 85.5701 145.67H100.16C101.141 145.634 102.119 145.796 103.036 146.146C103.952 146.496 104.789 147.028 105.496 147.709C106.202 148.39 106.765 149.206 107.148 150.109C107.532 151.012 107.73 151.984 107.73 152.965C107.73 153.946 107.532 154.918 107.148 155.821C106.765 156.724 106.202 157.541 105.496 158.222C104.789 158.903 103.952 159.434 103.036 159.784C102.119 160.135 101.141 160.296 100.16 160.26Z" fill="#F4E600"/>
<path d="M153.39 85.14L138.79 70.59C137.482 69.2093 136.765 67.3726 136.79 65.4708C136.816 63.569 137.583 61.7523 138.928 60.4074C140.273 59.0625 142.089 58.2956 143.991 58.27C145.893 58.2443 147.73 58.9619 149.11 60.27L163.71 74.86C165.018 76.2407 165.736 78.0774 165.71 79.9792C165.685 81.881 164.918 83.6977 163.573 85.0426C162.228 86.3875 160.411 87.1544 158.509 87.1801C156.608 87.2057 154.771 86.4881 153.39 85.18V85.14Z" fill="#F4E600"/>
<path d="M111.5 108.41L96.9003 101.11C95.1684 100.244 93.8515 98.7257 93.2392 96.8888C92.6269 95.0519 92.7693 93.0469 93.6353 91.3151C94.5012 89.5832 96.0197 88.2663 97.8566 87.654C99.6935 87.0416 101.698 87.1841 103.43 88.0501L118.02 95.3501C118.898 95.7662 119.683 96.3532 120.331 97.0767C120.978 97.8002 121.475 98.6456 121.792 99.5634C122.109 100.481 122.239 101.453 122.176 102.422C122.113 103.391 121.856 104.337 121.423 105.206C120.989 106.075 120.386 106.848 119.65 107.481C118.914 108.114 118.059 108.594 117.135 108.892C116.21 109.191 115.236 109.302 114.269 109.219C113.301 109.136 112.36 108.861 111.5 108.41Z" fill="#F4E600"/>
<path d="M268.79 105.14C267.925 103.409 267.783 101.406 268.394 99.5704C269.005 97.7347 270.32 96.2167 272.05 95.3501L286.65 88.0501C288.382 87.1841 290.387 87.0416 292.224 87.654C294.061 88.2663 295.579 89.5832 296.445 91.3151C297.311 93.0469 297.454 95.0519 296.841 96.8888C296.229 98.7257 294.912 100.244 293.18 101.11L278.58 108.41C276.848 109.272 274.845 109.411 273.01 108.798C271.174 108.185 269.657 106.87 268.79 105.14Z" fill="#F4E600"/>
<defs>
<linearGradient id="paint0_linear" x1="-87.2368" y1="292.926" x2="304.174" y2="-83.0928" gradientUnits="userSpaceOnUse">
<stop stop-color="#29285C"/>
<stop offset="0.11" stop-color="#493670"/>
<stop offset="0.23" stop-color="#634181"/>
<stop offset="0.37" stop-color="#774A8E"/>
<stop offset="0.52" stop-color="#855097"/>
<stop offset="0.7" stop-color="#8D549C"/>
<stop offset="1" stop-color="#90559E"/>
</linearGradient>
</defs>
</svg>
