<svg width="390" height="390" viewBox="0 0 390 390" fill="none" xmlns="http://www.w3.org/2000/svg">
<path opacity="0.75" d="M375.811 0H14.1887C6.3525 0 0 3.8177 0 8.52708V381.473C0 386.182 6.3525 390 14.1887 390H375.811C383.648 390 390 386.182 390 381.473V8.52708C390 3.8177 383.648 0 375.811 0Z" fill="url(#paint0_linear)"/>
<path d="M238.49 183.19V101.36H150.74V183.19H238.49Z" fill="#FAD7D4"/>
<path d="M112.27 252.59V288.59H272.07V242.3H109.07V249.4C109.49 249.398 109.906 249.48 110.294 249.64C110.682 249.799 111.035 250.034 111.332 250.331C111.63 250.627 111.865 250.979 112.026 251.367C112.187 251.754 112.27 252.17 112.27 252.59Z" fill="#B3C2B6"/>
<path d="M134.79 155.32H107.38V217.44H281.85V155.32H254.44C254.021 155.32 253.606 155.237 253.219 155.077C252.832 154.917 252.481 154.682 252.184 154.386C251.888 154.089 251.653 153.738 251.493 153.351C251.333 152.964 251.25 152.549 251.25 152.13H244.87V183.19H255.71C256.556 183.19 257.368 183.526 257.966 184.124C258.564 184.722 258.9 185.534 258.9 186.38C258.9 187.226 258.564 188.037 257.966 188.636C257.368 189.234 256.556 189.57 255.71 189.57H133.52C132.674 189.57 131.863 189.234 131.264 188.636C130.666 188.037 130.33 187.226 130.33 186.38C130.33 185.534 130.666 184.722 131.264 184.124C131.863 183.526 132.674 183.19 133.52 183.19H144.36V152.13H137.97C137.97 152.974 137.635 153.784 137.039 154.382C136.443 154.98 135.634 155.317 134.79 155.32Z" fill="#F3F0E0"/>
<path d="M281.85 223.82H107.38V235.91H281.85V223.82Z" fill="#D6E6DA"/>
<path d="M133.52 183.19C132.674 183.19 131.862 183.526 131.264 184.124C130.666 184.723 130.33 185.534 130.33 186.38C130.33 187.226 130.666 188.037 131.264 188.636C131.862 189.234 132.674 189.57 133.52 189.57H255.71C256.556 189.57 257.367 189.234 257.966 188.636C258.564 188.037 258.9 187.226 258.9 186.38C258.9 185.534 258.564 184.723 257.966 184.124C257.367 183.526 256.556 183.19 255.71 183.19H244.87V98.19C244.87 97.344 244.534 96.5326 243.936 95.9343C243.337 95.3361 242.526 95 241.68 95H147.55C146.704 95 145.892 95.3361 145.294 95.9343C144.696 96.5326 144.36 97.344 144.36 98.19V183.19H133.52ZM238.52 101.36V183.19H150.77V101.36H238.52Z" fill="#3F2D3B"/>
<path d="M285.04 148.94H254.44C253.594 148.94 252.783 149.276 252.184 149.874C251.586 150.473 251.25 151.284 251.25 152.13C251.25 152.976 251.586 153.787 252.184 154.386C252.783 154.984 253.594 155.32 254.44 155.32H281.85V217.44H107.38V155.32H134.79C135.636 155.32 136.447 154.984 137.046 154.386C137.644 153.787 137.98 152.976 137.98 152.13C137.98 151.284 137.644 150.473 137.046 149.874C136.447 149.276 135.636 148.94 134.79 148.94H104.19C103.344 148.94 102.533 149.276 101.934 149.874C101.336 150.473 101 151.284 101 152.13V239.13C100.999 239.55 101.08 239.966 101.24 240.354C101.4 240.742 101.634 241.095 101.931 241.392C102.227 241.689 102.579 241.925 102.967 242.086C103.355 242.247 103.77 242.33 104.19 242.33H272.07V288.62H112.27V252.62C112.27 251.774 111.934 250.963 111.336 250.364C110.737 249.766 109.926 249.43 109.08 249.43C108.234 249.43 107.423 249.766 106.824 250.364C106.226 250.963 105.89 251.774 105.89 252.62V291.82C105.89 292.239 105.973 292.654 106.133 293.041C106.293 293.428 106.528 293.779 106.824 294.076C107.121 294.372 107.472 294.607 107.859 294.767C108.246 294.927 108.661 295.01 109.08 295.01H275.26C275.68 295.011 276.096 294.93 276.484 294.77C276.872 294.61 277.225 294.376 277.522 294.079C277.819 293.783 278.055 293.431 278.216 293.043C278.377 292.655 278.46 292.24 278.46 291.82V242.3H285.04C285.46 242.3 285.875 242.217 286.263 242.056C286.651 241.895 287.003 241.659 287.299 241.362C287.596 241.065 287.83 240.712 287.99 240.324C288.15 239.936 288.231 239.52 288.23 239.1V152.1C288.222 151.259 287.883 150.455 287.285 149.864C286.688 149.272 285.881 148.94 285.04 148.94ZM107.38 235.94V223.83H281.85V235.91L107.38 235.94Z" fill="#3F2D3B"/>
<path d="M224.82 173.11H202.25C201.68 173.11 201.133 172.883 200.73 172.48C200.326 172.077 200.1 171.53 200.1 170.96V148.39C200.1 147.819 200.326 147.271 200.729 146.866C201.132 146.461 201.679 146.233 202.25 146.23H224.82C225.391 146.233 225.938 146.461 226.341 146.866C226.744 147.271 226.97 147.819 226.97 148.39V170.96C226.97 171.53 226.743 172.077 226.34 172.48C225.937 172.883 225.39 173.11 224.82 173.11Z" fill="#8CC5ED"/>
<path d="M224.82 146.23H220.97C221.541 146.233 222.088 146.461 222.491 146.866C222.894 147.271 223.12 147.819 223.12 148.39V170.96C223.12 171.53 222.893 172.077 222.49 172.48C222.087 172.883 221.54 173.11 220.97 173.11H224.78C225.062 173.11 225.342 173.054 225.603 172.946C225.864 172.838 226.101 172.68 226.3 172.48C226.5 172.281 226.658 172.044 226.766 171.783C226.874 171.522 226.93 171.242 226.93 170.96V148.39C226.93 147.826 226.709 147.284 226.315 146.88C225.921 146.476 225.384 146.243 224.82 146.23Z" fill="#71B9E5"/>
<path d="M218.43 154.73L211.57 162.11L208.74 157.98C208.664 157.849 208.562 157.735 208.44 157.646C208.318 157.557 208.179 157.493 208.031 157.46C207.883 157.427 207.731 157.424 207.582 157.453C207.433 157.481 207.292 157.54 207.168 157.626C207.043 157.711 206.937 157.821 206.857 157.95C206.776 158.078 206.724 158.221 206.701 158.371C206.679 158.521 206.688 158.673 206.727 158.819C206.766 158.965 206.836 159.102 206.93 159.22L210.53 164.49C210.624 164.626 210.748 164.738 210.891 164.82C211.035 164.901 211.195 164.949 211.36 164.96H211.44C211.591 164.962 211.74 164.931 211.878 164.871C212.016 164.811 212.139 164.722 212.24 164.61L220.04 156.23C220.142 156.129 220.224 156.008 220.279 155.875C220.335 155.742 220.364 155.599 220.364 155.455C220.364 155.311 220.335 155.168 220.279 155.035C220.224 154.902 220.142 154.781 220.04 154.68C219.933 154.574 219.805 154.491 219.665 154.435C219.525 154.38 219.375 154.354 219.224 154.359C219.074 154.364 218.926 154.399 218.789 154.463C218.652 154.526 218.53 154.617 218.43 154.73Z" fill="#502D4B"/>
<path d="M224.82 145.13H202.25C201.387 145.133 200.561 145.477 199.951 146.088C199.342 146.699 199 147.527 199 148.39V170.96C199.003 171.821 199.346 172.646 199.955 173.255C200.564 173.864 201.389 174.207 202.25 174.21H224.82C225.681 174.207 226.506 173.864 227.115 173.255C227.724 172.646 228.067 171.821 228.07 170.96V155.69C228.07 155.398 227.954 155.118 227.748 154.912C227.542 154.706 227.262 154.59 226.97 154.59C226.678 154.59 226.398 154.706 226.192 154.912C225.986 155.118 225.87 155.398 225.87 155.69V170.96C225.87 171.096 225.843 171.23 225.789 171.354C225.736 171.479 225.658 171.592 225.56 171.685C225.461 171.779 225.345 171.851 225.218 171.899C225.091 171.946 224.955 171.967 224.82 171.96H202.25C201.985 171.96 201.73 171.855 201.543 171.667C201.355 171.479 201.25 171.225 201.25 170.96V148.39C201.25 148.119 201.353 147.858 201.539 147.661C201.725 147.464 201.979 147.345 202.25 147.33H224.82C225.099 147.333 225.366 147.445 225.563 147.644C225.76 147.842 225.87 148.11 225.87 148.39V150.98C225.87 151.272 225.986 151.551 226.192 151.758C226.398 151.964 226.678 152.08 226.97 152.08C227.262 152.08 227.542 151.964 227.748 151.758C227.954 151.551 228.07 151.272 228.07 150.98V148.39C228.07 147.527 227.728 146.699 227.119 146.088C226.509 145.477 225.683 145.133 224.82 145.13Z" fill="#502D4B"/>
<path d="M177.58 125.99C181.065 125.99 183.89 123.165 183.89 119.68C183.89 116.195 181.065 113.37 177.58 113.37C174.095 113.37 171.27 116.195 171.27 119.68C171.27 123.165 174.095 125.99 177.58 125.99Z" fill="#CDCCCC"/>
<path d="M190.2 134.05C190.214 133.152 189.956 132.271 189.46 131.523C188.964 130.775 188.252 130.195 187.42 129.86L185.8 129.42C184.56 129.089 183.283 128.92 182 128.92H173.17C171.887 128.92 170.609 129.089 169.37 129.42L167.75 129.86C166.917 130.195 166.206 130.775 165.71 131.523C165.213 132.271 164.955 133.152 164.97 134.05L164.71 138.92C164.706 139.021 164.722 139.122 164.758 139.216C164.794 139.311 164.849 139.397 164.919 139.47C164.989 139.543 165.073 139.601 165.166 139.64C165.259 139.68 165.359 139.7 165.46 139.7H189.71C189.811 139.7 189.911 139.68 190.004 139.64C190.097 139.601 190.181 139.543 190.251 139.47C190.321 139.397 190.376 139.311 190.412 139.216C190.447 139.122 190.464 139.021 190.46 138.92L190.2 134.05Z" fill="#CDCCCC"/>
<path d="M177.59 127.05C179.056 127.05 180.488 126.615 181.707 125.801C182.925 124.987 183.875 123.83 184.436 122.476C184.997 121.122 185.143 119.632 184.858 118.194C184.572 116.757 183.866 115.437 182.83 114.4C181.793 113.364 180.473 112.658 179.036 112.372C177.598 112.086 176.108 112.233 174.754 112.794C173.4 113.355 172.243 114.305 171.429 115.523C170.615 116.742 170.18 118.174 170.18 119.64C170.18 121.605 170.961 123.49 172.35 124.88C173.74 126.269 175.625 127.05 177.59 127.05ZM177.59 114.43C178.62 114.43 179.628 114.736 180.484 115.308C181.341 115.881 182.009 116.694 182.403 117.646C182.798 118.598 182.901 119.646 182.7 120.656C182.499 121.667 182.003 122.595 181.274 123.324C180.545 124.053 179.617 124.549 178.606 124.75C177.596 124.951 176.548 124.848 175.596 124.453C174.644 124.059 173.831 123.391 173.258 122.535C172.686 121.678 172.38 120.67 172.38 119.64C172.391 118.265 172.944 116.95 173.92 115.982C174.896 115.013 176.215 114.47 177.59 114.47V114.43Z" fill="#502D4B"/>
<path d="M191.3 134.05C191.302 132.929 190.965 131.833 190.333 130.907C189.701 129.981 188.805 129.267 187.76 128.86H187.7L186.09 128.43C184.756 128.071 183.381 127.889 182 127.89H173.17C171.792 127.889 170.42 128.071 169.09 128.43L167.47 128.86C166.668 129.149 165.949 129.631 165.376 130.262C164.802 130.892 164.392 131.654 164.18 132.48C164.107 132.757 164.144 133.052 164.285 133.301C164.426 133.551 164.658 133.736 164.933 133.817C165.208 133.898 165.504 133.868 165.757 133.734C166.011 133.6 166.202 133.373 166.29 133.1C166.4 132.623 166.622 132.18 166.939 131.808C167.256 131.435 167.657 131.145 168.11 130.96L169.7 130.53C170.849 130.227 172.032 130.073 173.22 130.07H181.97C183.158 130.073 184.341 130.227 185.49 130.53L187.08 130.96C187.692 131.236 188.209 131.687 188.565 132.257C188.921 132.826 189.1 133.489 189.08 134.16L189.31 138.65H165.8L165.86 137.49C165.875 137.198 165.773 136.913 165.577 136.696C165.381 136.479 165.107 136.349 164.815 136.335C164.523 136.32 164.238 136.422 164.021 136.618C163.804 136.814 163.674 137.088 163.66 137.38L163.59 138.91C163.576 139.16 163.612 139.411 163.698 139.647C163.784 139.882 163.918 140.098 164.09 140.28C164.264 140.46 164.472 140.603 164.702 140.701C164.932 140.799 165.18 140.849 165.43 140.85H189.68C189.93 140.85 190.178 140.8 190.408 140.702C190.639 140.604 190.847 140.461 191.02 140.28C191.192 140.097 191.325 139.881 191.413 139.646C191.5 139.411 191.54 139.161 191.53 138.91L191.3 134.05Z" fill="#502D4B"/>
<path d="M225.17 140.43H202.6C202.03 140.43 201.483 140.203 201.08 139.8C200.677 139.397 200.45 138.85 200.45 138.28V115.71C200.45 115.139 200.676 114.591 201.079 114.186C201.482 113.781 202.029 113.552 202.6 113.55H225.17C225.743 113.55 226.292 113.777 226.697 114.182C227.102 114.588 227.33 115.137 227.33 115.71V138.28C227.327 138.851 227.099 139.398 226.694 139.801C226.289 140.204 225.741 140.43 225.17 140.43Z" fill="#8CC5ED"/>
<path d="M225.17 113.55H221.36C221.931 113.552 222.478 113.781 222.881 114.186C223.284 114.591 223.51 115.139 223.51 115.71V138.28C223.51 138.85 223.284 139.397 222.88 139.8C222.477 140.203 221.93 140.43 221.36 140.43H225.17C225.741 140.43 226.289 140.204 226.694 139.801C227.099 139.398 227.327 138.851 227.33 138.28V115.71C227.33 115.137 227.102 114.588 226.697 114.182C226.292 113.777 225.743 113.55 225.17 113.55Z" fill="#71B9E5"/>
<path d="M225.17 112.45H202.6C201.737 112.453 200.91 112.797 200.301 113.408C199.692 114.019 199.35 114.847 199.35 115.71V138.28C199.352 139.141 199.696 139.966 200.305 140.575C200.914 141.184 201.739 141.527 202.6 141.53H225.17C226.033 141.53 226.86 141.188 227.471 140.579C228.083 139.969 228.427 139.143 228.43 138.28V123.05C228.43 122.758 228.314 122.478 228.108 122.272C227.901 122.066 227.622 121.95 227.33 121.95C227.038 121.95 226.758 122.066 226.552 122.272C226.346 122.478 226.23 122.758 226.23 123.05V138.32C226.227 138.599 226.114 138.866 225.916 139.063C225.717 139.26 225.449 139.37 225.17 139.37H202.6C202.46 139.377 202.32 139.355 202.19 139.305C202.059 139.254 201.94 139.177 201.841 139.078C201.742 138.979 201.665 138.861 201.615 138.73C201.565 138.599 201.543 138.46 201.55 138.32V115.71C201.55 115.431 201.66 115.162 201.857 114.964C202.053 114.765 202.32 114.653 202.6 114.65H225.17C225.45 114.653 225.718 114.765 225.917 114.963C226.115 115.162 226.227 115.43 226.23 115.71V118.3C226.215 118.453 226.233 118.607 226.281 118.752C226.33 118.897 226.408 119.031 226.511 119.145C226.614 119.258 226.74 119.349 226.88 119.411C227.02 119.473 227.172 119.505 227.325 119.505C227.478 119.505 227.63 119.473 227.77 119.411C227.91 119.349 228.036 119.258 228.139 119.145C228.242 119.031 228.32 118.897 228.369 118.752C228.417 118.607 228.434 118.453 228.42 118.3V115.71C228.421 115.282 228.338 114.859 228.175 114.463C228.013 114.068 227.773 113.708 227.471 113.405C227.17 113.103 226.811 112.862 226.416 112.698C226.021 112.534 225.597 112.45 225.17 112.45Z" fill="#502D4B"/>
<path d="M219.62 122.42C219.518 122.317 219.396 122.235 219.262 122.18C219.129 122.124 218.985 122.095 218.84 122.095C218.695 122.095 218.552 122.124 218.418 122.18C218.284 122.235 218.162 122.317 218.06 122.42L213.54 126.95L209.01 122.42C208.908 122.317 208.786 122.236 208.652 122.181C208.518 122.125 208.375 122.097 208.23 122.097C208.085 122.097 207.942 122.125 207.808 122.181C207.674 122.236 207.553 122.317 207.45 122.42C207.348 122.522 207.266 122.644 207.211 122.778C207.156 122.912 207.127 123.055 207.127 123.2C207.127 123.345 207.156 123.488 207.211 123.622C207.266 123.756 207.348 123.877 207.45 123.98L211.98 128.5L207.45 133.03C207.347 133.132 207.266 133.254 207.21 133.387C207.154 133.521 207.126 133.665 207.126 133.81C207.126 133.955 207.154 134.098 207.21 134.232C207.266 134.366 207.347 134.488 207.45 134.59C207.658 134.795 207.938 134.91 208.23 134.91C208.522 134.91 208.802 134.795 209.01 134.59L213.54 130.06L218.06 134.59C218.268 134.795 218.548 134.91 218.84 134.91C219.132 134.91 219.412 134.795 219.62 134.59C219.723 134.488 219.804 134.366 219.86 134.232C219.916 134.098 219.944 133.955 219.944 133.81C219.944 133.665 219.916 133.521 219.86 133.387C219.804 133.254 219.723 133.132 219.62 133.03L215.09 128.5L219.62 123.98C219.723 123.878 219.804 123.756 219.86 123.622C219.916 123.488 219.944 123.345 219.944 123.2C219.944 123.055 219.916 122.911 219.86 122.777C219.804 122.644 219.723 122.522 219.62 122.42Z" fill="#502D4B"/>
<path d="M177.61 159.37C181.095 159.37 183.92 156.545 183.92 153.06C183.92 149.575 181.095 146.75 177.61 146.75C174.125 146.75 171.3 149.575 171.3 153.06C171.3 156.545 174.125 159.37 177.61 159.37Z" fill="#CDCCCC"/>
<path d="M190.18 167.5C190.194 166.601 189.937 165.719 189.443 164.968C188.949 164.218 188.241 163.633 187.41 163.29L185.79 162.85C184.554 162.516 183.28 162.344 182 162.34H173.16C171.877 162.338 170.6 162.502 169.36 162.83L167.74 163.25C166.906 163.586 166.193 164.165 165.693 164.913C165.194 165.66 164.931 166.541 164.94 167.44L164.67 172.31C164.666 172.41 164.682 172.51 164.717 172.604C164.752 172.698 164.806 172.783 164.875 172.856C164.944 172.929 165.027 172.987 165.119 173.027C165.211 173.067 165.31 173.089 165.41 173.09L189.67 173.18C189.771 173.179 189.872 173.157 189.965 173.116C190.058 173.076 190.142 173.017 190.212 172.943C190.282 172.87 190.336 172.783 190.372 172.688C190.407 172.593 190.424 172.491 190.42 172.39L190.18 167.5Z" fill="#CDCCCC"/>
<path d="M177.58 160.47C179.046 160.476 180.481 160.047 181.703 159.237C182.925 158.427 183.879 157.273 184.445 155.921C185.011 154.569 185.164 153.079 184.883 151.64C184.602 150.201 183.9 148.878 182.867 147.838C181.834 146.798 180.516 146.088 179.079 145.797C177.642 145.506 176.151 145.648 174.795 146.205C173.439 146.762 172.279 147.709 171.461 148.925C170.643 150.142 170.204 151.574 170.2 153.04C170.195 155.003 170.969 156.889 172.353 158.282C173.736 159.675 175.616 160.462 177.58 160.47ZM177.63 147.86C178.66 147.864 179.667 148.173 180.521 148.749C181.376 149.325 182.04 150.141 182.431 151.095C182.822 152.048 182.921 153.096 182.716 154.106C182.511 155.116 182.011 156.042 181.28 156.768C180.548 157.494 179.618 157.986 178.607 158.184C177.595 158.381 176.548 158.274 175.598 157.876C174.647 157.478 173.836 156.807 173.267 155.948C172.698 155.089 172.396 154.08 172.4 153.05C172.403 152.366 172.54 151.689 172.804 151.058C173.068 150.426 173.454 149.854 173.94 149.372C174.426 148.89 175.002 148.508 175.635 148.249C176.268 147.989 176.946 147.857 177.63 147.86Z" fill="#502D4B"/>
<path d="M191.28 167.45C191.282 166.329 190.946 165.233 190.317 164.306C189.687 163.378 188.793 162.662 187.75 162.25L186.13 161.81C184.799 161.452 183.428 161.267 182.05 161.26H173.21C171.833 161.257 170.462 161.432 169.13 161.78L167.51 162.21C166.706 162.494 165.984 162.972 165.408 163.602C164.833 164.231 164.421 164.993 164.21 165.82C164.137 166.097 164.174 166.392 164.315 166.641C164.456 166.891 164.688 167.076 164.963 167.157C165.238 167.238 165.534 167.208 165.787 167.074C166.041 166.94 166.232 166.713 166.32 166.44C166.428 165.962 166.651 165.519 166.97 165.147C167.289 164.776 167.694 164.489 168.15 164.31L169.74 163.89C170.886 163.591 172.066 163.44 173.25 163.44H182.09C183.276 163.44 184.456 163.598 185.6 163.91L187.19 164.35C187.804 164.624 188.322 165.075 188.678 165.645C189.034 166.215 189.213 166.878 189.19 167.55L189.41 172.04L165.9 171.96L165.96 170.81C165.98 170.66 165.969 170.507 165.928 170.362C165.886 170.216 165.815 170.081 165.719 169.964C165.623 169.847 165.504 169.751 165.369 169.682C165.234 169.614 165.086 169.574 164.935 169.565C164.784 169.556 164.633 169.578 164.49 169.63C164.348 169.682 164.219 169.763 164.109 169.868C164 169.973 163.913 170.099 163.855 170.239C163.797 170.378 163.768 170.528 163.77 170.68L163.68 172.21C163.666 172.46 163.704 172.711 163.79 172.946C163.876 173.182 164.01 173.397 164.182 173.579C164.354 173.762 164.561 173.907 164.791 174.007C165.021 174.107 165.269 174.159 165.52 174.16L189.77 174.25C190.021 174.25 190.269 174.199 190.499 174.101C190.73 174.002 190.938 173.858 191.111 173.677C191.284 173.495 191.418 173.28 191.506 173.045C191.593 172.811 191.632 172.56 191.62 172.31L191.28 167.45Z" fill="#502D4B"/>
<defs>
<linearGradient id="paint0_linear" x1="-87.2368" y1="292.926" x2="304.174" y2="-83.0928" gradientUnits="userSpaceOnUse">
<stop offset="0.03" stop-color="#05AB9E"/>
<stop offset="0.27" stop-color="#26B4B1"/>
<stop offset="0.59" stop-color="#4EBEC7"/>
<stop offset="0.84" stop-color="#66C5D5"/>
<stop offset="1" stop-color="#6FC7DA"/>
</linearGradient>
</defs>
</svg>
