<svg width="390" height="390" viewBox="0 0 390 390" fill="none" xmlns="http://www.w3.org/2000/svg">
<rect width="390" height="390" rx="20" fill="url(#paint0_linear)"/>
<path d="M263.342 245.424L224.732 227.734C222.942 226.911 221.424 225.592 220.361 223.933C219.297 222.274 218.732 220.344 218.732 218.374V192.484H171.412V218.374C171.411 220.344 170.845 222.273 169.782 223.932C168.719 225.591 167.202 226.91 165.412 227.734L126.822 245.424C121.147 248.013 116.39 252.26 113.177 257.607C109.964 262.953 108.445 269.147 108.822 275.374L112.872 341.744H277.232L281.232 275.374C281.618 269.16 280.116 262.974 276.924 257.629C273.731 252.284 268.997 248.03 263.342 245.424Z" fill="#B48765"/>
<path d="M263.342 246.014L234.012 232.014C230.212 250.844 214.212 265.014 195.012 265.014C175.812 265.014 159.872 250.894 156.012 232.084L126.752 246.084C115.152 251.634 108.022 264.084 108.752 277.354L112.802 346.634H277.232L281.232 277.354C282.052 263.994 274.922 251.564 263.342 246.014Z" fill="#F4E600"/>
<path d="M135.342 272.104L119.052 250.524C115.556 253.884 112.833 257.966 111.073 262.486C109.313 267.005 108.559 271.853 108.862 276.694L112.912 346.564H143.022V294.424C143.043 286.332 140.338 278.469 135.342 272.104Z" fill="#D7DB2F"/>
<path d="M254.792 272.104L271.092 250.524C274.588 253.885 277.309 257.967 279.067 262.487C280.825 267.006 281.578 271.854 281.272 276.694L277.272 346.564H247.122V294.424C247.098 286.333 249.8 278.47 254.792 272.104Z" fill="#D7DB2F"/>
<path d="M195.092 105.154C210.772 105.154 223.482 92.4431 223.482 76.7638C223.482 61.0844 210.772 48.3738 195.092 48.3738C179.413 48.3738 166.702 61.0844 166.702 76.7638C166.702 92.4431 179.413 105.154 195.092 105.154Z" fill="#754D24"/>
<path d="M195.092 180.864C226.451 180.864 251.872 156.504 251.872 126.454C251.872 96.4039 226.451 72.0437 195.092 72.0437C163.734 72.0437 138.312 96.4039 138.312 126.454C138.312 156.504 163.734 180.864 195.092 180.864Z" fill="#754D24"/>
<path d="M249.042 143.214C248.143 143.096 247.239 143.029 246.332 143.014C243.822 143.014 241.392 146.164 241.392 146.164L233.032 138.014C233.032 138.014 196.352 140.804 171.692 123.224C165.262 136.734 153.892 146.164 153.892 146.164L142.892 143.014C142.362 143.022 141.833 143.079 141.312 143.184C136.702 144.074 133.602 148.474 133.602 153.184V156.634C133.602 161.164 136.502 165.434 140.902 166.454C141.848 166.681 142.823 166.759 143.792 166.684C144.93 166.614 146.053 166.967 146.944 167.676C147.836 168.386 148.434 169.4 148.622 170.524C150.6 181.416 156.338 191.268 164.836 198.362C173.334 205.456 184.052 209.342 195.122 209.342C206.192 209.342 216.911 205.456 225.409 198.362C233.907 191.268 239.645 181.416 241.622 170.524C241.808 169.399 242.405 168.383 243.298 167.674C244.19 166.964 245.314 166.611 246.452 166.684C247.418 166.759 248.39 166.681 249.332 166.454C253.742 165.454 256.632 161.164 256.632 156.634V152.324C256.602 147.834 253.282 144.634 249.042 143.214Z" fill="#C39772"/>
<path d="M265.342 241.054L226.752 223.354C225.796 222.915 224.985 222.21 224.418 221.324C223.851 220.437 223.55 219.406 223.552 218.354V205.634C229.455 201.784 234.514 196.774 238.422 190.908C242.329 185.043 245.003 178.445 246.282 171.514C247.666 171.595 249.055 171.47 250.402 171.144C256.772 169.644 261.402 163.544 261.402 156.634V152.954C261.411 150.521 260.822 148.123 259.687 145.972C258.551 143.82 256.905 141.98 254.892 140.614C256.072 136.003 256.67 131.263 256.672 126.504C256.672 105.594 245.342 87.1737 228.282 76.6337C228.131 67.927 224.566 59.628 218.356 53.5241C212.145 47.4203 203.785 44 195.077 44C186.369 44 178.01 47.4203 171.799 53.5241C165.588 59.628 162.023 67.927 161.872 76.6337C144.812 87.1737 133.482 105.634 133.482 126.504C133.485 131.249 134.08 135.975 135.252 140.574C133.23 141.952 131.579 143.807 130.446 145.975C129.312 148.143 128.73 150.557 128.752 153.004V156.634C128.752 163.544 133.372 169.634 139.752 171.144C141.1 171.47 142.488 171.595 143.872 171.514C145.15 178.444 147.823 185.042 151.728 190.907C155.634 196.772 160.691 201.783 166.592 205.634V218.414C166.596 219.465 166.298 220.496 165.732 221.383C165.166 222.269 164.358 222.974 163.402 223.414L124.802 241.114C118.29 244.135 112.832 249.039 109.134 255.192C105.435 261.345 103.665 268.465 104.052 275.634L108.052 342.004C108.128 343.226 108.667 344.373 109.559 345.213C110.45 346.052 111.628 346.521 112.852 346.524H113.152C114.426 346.444 115.616 345.862 116.462 344.906C117.307 343.95 117.739 342.698 117.662 341.424L113.662 275.054C113.316 269.086 115.028 263.181 118.512 258.324L131.642 274.074C135.877 279.163 138.198 285.573 138.202 292.194V341.714C138.173 342.365 138.275 343.015 138.504 343.625C138.732 344.235 139.082 344.792 139.532 345.263C139.982 345.734 140.523 346.109 141.122 346.365C141.721 346.621 142.366 346.753 143.017 346.753C143.669 346.753 144.313 346.621 144.912 346.365C145.511 346.109 146.052 345.734 146.502 345.263C146.952 344.792 147.302 344.235 147.531 343.625C147.759 343.015 147.862 342.365 147.832 341.714V292.224C147.828 283.349 144.719 274.756 139.042 267.934L125.472 251.634C126.543 250.937 127.662 250.319 128.822 249.784L151.892 239.204C155.141 248.04 161.023 255.667 168.743 261.055C176.464 266.443 185.652 269.332 195.067 269.332C204.482 269.332 213.67 266.443 221.391 261.055C229.112 255.667 234.994 248.04 238.242 239.204L261.342 249.804C262.502 250.339 263.622 250.957 264.692 251.654L251.092 267.934C245.43 274.761 242.335 283.354 242.342 292.224V341.744C242.313 342.395 242.415 343.045 242.644 343.655C242.872 344.265 243.222 344.822 243.672 345.293C244.122 345.764 244.663 346.139 245.262 346.395C245.861 346.651 246.506 346.783 247.157 346.783C247.809 346.783 248.453 346.651 249.052 346.395C249.651 346.139 250.192 345.764 250.642 345.293C251.092 344.822 251.442 344.265 251.671 343.655C251.899 343.045 252.002 342.395 251.972 341.744V292.224C251.977 285.603 254.298 279.193 258.532 274.104L271.662 258.354C275.142 263.213 276.853 269.117 276.512 275.084L272.512 341.454C272.473 342.085 272.559 342.718 272.764 343.316C272.969 343.914 273.291 344.465 273.71 344.939C274.129 345.413 274.637 345.799 275.205 346.076C275.774 346.353 276.391 346.516 277.022 346.554H277.322C278.547 346.551 279.724 346.082 280.616 345.243C281.507 344.403 282.046 343.256 282.122 342.034L286.122 275.664C286.525 268.477 284.759 261.335 281.054 255.163C277.349 248.992 271.875 244.076 265.342 241.054ZM195.072 53.1937C200.41 53.1949 205.59 55.0048 209.767 58.3283C213.944 61.6518 216.872 66.2926 218.072 71.4937C203.27 65.7872 186.875 65.7872 172.072 71.4937C173.273 66.2926 176.2 61.6518 180.377 58.3283C184.554 55.0048 189.734 53.1949 195.072 53.1937ZM153.342 169.634C152.913 167.336 151.661 165.273 149.82 163.831C147.979 162.39 145.676 161.669 143.342 161.804C142.876 161.833 142.407 161.792 141.952 161.684C140.886 161.345 139.958 160.67 139.307 159.759C138.656 158.849 138.318 157.752 138.342 156.634V153.004C138.307 151.866 138.662 150.75 139.348 149.84C140.033 148.931 141.008 148.283 142.112 148.004C142.96 147.841 143.836 147.919 144.642 148.229C145.448 148.538 146.151 149.066 146.672 149.754C147.736 151.166 149.308 152.109 151.055 152.383C152.801 152.658 154.587 152.242 156.032 151.224C159.974 148.438 163.325 144.9 165.892 140.814C166.231 140.28 166.461 139.685 166.57 139.062C166.679 138.439 166.664 137.801 166.526 137.184C166.388 136.567 166.13 135.983 165.766 135.465C165.403 134.948 164.941 134.508 164.407 134.169C163.873 133.83 163.278 133.6 162.655 133.491C162.032 133.382 161.394 133.397 160.777 133.535C160.16 133.673 159.576 133.931 159.059 134.295C158.542 134.658 158.101 135.12 157.762 135.654C156.3 137.977 154.497 140.068 152.412 141.854C150.216 139.928 147.484 138.721 144.582 138.394C143.582 134.526 143.075 130.548 143.072 126.554C143.072 99.2037 166.382 76.9538 195.072 76.9538C223.762 76.9538 247.072 99.2037 247.072 126.554C247.07 130.542 246.563 134.513 245.562 138.374C244.147 138.475 242.745 138.706 241.372 139.064L237.482 135.864C235.64 134.34 233.289 133.568 230.902 133.704C221.252 134.211 211.576 133.478 202.112 131.524C186.112 128.154 173.842 121.524 165.662 111.684C165.265 111.172 164.769 110.745 164.203 110.429C163.638 110.114 163.014 109.915 162.37 109.846C161.726 109.776 161.074 109.838 160.454 110.026C159.834 110.214 159.259 110.525 158.762 110.941C158.265 111.356 157.857 111.868 157.562 112.445C157.267 113.022 157.091 113.652 157.046 114.298C157 114.944 157.085 115.593 157.296 116.206C157.507 116.818 157.839 117.382 158.272 117.864C167.862 129.344 181.952 137.114 200.132 140.954C210.398 143.028 220.885 143.791 231.342 143.224L237.342 148.164C238.103 148.786 239.034 149.161 240.013 149.239C240.993 149.318 241.972 149.096 242.822 148.604C244.462 147.979 246.225 147.742 247.972 147.914C249.078 148.191 250.055 148.839 250.743 149.748C251.43 150.657 251.787 151.774 251.752 152.914V156.634C251.799 157.763 251.476 158.876 250.831 159.804C250.187 160.732 249.256 161.424 248.182 161.774C247.727 161.882 247.259 161.923 246.792 161.894C244.458 161.759 242.155 162.48 240.314 163.921C238.474 165.363 237.221 167.426 236.792 169.724C234.97 179.465 229.797 188.261 222.169 194.588C214.541 200.914 204.94 204.372 195.03 204.361C185.12 204.351 175.526 200.872 167.912 194.529C160.297 188.186 155.143 179.379 153.342 169.634ZM195.092 259.634C187.52 259.633 180.137 257.268 173.972 252.871C167.808 248.474 163.169 242.263 160.702 235.104L167.432 232.014C170.06 230.807 172.286 228.872 173.848 226.439C175.409 224.005 176.24 221.175 176.242 218.284V210.454C188.365 215.16 201.81 215.16 213.932 210.454V218.284C213.937 221.175 214.769 224.004 216.33 226.437C217.891 228.87 220.116 230.805 222.742 232.014L229.482 235.104C227.039 242.289 222.406 248.528 216.234 252.944C210.062 257.36 202.661 259.731 195.072 259.724L195.092 259.634Z" fill="#502D4B"/>
<path d="M239.632 208.514H151.632V171.634H239.632V208.514Z" fill="#44ADB7"/>
<path d="M239.622 171.594H195.612V208.504H239.622V171.594Z" fill="#44ADB7"/>
<path d="M199.632 180.014L195.612 184.034L191.602 180.014L185.572 186.034L189.592 190.054L185.572 194.064L191.602 200.094L195.612 196.074L199.632 200.094L205.652 194.064L201.632 190.054L205.652 186.034L199.632 180.014Z" fill="#63365D"/>
<path d="M177.762 180.014L173.752 184.034L169.732 180.014L163.712 186.034L167.722 190.054L163.712 194.064L169.732 200.094L173.752 196.074L177.762 200.094L183.792 194.064L179.772 190.054L183.792 186.034L177.762 180.014Z" fill="#63365D"/>
<path d="M227.512 186.034L221.492 180.014L217.482 184.034L213.462 180.014L207.442 186.034L211.452 190.054L207.442 194.064L213.462 200.094L217.482 196.074L221.492 200.094L227.512 194.064L223.502 190.054L227.512 186.034Z" fill="#63365D"/>
<path d="M205.652 186.034L199.632 180.014L195.612 184.034V196.074L199.632 200.094L205.652 194.064L201.632 190.054L205.652 186.034Z" fill="#63365D"/>
<defs>
<linearGradient id="paint0_linear" x1="-44.2612" y1="349.488" x2="366.23" y2="182.162" gradientUnits="userSpaceOnUse">
<stop stop-color="#8E3051"/>
<stop offset="1" stop-color="#EC6198"/>
</linearGradient>
</defs>
</svg>
