<svg xmlns="http://www.w3.org/2000/svg" viewBox="0 0 988 997.29"><title>LogoEllas</title><path d="M32.71,0H955.29A32.7,32.7,0,0,1,988,32.71L928,934.29A32.7,32.7,0,0,1,895.29,967L78.47,997.29a32.72,32.72,0,0,1-32.71-32.71L0,32.71A32.7,32.7,0,0,1,32.71,0Z" style="fill:#4b2e83;fill-rule:evenodd"/><path d="M681.85,788.34c-61.44,1.34-150.43,1-179.61.87a10,10,0,0,1-9.94-9.71c-1.19-40.56-5.78-197-6.79-237.67a10,10,0,0,1,9.22-10.21c22.84-1.78,71.9-4.73,125.66-8.84,37.19-2.41,57.41-21.73,57.41-44.26,0-19.31-12.94-39.43-42.87-40.23-30.4-.77-85.81-.09-138.7.65a10,10,0,0,1-10.14-10c-.14-40.34-.65-189.59-.76-230.87a10,10,0,0,1,10.13-10c35.26.49,88.22,3.21,149.18,3.95,54.78,0,92.7-99.78,32.29-107.75a10.49,10.49,0,0,0-1.48-.08C628,85,301,87.22,297,87.5a14.6,14.6,0,0,0-9,3c-3.33,2.8-3,8-3,8,0-7,14.28,424.28,14.28,424.28l23.63,362.15a10,10,0,0,0,10.28,9.36c51.36-1.54,292.29-8.75,347.85-10.18C742.5,882.5,745.74,786.74,681.85,788.34Z" style="fill:#fff"/><path d="M373.44,258.55Q382.77,247,392.39,236c1.37-1.56,2.74-3.1,4.11-4.64l.6-.64q5.11-5.53,10.31-10.88c29-29.82,60.33-55.11,94.49-72.11,23-10.23,47.14-16.42,72.31-17.19a177.58,177.58,0,0,1,37.68,5.1c2.44.61,4.89,1.31,7.34,2.05,0,.87.09,1.75.17,2.62-.13,1.72-.28,3.44-.44,5.14-.93,10-2.46,19.57-4.16,29.08-.43,1.79-.85,3.59-1.31,5.36q-1.46,5.69-3.1,11.18c0,.12-.08.23-.11.35q16.66.39,34.36.62c14.94,0,28.62-7.43,39.39-18.38.37-6.77.55-13.64.5-20.63-.16-22.87-5.63-48.22-15.73-68.72-39.07.54-162.95,1.48-257.08,2.2q-4.17,3.31-8.27,6.74c-40.6,34-77.23,77.46-111.22,124.46l-3,4.17c1.6,47.6,3.43,102.45,5.08,152.18A756.65,756.65,0,0,1,338,305.49Q355.21,281.17,373.44,258.55Zm249.93-119c-.09,0-.22,0-.36-.21Z" style="fill:#f3de61"/><path d="M519.36,466.7c10-9.08,19.73-18.59,29.33-28.43-17.1.19-34.91.43-52.46.67a10,10,0,0,1-10.14-10c0-12.33-.12-34.82-.21-61.28A646.81,646.81,0,0,1,423.29,419a584.3,584.3,0,0,1-86.2,51.41q-19.23,8.93-39,16.45c.74,22.29,1.19,35.88,1.19,35.88L304,594.89a616.79,616.79,0,0,0,90.53-39.6C438.42,532,480.24,502.32,519.36,466.7Z" style="fill:#f3de61"/><path d="M681.85,788.34c-61.44,1.34-150.43,1-179.61.87a10,10,0,0,1-9.94-9.71c0-.83-.05-1.74-.08-2.67-3.72.1-7.45.16-11.18.2a587.53,587.53,0,0,1-120.75-13.35c-9.87-2.15-19.76-4.5-29.67-7.35-4.2-1.21-8.4-2.52-12.61-4-1.28-.44-2.56-.92-3.84-1.38l6.7,102.55c17.17,5.82,34.28,9.65,50.52,13,105.09,21.95,208,13.65,305.76-12q25.71-6.75,51-15C730.82,814.18,715.83,787.49,681.85,788.34Z" style="fill:#f3de61"/><path d="M461.51,175.1c0-40.36-32.79-73.44-72.78-73.44S316,134.74,316,175.1c0,35.51,24.79,65.37,58.38,71.82v30.67H344v33.09h30.39v46.81h32.79v-46h35.19V278.4H407.13V246.12C439.92,238,461.51,209.8,461.51,175.1Z" style="fill:#920089"/><path d="M339.15,688.36l52-1.62-1.59-49.23-52,2.43L336,593.13c46.39-13.72,80-58.1,78.38-108.94-2.4-60.53-52.78-108.14-112.77-106.53-2.6.1-5.16.32-7.71.61l4.52,144.65,14.5,241.47,29.48-1Z" style="fill:#920089"/><path d="M458.31,769.07c0-26.64-21.59-48.43-48-48.43s-48.79,21.79-48.79,48.43c0,23.4,20,42.77,37.59,47.61v20.18H381.54v23.4h17.59V888.5h23.19V860.26h23.19v-23.4H422.32v-21C445.51,810.22,458.31,791.66,458.31,769.07Z" style="fill:#920089"/><path d="M409.53,734.36a36.32,36.32,0,1,0,36,36.32C445.52,751.31,429.52,735.16,409.53,734.36Z" style="fill:#f05e6e"/><path d="M391.14,491.45c0-46.8-37.6-84.74-84-84.74a83,83,0,0,0-12.4.93l3.6,115.28L301.55,576c1.86.13,3.73.2,5.62.2C353.54,576.19,391.14,538.26,391.14,491.45Z" style="fill:#f05e6e"/><path d="M390.34,118.61c-31.19,0-56.79,25.82-56.79,57.29s25.6,57.3,56.79,57.3,56.78-25.82,56.78-57.3S421.52,118.61,390.34,118.61Z" style="fill:#f05e6e"/></svg>