<?xml version="1.0" standalone="no"?>
<!DOCTYPE svg PUBLIC "-//W3C//DTD SVG 20010904//EN"
 "http://www.w3.org/TR/2001/REC-SVG-20010904/DTD/svg10.dtd">
<svg version="1.0" xmlns="http://www.w3.org/2000/svg"
 width="997.000000pt" height="997.000000pt" viewBox="0 0 997.000000 997.000000"
 preserveAspectRatio="xMidYMid meet">
<metadata>
Created by potrace 1.11, written by Peter Selinger 2001-2013
</metadata>
<g transform="translate(0.000000,997.000000) scale(0.100000,-0.100000)"
fill="#000000" stroke="none">
<path d="M273 9951 c-50 -17 -120 -62 -136 -87 -4 -7 -14 -20 -23 -28 -8 -9
-25 -37 -37 -63 -25 -54 -28 -140 -13 -423 5 -85 10 -184 11 -220 2 -36 6
-123 10 -195 4 -71 8 -164 10 -205 2 -41 6 -133 10 -205 3 -71 8 -168 10 -215
3 -47 7 -125 10 -175 3 -49 7 -143 10 -208 3 -66 7 -123 10 -127 3 -5 1 -11
-5 -15 -6 -4 -7 -12 -3 -18 8 -12 9 -28 17 -252 3 -71 5 -130 6 -130 1 0 3
-34 5 -75 2 -41 6 -131 10 -200 3 -69 8 -170 10 -225 3 -55 7 -145 10 -200 5
-99 12 -244 18 -382 2 -40 6 -75 10 -79 3 -3 2 -17 -3 -30 -5 -13 -6 -24 -2
-24 4 0 8 -35 9 -78 1 -42 4 -131 7 -197 6 -115 8 -163 20 -415 6 -127 13
-282 21 -435 3 -55 8 -143 10 -195 10 -209 21 -438 31 -620 2 -52 6 -138 9
-190 9 -180 16 -325 20 -410 5 -92 13 -250 20 -400 9 -200 15 -318 20 -405 3
-49 8 -144 10 -210 2 -66 5 -120 6 -120 1 0 2 -34 4 -75 1 -41 6 -129 9 -195
11 -187 17 -333 19 -412 1 -40 5 -73 10 -73 4 0 3 -8 -2 -19 -6 -10 -8 -21 -5
-24 5 -5 9 -59 19 -297 2 -52 4 -95 5 -95 2 0 9 -178 12 -297 2 -49 7 -88 12
-88 5 0 3 -6 -3 -13 -6 -8 -8 -17 -5 -20 6 -6 15 -170 17 -319 1 -38 4 -68 7
-68 3 0 5 -37 5 -83 -1 -210 51 -314 193 -384 55 -27 62 -28 207 -27 135 1
283 6 610 19 223 9 394 16 539 20 82 3 151 7 153 9 3 3 16 1 29 -4 13 -5 24
-6 24 -2 0 4 26 8 58 8 156 3 426 15 433 20 5 3 9 0 9 -6 0 -6 5 -8 12 -4 7 5
44 9 83 10 214 7 390 13 390 14 0 1 15 2 33 3 17 1 32 -2 32 -6 0 -5 6 -5 12
0 7 4 38 8 68 9 30 1 132 5 225 8 94 3 170 6 170 6 0 1 59 3 406 14 53 1 102
6 109 11 9 6 11 4 5 -5 -6 -9 -4 -11 5 -5 7 4 72 9 144 11 72 1 194 5 271 9
279 11 422 16 525 18 58 2 111 6 118 10 7 5 12 3 12 -3 0 -6 5 -8 10 -5 10 6
50 8 390 20 74 2 216 7 315 11 99 3 221 8 270 9 50 2 90 4 90 5 0 0 63 3 140
5 164 5 395 13 550 20 61 2 178 7 260 10 166 5 370 13 545 20 63 3 185 7 270
10 85 3 207 8 270 10 63 3 196 7 295 11 99 4 198 7 220 8 118 6 221 71 273
171 37 72 37 74 46 220 3 50 8 119 10 155 6 80 15 211 21 305 6 103 15 244 20
295 2 25 7 95 10 155 4 61 8 130 10 155 4 43 9 123 20 290 3 41 8 109 11 150
3 41 7 113 10 160 2 47 6 110 8 140 3 30 7 96 10 145 3 50 8 122 11 160 3 39
8 104 10 145 3 41 8 118 11 170 4 52 8 123 8 157 1 35 3 63 7 63 3 0 5 26 6
58 1 51 4 100 18 297 2 33 6 105 9 160 3 55 8 125 11 155 4 50 9 128 20 315 3
39 7 97 9 130 3 33 8 110 12 170 3 61 8 130 10 155 2 25 6 83 9 130 2 47 7
112 9 145 3 33 8 105 11 160 4 55 8 125 10 155 2 30 7 93 10 140 3 47 7 117
10 155 11 142 15 212 20 290 2 44 7 112 10 150 3 39 7 104 10 145 2 41 7 118
11 170 4 52 7 125 8 162 1 38 3 68 6 68 3 0 6 19 6 43 1 23 4 92 8 152 4 61 9
139 11 175 3 36 7 106 10 155 4 50 8 113 10 140 1 28 6 95 10 150 4 55 8 127
10 160 2 33 4 60 5 60 1 0 3 32 5 70 2 39 6 104 9 145 3 41 8 111 10 155 14
221 17 265 21 320 3 33 7 98 10 145 4 82 9 144 21 308 3 42 7 106 9 142 5 77
12 192 21 310 3 47 7 108 9 135 1 28 6 98 10 156 5 74 3 118 -6 150 -7 24 -13
46 -14 49 -2 10 -53 85 -72 107 -11 13 -23 20 -27 16 -3 -3 -6 -1 -6 6 0 7
-26 24 -57 39 l-58 27 -4675 2 c-4466 2 -4677 2 -4727 -16z"/>
</g>
</svg>
