<svg width="223" height="209" viewBox="0 0 223 209" fill="none" xmlns="http://www.w3.org/2000/svg">
<path d="M93.1401 20.19C97.0558 20.19 100.23 17.0157 100.23 13.1C100.23 9.18432 97.0558 6.01001 93.1401 6.01001C89.2244 6.01001 86.05 9.18432 86.05 13.1C86.05 17.0157 89.2244 20.19 93.1401 20.19Z" fill="#CCD1D9"/>
<path d="M130.2 20.19C134.116 20.19 137.29 17.0157 137.29 13.1C137.29 9.18432 134.116 6.01001 130.2 6.01001C126.284 6.01001 123.11 9.18432 123.11 13.1C123.11 17.0157 126.284 20.19 130.2 20.19Z" fill="#CCD1D9"/>
<path d="M211.7 119.36C209.96 116.91 197.8 94.0199 197.8 94.0199L177.54 75.4999L141.64 61.0199L106.32 56.3899H89.5299L62.8999 66.8099L35.6799 84.1799L13.9999 111.13L4.41992 148.47L13.9999 179.13L28.2099 192.46L60.0499 201.71L136.48 204.61L181.64 197.67L204.22 188.4L218.7 154.81C218.7 154.81 213.44 121.81 211.7 119.36Z" fill="#60BCA5"/>
<path d="M18.6401 86.62C19.3789 86.6216 20.1072 86.4453 20.7634 86.1058C21.4196 85.7664 21.9845 85.2739 22.4101 84.67C22.4701 84.57 29.4101 74.95 43.8401 65.48C52.4342 59.8655 61.7532 55.4482 71.5401 52.35C97.6129 44.3907 125.467 44.3907 151.54 52.35C161.261 55.436 170.509 59.8511 179.02 65.47C193.27 74.94 200.02 84.54 200.12 84.63C200.681 85.4417 201.485 86.0531 202.418 86.3753C203.35 86.6975 204.361 86.7136 205.303 86.4211C206.245 86.1287 207.069 85.5431 207.655 84.7497C208.241 83.9562 208.558 82.9964 208.56 82.01C208.569 81.0691 208.282 80.1491 207.74 79.38C207.44 78.93 200.11 68.47 184.54 58.04C175.301 51.8758 165.247 47.0292 154.67 43.64C145.151 40.6017 135.324 38.6263 125.37 37.75L129.29 27.86H129.81C133.067 27.863 136.221 26.7224 138.723 24.6371C141.224 22.5519 142.914 19.6545 143.498 16.4505C144.081 13.2465 143.521 9.9393 141.915 7.10604C140.31 4.27278 137.76 2.09333 134.711 0.947989C131.663 -0.197348 128.309 -0.235859 125.234 0.839194C122.16 1.91425 119.561 4.0346 117.891 6.83025C116.22 9.62591 115.584 12.9194 116.094 16.1359C116.604 19.3525 118.227 22.2879 120.68 24.43L115.62 37.13C114.28 37.13 112.94 37.07 111.62 37.07C110.07 37.07 108.52 37.07 106.97 37.15L101.91 24.38C104.361 22.239 105.982 19.3056 106.49 16.0916C106.999 12.8775 106.363 9.58691 104.694 6.79377C103.024 4.00063 100.427 1.88229 97.3554 0.808326C94.2837 -0.265641 90.9324 -0.227051 87.8862 0.91735C84.84 2.06175 82.2924 4.23931 80.6876 7.07015C79.0829 9.90099 78.5229 13.2054 79.1055 16.4069C79.6881 19.6083 81.3763 22.5036 83.8754 24.5877C86.3746 26.6717 89.526 27.8121 92.7801 27.81H93.3001L97.2401 37.76C87.4638 38.6604 77.814 40.6185 68.4601 43.6C57.825 46.9879 47.7067 51.8232 38.3901 57.97C22.6701 68.39 15.1901 78.84 14.8901 79.28C14.3943 79.9722 14.0995 80.7879 14.0381 81.6371C13.9768 82.4863 14.1513 83.3359 14.5424 84.0922C14.9334 84.8484 15.5259 85.4819 16.2543 85.9227C16.9827 86.3635 17.8187 86.5944 18.6701 86.59L18.6401 86.62ZM129.8 9.33002C130.716 9.33003 131.612 9.60184 132.373 10.111C133.135 10.6202 133.728 11.3439 134.079 12.1905C134.429 13.0371 134.52 13.9686 134.34 14.867C134.161 15.7654 133.719 16.5903 133.07 17.2375C132.422 17.8846 131.596 18.3248 130.697 18.5023C129.798 18.6798 128.867 18.5867 128.021 18.2347C127.175 17.8827 126.453 17.2877 125.945 16.525C125.438 15.7623 125.168 14.8662 125.17 13.95C125.173 12.7238 125.662 11.5487 126.53 10.6826C127.398 9.81645 128.574 9.33002 129.8 9.33002ZM88.12 13.95C88.12 13.0343 88.3916 12.1391 88.9004 11.3777C89.4091 10.6163 90.1322 10.0229 90.9783 9.67246C91.8243 9.32203 92.7552 9.23034 93.6534 9.40899C94.5515 9.58764 95.3765 10.0286 96.024 10.6761C96.6715 11.3236 97.1125 12.1486 97.2911 13.0468C97.4698 13.9449 97.3781 14.8758 97.0276 15.7219C96.6772 16.5679 96.0838 17.291 95.3224 17.7997C94.561 18.3085 93.6658 18.58 92.7501 18.58C92.1417 18.5813 91.539 18.4625 90.9767 18.2303C90.4143 17.9981 89.9035 17.6571 89.4733 17.2269C89.0431 16.7967 88.7021 16.2857 88.4698 15.7234C88.2376 15.1611 88.1187 14.5584 88.12 13.95Z" fill="#502D4B"/>
<path d="M111.27 51.3101C9.84989 51.3101 -25.1301 156.96 18.6099 194.02C21.1707 196.131 24.0066 197.884 27.0399 199.23C27.0399 199.23 39.5099 208.5 111.27 208.5C183.03 208.5 195.52 199.23 195.52 199.23C198.549 197.881 201.381 196.129 203.94 194.02C247.69 156.96 212.7 51.3101 111.27 51.3101ZM197.95 186.95C196.027 188.519 193.901 189.821 191.63 190.82L190.76 191.22L190.39 191.5C189.57 191.9 185.39 193.7 174.77 195.44C159.37 197.95 138.01 199.23 111.27 199.23C84.5299 199.23 63.1799 197.95 47.7899 195.44C37.1499 193.7 32.9899 191.9 32.1599 191.5L31.7899 191.22L30.9199 190.82C28.6497 189.818 26.5241 188.517 24.5999 186.95C16.9999 180.52 12.0099 171.14 10.1699 159.85C8.28992 148.34 9.72989 135.62 14.3299 123.05C17.4154 114.688 21.7111 106.825 27.0799 99.7101C32.8336 92.0676 39.7156 85.3442 47.4899 79.7701C56.028 73.6778 65.4789 68.9794 75.4899 65.8501C98.8273 58.8103 123.723 58.8103 147.06 65.8501C157.073 68.9753 166.524 73.6741 175.06 79.7701C182.84 85.3413 189.725 92.065 195.48 99.7101C200.846 106.823 205.135 114.687 208.21 123.05C212.82 135.62 214.21 148.34 212.37 159.85C210.55 171.13 205.55 180.52 197.95 186.95Z" fill="#502D4B"/>
<path d="M115.69 196.09C150.009 196.09 177.83 168.269 177.83 133.95C177.83 99.6311 150.009 71.8101 115.69 71.8101C81.3711 71.8101 53.55 99.6311 53.55 133.95C53.55 168.269 81.3711 196.09 115.69 196.09Z" fill="#F4E600"/>
<path d="M129.61 132.96C126.61 132.22 123.61 131.22 120.91 130.48C117.91 129.73 115.19 128.74 112.21 127.99C106 125.99 102.77 123.27 102.77 119.79C102.779 118.482 103.159 117.203 103.868 116.104C104.576 115.004 105.583 114.129 106.77 113.58C109.557 111.938 112.735 111.078 115.97 111.09C119.489 111.091 122.965 111.855 126.16 113.33C127.454 113.898 128.701 114.567 129.89 115.33C130.45 115.649 131.085 115.814 131.73 115.809C132.374 115.804 133.006 115.628 133.561 115.301C134.117 114.973 134.575 114.504 134.891 113.942C135.207 113.38 135.369 112.745 135.36 112.1C135.416 111.481 135.279 110.86 134.967 110.323C134.656 109.786 134.185 109.358 133.62 109.1C132.37 108.36 131.13 107.86 129.89 107.1C127.869 106.29 125.794 105.622 123.68 105.1C122.364 104.818 121.025 104.654 119.68 104.61V96.6099C119.68 95.6206 119.287 94.6719 118.588 93.9724C117.888 93.2729 116.939 92.8799 115.95 92.8799C114.961 92.8799 114.012 93.2729 113.313 93.9724C112.613 94.6719 112.22 95.6206 112.22 96.6099V104.61C108.057 105.009 104.092 106.576 100.78 109.13C96.7801 112.13 94.57 116.13 94.57 120.56C94.57 125.56 97.0501 129.56 102.02 132.25C104.51 133.49 109.48 134.98 117.18 136.97C123.65 138.46 127.37 140.2 128.87 141.97C129.76 143.209 130.277 144.677 130.36 146.2C130.36 148.68 128.87 151.2 126.13 153.15C123.39 155.1 119.92 156.15 115.44 156.15C114.102 156.193 112.762 156.109 111.44 155.9C110.19 155.65 108.95 155.4 107.44 155.15C104.739 154.306 102.15 153.137 99.7301 151.67C99.1588 151.323 98.5054 151.135 97.8372 151.125C97.1691 151.115 96.5103 151.283 95.9287 151.612C95.3471 151.941 94.8637 152.419 94.5282 152.997C94.1927 153.575 94.0174 154.232 94.0201 154.9C94.0482 155.536 94.2193 156.157 94.5205 156.718C94.8217 157.279 95.2454 157.765 95.76 158.14C99.2062 160.012 102.88 161.43 106.69 162.36C108.19 162.61 109.93 162.86 111.42 163.11V171.31C111.394 171.815 111.471 172.321 111.646 172.795C111.822 173.27 112.092 173.704 112.44 174.071C112.789 174.438 113.208 174.731 113.673 174.93C114.138 175.13 114.639 175.233 115.145 175.233C115.651 175.233 116.152 175.13 116.617 174.93C117.082 174.731 117.501 174.438 117.85 174.071C118.198 173.704 118.469 173.27 118.644 172.795C118.819 172.321 118.896 171.815 118.87 171.31V162.86C123.566 162.45 128.05 160.716 131.8 157.86C136.27 154.38 138.51 150.15 138.51 145.43C139.06 139.92 135.82 135.7 129.61 132.96Z" fill="#63365D"/>
</svg>
