<svg width="235" height="306" viewBox="0 0 235 306" fill="none" xmlns="http://www.w3.org/2000/svg">
<path d="M174.1 84.69H173.21V75.35C173.207 73.3263 172.806 71.323 172.029 69.4543C171.252 67.5857 170.115 65.8884 168.682 64.4593C167.25 63.0302 165.549 61.8973 163.679 61.1253C161.808 60.3533 159.804 59.9573 157.78 59.96C153.696 59.9679 149.783 61.5964 146.899 64.4876C144.016 67.3788 142.397 71.2964 142.4 75.38V84.69V76.32C142.397 74.2976 141.996 72.2956 141.22 70.4282C140.444 68.5608 139.307 66.8645 137.875 65.4364C136.443 64.0082 134.744 62.8761 132.875 62.1046C131.005 61.3331 129.002 60.9373 126.98 60.94C123.09 60.9452 119.345 62.4226 116.5 65.0754C113.654 67.7281 111.918 71.3596 111.64 75.24C111.4 71.3146 109.669 67.6295 106.8 64.9393C103.931 62.2492 100.143 60.7575 96.21 60.77C92.1264 60.7779 88.213 62.4064 85.3293 65.2976C82.4456 68.1888 80.8273 72.1064 80.83 76.19V79.62C80.3339 76.4605 78.725 73.5823 76.2935 71.5048C73.8621 69.4272 70.7681 68.287 67.57 68.29C64.0151 68.2953 60.6079 69.7118 58.097 72.2283C55.5862 74.7447 54.1773 78.1552 54.18 81.71V104.62C54.1769 106.175 54.4478 107.719 54.98 109.18V153.9C55.0149 160.835 57.0081 167.619 60.73 173.47L79.73 200.54L78.9999 215.26L161.91 215.7L161.71 195.82L190.64 142.47C192.87 138.34 194.048 133.724 194.07 129.03L194.2 105.47C194.27 94.01 185.21 84.69 174.1 84.69Z" fill="#FDD9A9"/>
<path d="M142.34 84.63V76.32C142.332 72.2364 140.704 68.323 137.812 65.4393C134.921 62.5556 131.004 60.9373 126.92 60.94C124.739 60.9368 122.584 61.4041 120.6 62.31C123.258 63.545 125.508 65.5126 127.086 67.9819C128.664 70.4511 129.505 73.3194 129.51 76.25V87.86C131.858 85.781 134.884 84.6322 138.02 84.63H142.34Z" fill="#F4C08E"/>
<path d="M173.15 75.35C173.147 73.3263 172.746 71.323 171.969 69.4543C171.192 67.5857 170.055 65.8884 168.622 64.4593C167.19 63.0302 165.489 61.8973 163.619 61.1253C161.748 60.3533 159.744 59.9573 157.72 59.96C155.57 59.9649 153.445 60.4179 151.48 61.29C154.164 62.5152 156.44 64.4863 158.036 66.9684C159.631 69.4506 160.48 72.3392 160.48 75.29V84.64H173.21L173.15 75.35Z" fill="#F4C08E"/>
<path d="M182.62 221.42C182.624 220.683 182.483 219.953 182.205 219.271C181.926 218.589 181.516 217.968 180.998 217.444C180.48 216.921 179.864 216.504 179.185 216.219C178.505 215.933 177.777 215.784 177.04 215.78L64.89 215.18C64.1533 215.176 63.423 215.317 62.7409 215.596C62.0587 215.874 61.4381 216.284 60.9144 216.802C60.3906 217.32 59.9741 217.936 59.6885 218.615C59.403 219.295 59.254 220.023 59.25 220.76L59.21 233.82C59.2021 235.309 59.7852 236.74 60.8313 237.799C61.8775 238.859 63.3013 239.459 64.79 239.47L141.12 239.87L155.72 239.95L176.94 240.07C178.429 240.075 179.859 239.49 180.916 238.442C181.974 237.394 182.572 235.969 182.58 234.48L182.62 221.42Z" fill="#E52332"/>
<path d="M177.04 215.78L164.37 215.71C165.859 215.721 167.283 216.321 168.329 217.381C169.375 218.44 169.958 219.871 169.95 221.36L169.88 234.42C169.876 235.157 169.727 235.885 169.441 236.565C169.156 237.244 168.739 237.86 168.216 238.378C167.692 238.896 167.071 239.306 166.389 239.584C165.707 239.863 164.977 240.004 164.24 240L176.91 240.07C177.647 240.074 178.377 239.933 179.059 239.654C179.741 239.376 180.362 238.966 180.886 238.448C181.409 237.93 181.826 237.314 182.112 236.635C182.397 235.955 182.546 235.227 182.55 234.49L182.62 221.42C182.624 220.683 182.483 219.953 182.204 219.271C181.926 218.589 181.516 217.968 180.998 217.444C180.48 216.921 179.864 216.504 179.185 216.218C178.505 215.933 177.777 215.784 177.04 215.78Z" fill="#CD1420"/>
<path d="M68.26 239.49L63.6 292.33C63.5058 293.381 63.631 294.441 63.9678 295.441C64.3045 296.441 64.8454 297.361 65.5561 298.141C66.2669 298.922 67.132 299.546 68.0967 299.974C69.0613 300.403 70.1045 300.626 71.16 300.63L170.7 301.17C171.736 301.175 172.763 300.969 173.717 300.565C174.671 300.16 175.533 299.566 176.25 298.817C176.967 298.068 177.524 297.182 177.886 296.211C178.249 295.24 178.41 294.205 178.36 293.17L175.57 240.09L68.26 239.49Z" fill="#E52332"/>
<path d="M175.57 240.06L68.25 239.48L67.51 247.91L140.91 248.3L155.51 248.38L176.01 248.49L175.57 240.06Z" fill="#BA1822"/>
<path d="M175.57 240.06L162.9 239.99L166.11 301.13H170.7C171.736 301.135 172.763 300.929 173.717 300.525C174.671 300.12 175.533 299.526 176.25 298.777C176.967 298.028 177.523 297.142 177.886 296.171C178.249 295.2 178.41 294.165 178.36 293.13L175.57 240.06Z" fill="#CD1420"/>
<path d="M162.9 239.99L163.34 248.42L176.01 248.49L175.57 240.06L162.9 239.99Z" fill="#9A1919"/>
<path d="M160.76 125.13C160.797 124.136 160.631 123.145 160.274 122.217C159.916 121.289 159.374 120.443 158.68 119.73H158.63C157.613 118.698 156.402 117.877 155.067 117.314C153.732 116.751 152.299 116.457 150.85 116.45H137.91C136.5 116.441 135.102 116.201 133.77 115.74C131.658 116.782 129.335 117.323 126.98 117.32H126.87C123.076 117.29 119.424 115.869 116.607 113.328C113.789 110.787 112.001 107.301 111.58 103.53C111.121 107.283 109.304 110.738 106.473 113.243C103.641 115.749 99.9907 117.131 96.21 117.13H96.1C92.5318 117.102 89.0826 115.844 86.3337 113.569C83.5849 111.293 81.7047 108.14 81.01 104.64C81.0074 108.203 79.5963 111.621 77.0843 114.148C74.5723 116.675 71.163 118.106 67.6 118.13H67.51C64.7849 118.107 62.1303 117.261 59.8944 115.704C57.6584 114.146 55.9454 111.948 54.98 109.4V122.79C58.6398 125.362 62.9968 126.758 67.47 126.79H67.61C72.9963 126.764 78.1879 124.773 82.21 121.19C86.2654 124.122 91.1358 125.713 96.14 125.74H96.3C101.86 125.747 107.249 123.817 111.54 120.28C115.83 123.9 121.257 125.893 126.87 125.91H127.03C129.54 125.906 132.033 125.507 134.42 124.73C135.57 124.927 136.733 125.031 137.9 125.04L160.76 125.13Z" fill="#F7AD6C"/>
<path d="M190.96 87.8C187.242 84.0198 182.36 81.6001 177.1 80.93V75.34C177.092 70.2106 175.049 65.294 171.419 61.6698C167.789 58.0456 162.869 56.01 157.74 56.01C154.655 56.0089 151.613 56.7452 148.87 58.1577C146.127 59.5702 143.761 61.6178 141.97 64.13C141.54 63.6 141.08 63.13 140.6 62.61C138.656 60.6633 136.32 59.1538 133.746 58.1825C131.173 57.2111 128.422 56.8001 125.676 56.9772C122.931 57.1542 120.256 57.915 117.828 59.2089C115.401 60.5028 113.277 62.2998 111.6 64.48C109.798 62.1037 107.472 60.1759 104.802 58.8471C102.133 57.5183 99.192 56.8246 96.21 56.82C92.4876 56.83 88.8468 57.9111 85.7224 59.9344C82.5979 61.9577 80.1219 64.8375 78.59 68.23C75.4844 65.6987 71.5965 64.3238 67.59 64.34C62.9805 64.34 58.5598 66.1711 55.3004 69.4305C52.0411 72.6899 50.21 77.1105 50.21 81.72V104.62C50.217 106.387 50.49 108.144 51.02 109.83V143.88C51.0331 144.932 51.4603 145.937 52.2091 146.676C52.9578 147.416 53.9677 147.83 55.02 147.83C56.0722 147.83 57.0821 147.416 57.8309 146.676C58.5796 145.937 59.0068 144.932 59.02 143.88V119.69C61.6218 121.2 64.5719 122.006 67.58 122.03H67.69C70.4778 122.024 73.2235 121.348 75.6962 120.061C78.1689 118.773 80.2964 116.911 81.9 114.63C83.7071 116.638 85.9129 118.248 88.3767 119.357C90.8405 120.466 93.5082 121.049 96.21 121.07H96.34C99.2849 121.064 102.19 120.388 104.835 119.094C107.481 117.799 109.797 115.921 111.61 113.6C113.409 115.962 115.727 117.879 118.386 119.202C121.044 120.525 123.971 121.219 126.94 121.23H127.07C128.786 121.23 130.494 121.001 132.15 120.55C132.33 120.497 132.507 120.434 132.68 120.36C133.904 120.637 135.155 120.774 136.41 120.77L149.2 120.7C150.141 120.699 151.073 120.885 151.941 121.248C152.81 121.61 153.598 122.141 154.26 122.81C155.45 123.995 156.22 125.537 156.45 127.2L147.37 140.06C147.301 140.153 147.237 140.25 147.18 140.35C143.686 146.441 141.657 153.261 141.255 160.271C140.852 167.282 142.086 174.289 144.86 180.74C145.169 181.449 145.678 182.054 146.324 182.48C146.97 182.906 147.726 183.135 148.5 183.14C149.033 183.141 149.561 183.032 150.05 182.82C150.527 182.617 150.96 182.322 151.323 181.952C151.686 181.582 151.972 181.143 152.165 180.662C152.359 180.181 152.455 179.666 152.449 179.147C152.443 178.629 152.334 178.117 152.13 177.64C149.888 172.339 148.884 166.596 149.194 160.848C149.504 155.101 151.12 149.499 153.92 144.47L163.71 130.62C164.18 129.952 164.435 129.157 164.44 128.34C164.45 126.27 164.047 124.219 163.255 122.306C162.464 120.394 161.299 118.658 159.83 117.2C158.437 115.803 156.782 114.694 154.959 113.937C153.137 113.18 151.183 112.79 149.21 112.79H149.12L136.33 112.87C135.339 112.881 134.355 112.718 133.42 112.39C133.141 112.298 132.867 112.191 132.6 112.07C131.8 111.7 131.056 111.218 130.39 110.64C130.074 110.363 129.78 110.062 129.51 109.74C129.51 109.74 129.51 109.74 129.51 109.69L129.4 109.56C129.389 109.533 129.372 109.509 129.35 109.49L129.09 109.15C128.96 108.96 128.84 108.78 128.72 108.58C128.62 108.4 128.52 108.23 128.42 108.04L128.33 107.85C128.281 107.756 128.237 107.659 128.2 107.56C128.13 107.42 128.07 107.27 128.01 107.12C127.95 106.97 127.9 106.83 127.85 106.69V106.59L127.67 105.97V105.82C127.67 105.64 127.59 105.46 127.56 105.28C127.56 105.28 127.56 105.21 127.56 105.18C127.56 104.96 127.5 104.73 127.47 104.51V104.13C127.47 103.9 127.47 103.66 127.47 103.42V98.7V98.64C127.456 96.1388 128.414 93.7299 130.14 91.92C130.34 91.71 130.56 91.51 130.78 91.31C131.216 90.8704 131.695 90.4751 132.21 90.13C135.14 89.74 149.64 87.99 172.37 88.58C172.636 88.6407 172.907 88.6708 173.18 88.67H174.12C176.216 88.6694 178.292 89.0865 180.225 89.8969C182.158 90.7073 183.911 91.8948 185.38 93.39C186.944 94.9802 188.176 96.8652 189.005 98.9355C189.834 101.006 190.244 103.22 190.21 105.45L190.09 129.01C190.054 133.058 189.024 137.034 187.09 140.59L158.21 193.93C157.887 194.521 157.721 195.186 157.73 195.86L157.9 211.73L83.21 211.33L83.74 200.74C83.7814 199.861 83.5319 198.993 83.03 198.27L64.09 171.27C61.5599 167.262 59.9228 162.757 59.29 158.06C59.311 157.48 59.2056 156.903 58.9811 156.367C58.7566 155.832 58.4183 155.352 57.9898 154.961C57.5612 154.57 57.0527 154.277 56.4995 154.101C55.9462 153.926 55.3615 153.874 54.7858 153.947C54.2102 154.021 53.6575 154.219 53.166 154.527C52.6745 154.836 52.256 155.247 51.9396 155.734C51.6232 156.22 51.4164 156.77 51.3335 157.344C51.2507 157.918 51.2939 158.504 51.46 159.06C52.2426 164.923 54.2898 170.546 57.46 175.54L57.56 175.69L75.77 201.69L75.29 211.27H64.9C62.3755 211.278 59.956 212.281 58.1663 214.061C56.3766 215.841 55.361 218.256 55.34 220.78L55.21 233.8C55.1933 236.201 56.0814 238.519 57.6973 240.295C59.3132 242.07 61.5385 243.171 63.93 243.38L59.64 291.99C59.5004 293.586 59.693 295.193 60.2056 296.71C60.7183 298.227 61.5399 299.622 62.6186 300.806C63.6972 301.99 65.0096 302.937 66.4728 303.589C67.936 304.24 69.5184 304.581 71.12 304.59L170.66 305.12H170.72C172.294 305.122 173.852 304.804 175.298 304.184C176.745 303.564 178.051 302.657 179.135 301.516C180.219 300.375 181.06 299.026 181.606 297.55C182.152 296.074 182.391 294.502 182.31 292.93L179.72 243.6C181.672 243.003 183.383 241.799 184.602 240.162C185.822 238.525 186.487 236.541 186.5 234.5L186.57 221.44C186.577 220.185 186.336 218.94 185.861 217.778C185.387 216.615 184.688 215.558 183.805 214.665C182.922 213.773 181.872 213.063 180.715 212.577C179.557 212.09 178.315 211.837 177.06 211.83L165.83 211.77L165.68 196.77L194.12 144.33C196.658 139.624 198 134.367 198.03 129.02L198.16 105.46C198.192 102.186 197.572 98.9381 196.335 95.9061C195.099 92.8741 193.272 90.1185 190.96 87.8ZM67.61 114.13H67.53C65.6741 114.109 63.8642 113.55 62.32 112.52C60.7757 111.49 59.5633 110.035 58.83 108.33C58.7973 108.163 58.7504 107.999 58.69 107.84C58.3192 106.81 58.1298 105.724 58.13 104.63V81.72C58.1326 79.2153 59.1274 76.8137 60.8966 75.0407C62.6658 73.2678 65.0653 72.2679 67.57 72.26C69.7806 72.2719 71.9179 73.0544 73.6136 74.4727C75.3094 75.891 76.4574 77.8563 76.86 80.03L77.13 104.28C77.13 104.39 77.13 104.51 77.13 104.63C77.122 107.151 76.1159 109.565 74.3316 111.346C72.5474 113.126 70.1305 114.127 67.61 114.13ZM96.26 113.13H96.21C93.6222 113.106 91.1175 112.214 89.0975 110.596C87.0774 108.979 85.6591 106.73 85.07 104.21L84.8 79.57V76.16C84.8078 73.1345 86.0119 70.2348 88.1494 68.0936C90.2869 65.9523 93.1844 64.7432 96.21 64.73C99.1127 64.731 101.907 65.8345 104.027 67.8172C106.147 69.7999 107.435 72.5138 107.63 75.41V103.19C107.253 105.94 105.895 108.461 103.805 110.288C101.716 112.115 99.0356 113.124 96.26 113.13ZM115.53 103.18V75.44C115.765 72.5756 117.065 69.9033 119.174 67.9503C121.282 65.9973 124.046 64.9054 126.92 64.89C129.955 64.89 132.866 66.095 135.013 68.2401C137.16 70.3852 138.367 73.295 138.37 76.33V81.5C133.37 81.93 130.68 82.34 130.37 82.38H130.28H130.05L129.87 82.43L129.69 82.49L129.47 82.58H129.38H129.31L129.17 82.65C127.725 83.3103 126.378 84.1685 125.17 85.2C124.75 85.56 124.35 85.94 123.97 86.33C120.835 89.6573 119.127 94.0793 119.21 98.65V98.76V103.48C119.21 103.87 119.21 104.27 119.26 104.74V104.98C119.26 105.4 119.34 105.8 119.4 106.18V106.36V106.5C119.45 106.77 119.5 107.05 119.57 107.32V107.44C119.66 107.82 119.77 108.2 119.89 108.58V108.67C119.94 108.82 120 108.98 120.06 109.14L120.24 109.58L120.36 109.87C120.51 110.21 120.66 110.55 120.82 110.87V110.93V111V111.07L120.99 111.37C119.532 110.5 118.285 109.316 117.341 107.905C116.397 106.494 115.778 104.89 115.53 103.21V103.18ZM146.3 80.93V75.35C146.303 72.3149 147.508 69.4046 149.652 67.2565C151.797 65.1085 154.705 63.8979 157.74 63.89C159.246 63.886 160.739 64.1797 162.132 64.7541C163.524 65.3285 164.79 66.1723 165.856 67.2371C166.921 68.302 167.766 69.5668 168.342 70.959C168.918 72.3513 169.213 73.8435 169.21 75.35V80.59C160.05 80.43 152.36 80.64 146.3 80.96V80.93ZM173.41 296.07C173.067 296.433 172.653 296.722 172.194 296.918C171.734 297.114 171.239 297.213 170.74 297.21V301.21V297.21L71.21 296.68C70.7011 296.678 70.1982 296.57 69.7331 296.364C69.2679 296.157 68.8507 295.856 68.5077 295.481C68.1646 295.105 67.9033 294.662 67.7402 294.18C67.5771 293.698 67.5157 293.187 67.56 292.68L71.91 243.46L121.24 243.72L171.85 243.99L174.44 293.34C174.466 293.842 174.389 294.343 174.211 294.813C174.034 295.283 173.761 295.711 173.41 296.07ZM178.21 220.23C178.363 220.384 178.485 220.566 178.567 220.767C178.65 220.968 178.691 221.183 178.69 221.4L178.62 234.46C178.615 234.898 178.438 235.316 178.127 235.624C177.817 235.933 177.398 236.107 176.96 236.11V236.36V236.13L64.81 235.53C64.3714 235.527 63.9518 235.351 63.6426 235.04C63.3335 234.729 63.16 234.309 63.16 233.87L63.23 220.8C63.2352 220.361 63.4135 219.941 63.7261 219.632C64.0387 219.323 64.4605 219.15 64.9 219.15L79.02 219.23L114.52 219.42L177.05 219.75C177.265 219.75 177.479 219.792 177.678 219.875C177.877 219.957 178.058 220.078 178.21 220.23Z" fill="#502D4B"/>
<path d="M124.67 37.52C123.711 37.5214 122.761 37.3334 121.875 36.967C120.989 36.6006 120.183 36.063 119.505 35.3849C118.827 34.7067 118.29 33.9015 117.923 33.0152C117.557 32.1289 117.369 31.1791 117.37 30.22V7.84003C117.37 5.90395 118.139 4.04717 119.508 2.67815C120.877 1.30914 122.734 0.540039 124.67 0.540039C126.606 0.540039 128.463 1.30914 129.832 2.67815C131.201 4.04717 131.97 5.90395 131.97 7.84003V30.22C131.97 32.1561 131.201 34.0129 129.832 35.3819C128.463 36.7509 126.606 37.52 124.67 37.52Z" fill="#F4E600"/>
<path d="M163.3 42.6799C161.932 41.3111 161.164 39.4551 161.164 37.5199C161.164 35.5848 161.932 33.7288 163.3 32.3599L177.89 17.7699C178.57 17.0923 179.377 16.5553 180.265 16.1896C181.153 15.8239 182.104 15.6366 183.064 15.6384C184.024 15.6403 184.975 15.8313 185.861 16.2004C186.747 16.5696 187.552 17.1097 188.23 17.7899C188.908 18.4702 189.445 19.2772 189.81 20.165C190.176 21.0528 190.363 22.0039 190.362 22.9641C190.36 23.9242 190.169 24.8746 189.8 25.761C189.43 26.6473 188.89 27.4523 188.21 28.1299L173.62 42.7199C172.246 44.0825 170.387 44.8437 168.452 44.8362C166.517 44.8287 164.664 44.0531 163.3 42.6799Z" fill="#F4E600"/>
<path d="M226.84 117.8H212.21C210.322 117.73 208.535 116.931 207.224 115.571C205.913 114.21 205.18 112.394 205.18 110.505C205.18 108.616 205.913 106.8 207.224 105.44C208.535 104.079 210.322 103.28 212.21 103.21H226.81C227.791 103.174 228.769 103.336 229.685 103.686C230.602 104.036 231.439 104.568 232.146 105.249C232.852 105.93 233.414 106.746 233.798 107.649C234.182 108.552 234.38 109.524 234.38 110.505C234.38 111.486 234.182 112.458 233.798 113.361C233.414 114.264 232.852 115.081 232.146 115.762C231.439 116.443 230.602 116.974 229.685 117.324C228.769 117.675 227.791 117.836 226.81 117.8H226.84Z" fill="#F4E600"/>
<path d="M22.49 117.8H7.89998C6.91926 117.836 5.94128 117.675 5.02452 117.324C4.10776 116.974 3.27103 116.443 2.56436 115.762C1.85769 115.081 1.29559 114.264 0.911652 113.361C0.527716 112.458 0.329834 111.486 0.329834 110.505C0.329834 109.524 0.527716 108.552 0.911652 107.649C1.29559 106.746 1.85769 105.93 2.56436 105.249C3.27103 104.568 4.10776 104.036 5.02452 103.686C5.94128 103.336 6.91926 103.174 7.89998 103.21H22.49C23.4707 103.174 24.4487 103.336 25.3654 103.686C26.2822 104.036 27.1189 104.568 27.8256 105.249C28.5323 105.93 29.0944 106.746 29.4783 107.649C29.8622 108.552 30.0601 109.524 30.0601 110.505C30.0601 111.486 29.8622 112.458 29.4783 113.361C29.0944 114.264 28.5323 115.081 27.8256 115.762C27.1189 116.443 26.2822 116.974 25.3654 117.324C24.4487 117.675 23.4707 117.836 22.49 117.8Z" fill="#F4E600"/>
<path d="M75.7201 42.68L61.1201 28.13C59.812 26.7493 59.0944 24.9126 59.1201 23.0108C59.1457 21.109 59.9126 19.2923 61.2575 17.9475C62.6024 16.6026 64.4191 15.8357 66.3209 15.81C68.2227 15.7843 70.0594 16.5019 71.4401 17.81L86.0401 32.4C87.3482 33.7807 88.0658 35.6175 88.0402 37.5193C88.0145 39.4211 87.2476 41.2377 85.9027 42.5826C84.5578 43.9275 82.7411 44.6944 80.8393 44.7201C78.9375 44.7458 77.1008 44.0282 75.7201 42.72V42.68Z" fill="#F4E600"/>
<path d="M33.8301 65.9501L19.2301 58.6501C17.4982 57.7842 16.1813 56.2657 15.569 54.4288C14.9567 52.5919 15.0992 50.587 15.9651 48.8551C16.831 47.1232 18.3495 45.8063 20.1864 45.194C22.0233 44.5817 24.0282 44.7242 25.7601 45.5901L40.3501 52.8901C41.2274 53.3063 42.0128 53.8933 42.6604 54.6168C43.3081 55.3402 43.8048 56.1856 44.1217 57.1035C44.4385 58.0213 44.5691 58.9931 44.5057 59.962C44.4424 60.931 44.1863 61.8775 43.7526 62.7463C43.3189 63.615 42.7162 64.3885 41.9799 65.0214C41.2436 65.6544 40.3884 66.1341 39.4643 66.4324C38.5403 66.7308 37.5661 66.8418 36.5986 66.759C35.6312 66.6762 34.69 66.4012 33.8301 65.9501Z" fill="#F4E600"/>
<path d="M191.12 62.6801C190.255 60.9494 190.113 58.9461 190.724 57.1104C191.335 55.2747 192.65 53.7568 194.38 52.8901L208.98 45.5901C210.712 44.7242 212.717 44.5817 214.554 45.194C216.391 45.8063 217.909 47.1232 218.775 48.8551C219.641 50.587 219.784 52.5919 219.171 54.4288C218.559 56.2657 217.242 57.7842 215.51 58.6501L200.91 65.9501C199.178 66.8116 197.174 66.9511 195.339 66.3382C193.504 65.7252 191.987 64.4098 191.12 62.6801Z" fill="#F4E600"/>
</svg>
