<svg width="184" height="304" viewBox="0 0 184 304" fill="none" xmlns="http://www.w3.org/2000/svg">
<path d="M160.21 201.92L121.6 184.23C119.809 183.407 118.292 182.088 117.229 180.429C116.165 178.77 115.6 176.841 115.6 174.87V148.98H68.28V174.87C68.2788 176.84 67.7131 178.769 66.6497 180.428C65.5864 182.087 64.0699 183.406 62.28 184.23L23.6899 201.92C18.015 204.509 13.2577 208.757 10.0445 214.103C6.83132 219.449 5.3131 225.644 5.68995 231.87L9.73999 298.24H174.1L178.1 231.87C178.486 225.656 176.984 219.471 173.791 214.126C170.599 208.781 165.864 204.526 160.21 201.92Z" fill="#B48765"/>
<path d="M160.21 202.51L130.88 188.51C127.08 207.34 111.08 221.51 91.8801 221.51C72.6801 221.51 56.7401 207.39 52.8801 188.58L23.62 202.58C12.02 208.13 4.89004 220.58 5.62004 233.85L9.67009 303.13H174.1L178.1 233.85C178.92 220.49 171.79 208.06 160.21 202.51Z" fill="#F4E600"/>
<path d="M32.2099 228.6L15.92 207.02C12.4233 210.381 9.70044 214.463 7.94071 218.982C6.18098 223.501 5.4266 228.35 5.72996 233.19L9.77994 303.06H39.8899V250.92C39.9111 242.828 37.2056 234.965 32.2099 228.6Z" fill="#D7DB2F"/>
<path d="M151.66 228.6L167.96 207.02C171.455 210.381 174.177 214.463 175.935 218.983C177.693 223.502 178.445 228.35 178.14 233.19L174.14 303.06H143.99V250.92C143.966 242.83 146.668 234.967 151.66 228.6Z" fill="#D7DB2F"/>
<path d="M91.9601 61.6501C107.639 61.6501 120.35 48.9395 120.35 33.2601C120.35 17.5808 107.639 4.87012 91.9601 4.87012C76.2807 4.87012 63.5701 17.5808 63.5701 33.2601C63.5701 48.9395 76.2807 61.6501 91.9601 61.6501Z" fill="#754D24"/>
<path d="M91.96 137.36C123.319 137.36 148.74 113 148.74 82.95C148.74 52.9002 123.319 28.54 91.96 28.54C60.6012 28.54 35.1799 52.9002 35.1799 82.95C35.1799 113 60.6012 137.36 91.96 137.36Z" fill="#754D24"/>
<path d="M145.91 99.71C145.011 99.5922 144.106 99.5254 143.2 99.51C140.69 99.51 138.26 102.66 138.26 102.66L129.9 94.51C129.9 94.51 93.2199 97.3 68.5599 79.72C62.1299 93.23 50.7599 102.66 50.7599 102.66L39.7599 99.51C39.2292 99.5187 38.7004 99.5756 38.1799 99.68C33.5699 100.57 30.47 104.97 30.47 109.68V113.13C30.47 117.66 33.37 121.93 37.77 122.95C38.7153 123.178 39.6905 123.255 40.66 123.18C41.7973 123.11 42.9202 123.464 43.8121 124.173C44.7041 124.882 45.3018 125.896 45.49 127.02C47.4673 137.912 53.2053 147.764 61.7033 154.858C70.2013 161.953 80.92 165.839 91.99 165.839C103.06 165.839 113.779 161.953 122.277 154.858C130.775 147.764 136.513 137.912 138.49 127.02C138.676 125.895 139.273 124.88 140.166 124.17C141.058 123.461 142.182 123.108 143.32 123.18C144.286 123.255 145.258 123.178 146.2 122.95C150.61 121.95 153.5 117.66 153.5 113.13V108.82C153.47 104.33 150.15 101.13 145.91 99.71Z" fill="#C39772"/>
<path d="M162.21 197.55L123.62 179.85C122.663 179.411 121.853 178.706 121.286 177.82C120.718 176.933 120.418 175.903 120.42 174.85V162.13C126.323 158.28 131.382 153.27 135.289 147.405C139.197 141.539 141.871 134.941 143.15 128.01C144.534 128.091 145.922 127.967 147.27 127.64C153.64 126.14 158.27 120.04 158.27 113.13V109.45C158.279 107.017 157.689 104.62 156.554 102.468C155.419 100.316 153.773 98.4763 151.76 97.1101C152.94 92.4995 153.538 87.7593 153.54 83.0001C153.54 62.0901 142.21 43.6701 125.15 33.1301C124.999 24.4234 121.434 16.1243 115.223 10.0205C109.013 3.91661 100.653 0.496338 91.9449 0.496338C83.2368 0.496338 74.8772 3.91661 68.6665 10.0205C62.4558 16.1243 58.891 24.4234 58.7399 33.1301C41.6799 43.6701 30.3499 62.1301 30.3499 83.0001C30.3531 87.7454 30.9476 92.4718 32.1199 97.0701C30.098 98.4479 28.4471 100.303 27.3133 102.471C26.1796 104.639 25.5979 107.053 25.6199 109.5V113.13C25.6199 120.04 30.2399 126.13 36.6199 127.64C37.9673 127.967 39.3558 128.091 40.7399 128.01C42.0175 134.94 44.6902 141.538 48.5959 147.403C52.5015 153.269 57.5586 158.279 63.4599 162.13V174.91C63.464 175.962 63.1654 176.992 62.5998 177.879C62.0341 178.766 61.2253 179.471 60.2699 179.91L21.6699 197.61C15.1576 200.632 9.70006 205.535 6.00146 211.688C2.30286 217.841 0.532926 224.961 0.919916 232.13L4.91992 298.5C4.99613 299.722 5.53469 300.87 6.4262 301.709C7.31772 302.549 8.49533 303.017 9.7199 303.02H10.0199C11.2937 302.94 12.4838 302.359 13.3293 301.403C14.1747 300.446 14.6065 299.194 14.5299 297.92L10.5299 231.55C10.1839 225.583 11.8958 219.677 15.3799 214.82L28.5099 230.57C32.7445 235.659 35.0653 242.07 35.0699 248.69V298.21C35.0402 298.861 35.1428 299.511 35.3714 300.121C35.6 300.731 35.9499 301.288 36.3999 301.759C36.8499 302.23 37.3908 302.605 37.9897 302.861C38.5887 303.118 39.2334 303.25 39.8849 303.25C40.5363 303.25 41.181 303.118 41.78 302.861C42.379 302.605 42.9198 302.23 43.3699 301.759C43.8199 301.288 44.1698 300.731 44.3984 300.121C44.627 299.511 44.7296 298.861 44.6999 298.21V248.72C44.6962 239.845 41.5864 231.252 35.9099 224.43L22.3399 208.13C23.4105 207.433 24.5301 206.815 25.6899 206.28L48.7599 195.7C52.0084 204.537 57.8902 212.164 65.6111 217.552C73.3319 222.939 82.52 225.828 91.9349 225.828C101.35 225.828 110.538 222.939 118.259 217.552C125.98 212.164 131.861 204.537 135.11 195.7L158.21 206.3C159.37 206.835 160.489 207.453 161.56 208.15L147.96 224.43C142.298 231.257 139.202 239.85 139.21 248.72V298.24C139.18 298.891 139.283 299.541 139.511 300.151C139.74 300.761 140.09 301.318 140.54 301.789C140.99 302.26 141.531 302.635 142.13 302.891C142.729 303.147 143.373 303.28 144.025 303.28C144.676 303.28 145.321 303.147 145.92 302.891C146.519 302.635 147.06 302.26 147.51 301.789C147.96 301.318 148.31 300.761 148.538 300.151C148.767 299.541 148.87 298.891 148.84 298.24V248.72C148.845 242.1 151.165 235.689 155.4 230.6L168.53 214.85C172.01 219.709 173.721 225.613 173.38 231.58L169.38 297.95C169.341 298.581 169.426 299.214 169.632 299.812C169.837 300.41 170.159 300.962 170.577 301.435C170.996 301.909 171.504 302.295 172.073 302.572C172.641 302.85 173.259 303.012 173.89 303.05H174.19C175.414 303.047 176.592 302.579 177.484 301.739C178.375 300.9 178.914 299.752 178.99 298.53L182.99 232.16C183.393 224.973 181.627 217.831 177.922 211.66C174.217 205.488 168.743 200.573 162.21 197.55ZM91.9399 9.69008C97.2778 9.69124 102.458 11.5012 106.635 14.8246C110.812 18.1481 113.739 22.7889 114.94 27.9901C100.137 22.2835 83.7423 22.2835 68.9399 27.9901C70.1404 22.7889 73.068 18.1481 77.245 14.8246C81.422 11.5012 86.602 9.69124 91.9399 9.69008ZM50.2099 126.13C49.7807 123.832 48.5285 121.769 46.6877 120.328C44.847 118.886 42.5439 118.165 40.2099 118.3C39.7432 118.329 39.2747 118.289 38.8199 118.18C37.7534 117.841 36.8254 117.166 36.1746 116.256C35.5239 115.345 35.1854 114.249 35.2099 113.13V109.5C35.175 108.362 35.5297 107.246 36.2152 106.337C36.9007 105.428 37.8761 104.78 38.9799 104.5C39.8276 104.338 40.7037 104.416 41.5095 104.725C42.3152 105.034 43.0185 105.562 43.5399 106.25C44.6039 107.662 46.1756 108.605 47.9224 108.88C49.6692 109.154 51.4542 108.738 52.8999 107.72C56.8413 104.935 60.1923 101.397 62.7599 97.3101C63.0987 96.7763 63.3291 96.1809 63.4378 95.5581C63.5465 94.9352 63.5315 94.2971 63.3936 93.68C63.2557 93.063 62.9976 92.4791 62.6341 91.9618C62.2706 91.4445 61.8087 91.0039 61.2749 90.6651C60.7411 90.3263 60.1457 90.0959 59.5229 89.9872C58.9 89.8784 58.2619 89.8935 57.6448 90.0314C57.0278 90.1693 56.4439 90.4273 55.9266 90.7909C55.4093 91.1544 54.9687 91.6163 54.6299 92.1501C53.1681 94.4737 51.3645 96.5638 49.2799 98.3501C47.0841 96.4248 44.3518 95.2174 41.4499 94.8901C40.4497 91.0228 39.9423 87.0446 39.9399 83.0501C39.9399 55.7001 63.2499 33.4501 91.9399 33.4501C120.63 33.4501 143.94 55.7001 143.94 83.0501C143.938 87.0381 143.431 91.0097 142.43 94.8701C141.015 94.9715 139.613 95.2024 138.24 95.5601L134.35 92.3601C132.507 90.836 130.157 90.0645 127.77 90.2001C118.119 90.7075 108.444 89.9748 98.9799 88.0201C82.9799 84.6501 70.7099 78.0201 62.5299 68.1801C62.1328 67.6682 61.6366 67.2416 61.0709 66.9258C60.5052 66.61 59.8817 66.4115 59.2375 66.3421C58.5934 66.2728 57.9419 66.334 57.322 66.5221C56.702 66.7102 56.1264 67.0213 55.6294 67.4369C55.1324 67.8525 54.7243 68.3641 54.4294 68.941C54.1346 69.5179 53.9591 70.1482 53.9134 70.7945C53.8678 71.4407 53.9528 72.0896 54.1636 72.7022C54.3743 73.3148 54.7063 73.8787 55.1399 74.3601C64.7299 85.8401 78.8199 93.6101 96.9999 97.4501C107.265 99.5245 117.752 100.287 128.21 99.7201L134.21 104.66C134.97 105.282 135.902 105.657 136.881 105.736C137.86 105.814 138.84 105.593 139.69 105.1C141.33 104.475 143.093 104.239 144.84 104.41C145.946 104.688 146.923 105.335 147.611 106.244C148.298 107.154 148.654 108.271 148.62 109.41V113.13C148.667 114.259 148.343 115.372 147.699 116.3C147.054 117.228 146.124 117.92 145.05 118.27C144.595 118.379 144.127 118.419 143.66 118.39C141.326 118.255 139.023 118.976 137.182 120.418C135.341 121.859 134.089 123.922 133.66 126.22C131.838 135.961 126.665 144.758 119.037 151.084C111.409 157.411 101.808 160.868 91.8975 160.858C81.9875 160.847 72.3936 157.369 64.7794 151.026C57.1652 144.683 52.0108 135.875 50.2099 126.13ZM91.9599 216.13C84.3877 216.129 77.0046 213.765 70.84 209.368C64.6753 204.97 60.0364 198.759 57.5699 191.6L64.2999 188.51C66.9275 187.303 69.154 185.369 70.7154 182.935C72.2769 180.502 73.1079 177.671 73.1099 174.78V166.95C85.2325 171.656 98.6774 171.656 110.8 166.95V174.78C110.804 177.671 111.636 180.5 113.198 182.933C114.759 185.366 116.984 187.301 119.61 188.51L126.35 191.6C123.907 198.785 119.273 205.024 113.101 209.44C106.929 213.856 99.5289 216.227 91.9399 216.22L91.9599 216.13Z" fill="#502D4B"/>
<path d="M136.5 165.01H48.5V128.13H136.5V165.01Z" fill="#44ADB7"/>
<path d="M136.49 128.09H92.48V165H136.49V128.09Z" fill="#44ADB7"/>
<path d="M96.4999 136.51L92.4799 140.53L88.4699 136.51L82.4399 142.53L86.46 146.55L82.4399 150.56L88.4699 156.59L92.4799 152.57L96.4999 156.59L102.52 150.56L98.4999 146.55L102.52 142.53L96.4999 136.51Z" fill="#63365D"/>
<path d="M74.6301 136.51L70.6201 140.53L66.6001 136.51L60.5801 142.53L64.5901 146.55L60.5801 150.56L66.6001 156.59L70.6201 152.57L74.6301 156.59L80.6601 150.56L76.6401 146.55L80.6601 142.53L74.6301 136.51Z" fill="#63365D"/>
<path d="M124.38 142.53L118.36 136.51L114.35 140.53L110.33 136.51L104.31 142.53L108.32 146.55L104.31 150.56L110.33 156.59L114.35 152.57L118.36 156.59L124.38 150.56L120.37 146.55L124.38 142.53Z" fill="#63365D"/>
<path d="M102.52 142.53L96.5 136.51L92.48 140.53V152.57L96.5 156.59L102.52 150.56L98.5 146.55L102.52 142.53Z" fill="#63365D"/>
</svg>
