<svg width="188" height="201" viewBox="0 0 188 201" fill="none" xmlns="http://www.w3.org/2000/svg">
<path d="M137.73 88.27V6.43994H49.98V88.27H137.73Z" fill="#FAD7D4"/>
<path d="M11.5101 157.67V193.67H171.31V147.38H8.31006V154.48C8.72982 154.479 9.14575 154.56 9.53394 154.72C9.92212 154.88 10.275 155.114 10.5723 155.411C10.8695 155.707 11.1054 156.059 11.2664 156.447C11.4273 156.834 11.5101 157.25 11.5101 157.67Z" fill="#B3C2B6"/>
<path d="M34.03 60.4H6.62012V122.52H181.09V60.4H153.68C153.261 60.4 152.846 60.3174 152.459 60.1571C152.072 59.9968 151.721 59.7619 151.424 59.4656C151.128 59.1694 150.893 58.8178 150.733 58.4307C150.573 58.0437 150.49 57.6289 150.49 57.21H144.11V88.27H154.95C155.796 88.27 156.608 88.6061 157.206 89.2043C157.804 89.8026 158.14 90.6139 158.14 91.46C158.14 92.306 157.804 93.1174 157.206 93.7156C156.608 94.3139 155.796 94.65 154.95 94.65H32.7601C31.9141 94.65 31.1026 94.3139 30.5044 93.7156C29.9062 93.1174 29.5701 92.306 29.5701 91.46C29.5701 90.6139 29.9062 89.8026 30.5044 89.2043C31.1026 88.6061 31.9141 88.27 32.7601 88.27H43.6001V57.21H37.2101C37.2101 58.0543 36.8754 58.8642 36.2793 59.4621C35.6832 60.0601 34.8743 60.3973 34.03 60.4Z" fill="#F3F0E0"/>
<path d="M181.09 128.9H6.62012V140.99H181.09V128.9Z" fill="#D6E6DA"/>
<path d="M32.7599 88.2701C31.9138 88.2701 31.1024 88.6062 30.5042 89.2044C29.9059 89.8027 29.5698 90.614 29.5698 91.4601C29.5698 92.3061 29.9059 93.1175 30.5042 93.7157C31.1024 94.314 31.9138 94.6501 32.7599 94.6501H154.95C155.796 94.6501 156.607 94.314 157.206 93.7157C157.804 93.1175 158.14 92.3061 158.14 91.4601C158.14 90.614 157.804 89.8027 157.206 89.2044C156.607 88.6062 155.796 88.2701 154.95 88.2701H144.11V3.27008C144.11 2.42404 143.774 1.61265 143.176 1.0144C142.577 0.416163 141.766 0.0800781 140.92 0.0800781H46.7898C45.9438 0.0800781 45.1324 0.416163 44.5342 1.0144C43.9359 1.61265 43.5999 2.42404 43.5999 3.27008V88.2701H32.7599ZM137.76 6.44008V88.2701H50.0099V6.44008H137.76Z" fill="#3F2D3B"/>
<path d="M184.28 54.02H153.68C152.834 54.02 152.023 54.3561 151.424 54.9543C150.826 55.5526 150.49 56.364 150.49 57.21C150.49 58.056 150.826 58.8674 151.424 59.4657C152.023 60.0639 152.834 60.4 153.68 60.4H181.09V122.52H6.62001V60.4H34.0299C34.876 60.4 35.6874 60.0639 36.2857 59.4657C36.8839 58.8674 37.22 58.056 37.22 57.21C37.22 56.364 36.8839 55.5526 36.2857 54.9543C35.6874 54.3561 34.876 54.02 34.0299 54.02H3.42995C2.58391 54.02 1.77257 54.3561 1.17433 54.9543C0.576091 55.5526 0.240006 56.364 0.240006 57.21V144.21C0.23869 144.63 0.320151 145.046 0.479874 145.434C0.639597 145.822 0.874442 146.175 1.17079 146.472C1.46714 146.769 1.81924 147.005 2.20692 147.166C2.59461 147.327 3.01019 147.41 3.42995 147.41H171.31V193.7H11.51V157.7C11.51 156.854 11.1739 156.043 10.5757 155.444C9.97746 154.846 9.166 154.51 8.31996 154.51C7.47392 154.51 6.66259 154.846 6.06435 155.444C5.46611 156.043 5.13002 156.854 5.13002 157.7V196.9C5.13002 197.319 5.21251 197.734 5.37282 198.121C5.53313 198.508 5.76813 198.859 6.06435 199.156C6.36057 199.452 6.71223 199.687 7.09926 199.847C7.48629 200.007 7.90104 200.09 8.31996 200.09H174.5C174.92 200.091 175.336 200.01 175.724 199.85C176.112 199.69 176.465 199.456 176.762 199.159C177.059 198.863 177.295 198.511 177.456 198.123C177.617 197.735 177.7 197.32 177.7 196.9V147.38H184.28C184.7 147.38 185.115 147.297 185.503 147.136C185.891 146.975 186.243 146.739 186.539 146.442C186.836 146.145 187.07 145.792 187.23 145.404C187.39 145.016 187.471 144.6 187.47 144.18V57.18C187.462 56.3392 187.123 55.5355 186.525 54.9437C185.928 54.352 185.121 54.02 184.28 54.02ZM6.62001 141.02V128.91H181.09V140.99L6.62001 141.02Z" fill="#3F2D3B"/>
<path d="M124.06 78.1901H101.49C100.92 78.1901 100.373 77.9635 99.9696 77.5603C99.5664 77.1571 99.3398 76.6103 99.3398 76.0401V53.4701C99.3398 52.8989 99.5661 52.351 99.969 51.9462C100.372 51.5415 100.919 51.3127 101.49 51.3101H124.06C124.631 51.3127 125.178 51.5415 125.581 51.9462C125.984 52.351 126.21 52.8989 126.21 53.4701V76.0401C126.21 76.6103 125.983 77.1571 125.58 77.5603C125.177 77.9635 124.63 78.1901 124.06 78.1901Z" fill="#8CC5ED"/>
<path d="M124.06 51.3101H120.21C120.781 51.3127 121.328 51.5415 121.731 51.9462C122.134 52.351 122.36 52.8989 122.36 53.4701V76.0401C122.36 76.6103 122.133 77.1571 121.73 77.5603C121.327 77.9635 120.78 78.1901 120.21 78.1901H124.02C124.302 78.1901 124.582 78.1344 124.843 78.0264C125.104 77.9184 125.341 77.76 125.54 77.5603C125.74 77.3607 125.898 77.1237 126.006 76.8628C126.114 76.602 126.17 76.3224 126.17 76.0401V53.4701C126.17 52.9058 125.949 52.3638 125.555 51.9601C125.161 51.5565 124.624 51.3231 124.06 51.3101Z" fill="#71B9E5"/>
<path d="M117.67 59.81L110.81 67.19L107.98 63.06C107.904 62.9292 107.802 62.8156 107.68 62.7261C107.558 62.6366 107.419 62.5733 107.271 62.54C107.123 62.5067 106.971 62.5043 106.822 62.5328C106.673 62.5613 106.532 62.6201 106.408 62.7056C106.283 62.7911 106.177 62.9015 106.097 63.0297C106.016 63.158 105.963 63.3014 105.941 63.451C105.919 63.6007 105.928 63.7533 105.967 63.8994C106.006 64.0454 106.075 64.1818 106.17 64.3L109.77 69.57C109.864 69.7056 109.988 69.8183 110.131 69.8996C110.275 69.981 110.435 70.029 110.6 70.04H110.68C110.831 70.0418 110.98 70.0115 111.118 69.9512C111.256 69.8908 111.379 69.8018 111.48 69.69L119.28 61.31C119.382 61.2086 119.464 61.0879 119.519 60.9549C119.575 60.8219 119.604 60.6791 119.604 60.535C119.604 60.3908 119.575 60.2481 119.519 60.1151C119.464 59.982 119.382 59.8614 119.28 59.76C119.173 59.6539 119.045 59.5707 118.905 59.5155C118.765 59.4604 118.615 59.4343 118.464 59.439C118.314 59.4437 118.166 59.479 118.029 59.5428C117.892 59.6066 117.77 59.6975 117.67 59.81Z" fill="#502D4B"/>
<path d="M124.06 50.21H101.49C100.627 50.2126 99.8005 50.5572 99.1913 51.1683C98.5821 51.7794 98.24 52.6071 98.24 53.47V76.04C98.2426 76.9011 98.5859 77.7262 99.1948 78.3351C99.8037 78.9441 100.629 79.2873 101.49 79.29H124.06C124.921 79.2873 125.746 78.9441 126.355 78.3351C126.964 77.7262 127.307 76.9011 127.31 76.04V60.77C127.31 60.4782 127.194 60.1984 126.988 59.9921C126.782 59.7859 126.502 59.67 126.21 59.67C125.918 59.67 125.638 59.7859 125.432 59.9921C125.226 60.1984 125.11 60.4782 125.11 60.77V76.04C125.11 76.1756 125.083 76.3099 125.029 76.4346C124.976 76.5593 124.898 76.6718 124.8 76.7653C124.701 76.8589 124.585 76.9315 124.458 76.9787C124.331 77.0259 124.195 77.0467 124.06 77.04H101.49C101.225 77.04 100.97 76.9346 100.783 76.7471C100.595 76.5595 100.49 76.3052 100.49 76.04V53.47C100.49 53.1989 100.593 52.938 100.779 52.7409C100.965 52.5437 101.219 52.4253 101.49 52.41H124.06C124.339 52.4126 124.606 52.5254 124.803 52.7239C125 52.9224 125.11 53.1906 125.11 53.47V56.06C125.11 56.3517 125.226 56.6315 125.432 56.8378C125.638 57.0441 125.918 57.16 126.21 57.16C126.502 57.16 126.782 57.0441 126.988 56.8378C127.194 56.6315 127.31 56.3517 127.31 56.06V53.47C127.31 52.6071 126.968 51.7794 126.359 51.1683C125.749 50.5572 124.923 50.2126 124.06 50.21Z" fill="#502D4B"/>
<path d="M76.8199 31.07C80.3049 31.07 83.13 28.2449 83.13 24.7599C83.13 21.275 80.3049 18.45 76.8199 18.45C73.335 18.45 70.51 21.275 70.51 24.7599C70.51 28.2449 73.335 31.07 76.8199 31.07Z" fill="#CDCCCC"/>
<path d="M89.4398 39.13C89.4543 38.2324 89.1965 37.3515 88.7002 36.6035C88.2039 35.8555 87.4924 35.2755 86.6598 34.94L85.0398 34.5C83.8003 34.1687 82.5229 34.0006 81.2399 34H72.4098C71.1268 34.0006 69.8494 34.1687 68.6099 34.5L66.9899 34.94C66.1572 35.2755 65.4459 35.8555 64.9496 36.6035C64.4533 37.3515 64.1953 38.2324 64.2098 39.13L63.9498 44C63.9458 44.101 63.9622 44.2017 63.998 44.2962C64.0339 44.3907 64.0885 44.477 64.1586 44.5498C64.2286 44.6227 64.3127 44.6806 64.4058 44.7202C64.4988 44.7597 64.5988 44.7801 64.6998 44.78H88.9498C89.0509 44.7801 89.1509 44.7597 89.2439 44.7202C89.3369 44.6806 89.421 44.6227 89.4911 44.5498C89.5611 44.477 89.6157 44.3907 89.6516 44.2962C89.6875 44.2017 89.7039 44.101 89.6998 44L89.4398 39.13Z" fill="#CDCCCC"/>
<path d="M76.83 32.1301C78.2955 32.1301 79.7282 31.6955 80.9468 30.8812C82.1653 30.067 83.1151 28.9097 83.6759 27.5557C84.2367 26.2017 84.3835 24.7118 84.0975 23.2744C83.8116 21.837 83.1059 20.5167 82.0696 19.4804C81.0333 18.4441 79.713 17.7384 78.2756 17.4524C76.8382 17.1665 75.3483 17.3133 73.9943 17.8741C72.6403 18.435 71.483 19.3847 70.6688 20.6033C69.8546 21.8218 69.4199 23.2545 69.4199 24.7201C69.4199 26.6853 70.2007 28.5701 71.5903 29.9597C72.98 31.3494 74.8647 32.1301 76.83 32.1301ZM76.83 19.5101C77.8604 19.5101 78.8677 19.8156 79.7245 20.3881C80.5813 20.9606 81.2491 21.7743 81.6434 22.7263C82.0378 23.6783 82.1408 24.7258 81.9398 25.7365C81.7388 26.7471 81.2427 27.6755 80.514 28.4041C79.7854 29.1327 78.8571 29.6289 77.8464 29.8299C76.8358 30.031 75.7882 29.9278 74.8362 29.5335C73.8842 29.1391 73.0705 28.4714 72.498 27.6146C71.9256 26.7578 71.62 25.7505 71.62 24.7201C71.6306 23.3452 72.1841 22.0303 73.16 21.0619C74.136 20.0934 75.4551 19.55 76.83 19.5501V19.5101Z" fill="#502D4B"/>
<path d="M90.5399 39.13C90.5419 38.0088 90.205 36.9133 89.5732 35.9871C88.9415 35.0609 88.0445 34.3473 87 33.94H86.9399L85.3299 33.51C83.9963 33.1506 82.6211 32.9691 81.24 32.97H72.4099C71.032 32.969 69.6601 33.1506 68.3299 33.51L66.71 33.94C65.908 34.2295 65.189 34.7107 64.6156 35.3416C64.0422 35.9726 63.6317 36.7341 63.4199 37.56C63.3465 37.837 63.3842 38.1318 63.5249 38.3815C63.6656 38.6312 63.8982 38.8162 64.1732 38.897C64.4482 38.9778 64.7439 38.9481 64.9973 38.8142C65.2507 38.6802 65.4417 38.4527 65.5299 38.18C65.6395 37.7035 65.8622 37.2604 66.1789 36.888C66.4957 36.5155 66.8973 36.2247 67.35 36.04L68.9399 35.61C70.0889 35.3073 71.2718 35.1527 72.46 35.15H81.21C82.3981 35.1527 83.581 35.3073 84.73 35.61L86.3199 36.04C86.9321 36.3162 87.4487 36.7675 87.8047 37.337C88.1606 37.9065 88.3399 38.5687 88.3199 39.24L88.5499 43.73H65.0399L65.1 42.57C65.1146 42.2782 65.0126 41.9927 64.8166 41.7761C64.6207 41.5594 64.3467 41.4296 64.0549 41.415C63.7632 41.4004 63.4776 41.5023 63.261 41.6983C63.0444 41.8943 62.9145 42.1682 62.8999 42.46L62.8299 43.99C62.8155 44.2404 62.8525 44.491 62.9385 44.7266C63.0245 44.9622 63.1576 45.1777 63.3299 45.36C63.5038 45.5398 63.712 45.6829 63.9421 45.7808C64.1723 45.8787 64.4198 45.9294 64.6699 45.93H88.9199C89.1702 45.9306 89.4181 45.8803 89.6484 45.7824C89.8788 45.6844 90.0868 45.5407 90.26 45.36C90.4317 45.1769 90.5653 44.9615 90.6528 44.7263C90.7404 44.4911 90.7802 44.2408 90.77 43.99L90.5399 39.13Z" fill="#502D4B"/>
<path d="M124.41 45.5099H101.84C101.27 45.5099 100.723 45.2834 100.32 44.8802C99.9165 44.477 99.6899 43.9301 99.6899 43.3599V20.7899C99.6899 20.2187 99.9162 19.6708 100.319 19.2661C100.722 18.8613 101.269 18.6325 101.84 18.6299H124.41C124.983 18.6299 125.532 18.8574 125.937 19.2625C126.342 19.6676 126.57 20.217 126.57 20.7899V43.3599C126.567 43.931 126.339 44.4778 125.934 44.8808C125.529 45.2837 124.981 45.5099 124.41 45.5099Z" fill="#8CC5ED"/>
<path d="M124.41 18.6299H120.6C121.171 18.6325 121.718 18.8613 122.121 19.2661C122.524 19.6708 122.75 20.2187 122.75 20.7899V43.3599C122.75 43.9301 122.524 44.477 122.12 44.8802C121.717 45.2834 121.17 45.5099 120.6 45.5099H124.41C124.981 45.5099 125.529 45.2837 125.934 44.8808C126.339 44.4778 126.567 43.931 126.57 43.3599V20.7899C126.57 20.217 126.342 19.6676 125.937 19.2625C125.532 18.8574 124.983 18.6299 124.41 18.6299Z" fill="#71B9E5"/>
<path d="M124.41 17.53H101.84C100.977 17.5327 100.15 17.8773 99.5411 18.4884C98.9319 19.0995 98.5898 19.9272 98.5898 20.79V43.36C98.5925 44.2212 98.9358 45.0463 99.5447 45.6552C100.154 46.2641 100.979 46.6074 101.84 46.61H124.41C125.273 46.61 126.1 46.2679 126.711 45.6587C127.323 45.0495 127.667 44.2229 127.67 43.36V28.13C127.67 27.8383 127.554 27.5585 127.348 27.3522C127.141 27.1459 126.862 27.03 126.57 27.03C126.278 27.03 125.998 27.1459 125.792 27.3522C125.586 27.5585 125.47 27.8383 125.47 28.13V43.4C125.467 43.6794 125.354 43.9465 125.156 44.1431C124.957 44.3397 124.689 44.4501 124.41 44.45H101.84C101.7 44.4572 101.56 44.435 101.43 44.3848C101.299 44.3345 101.18 44.2574 101.081 44.1585C100.982 44.0595 100.905 43.9408 100.855 43.8102C100.805 43.6796 100.783 43.5398 100.79 43.4V20.79C100.79 20.5106 100.9 20.2425 101.097 20.044C101.293 19.8455 101.56 19.7327 101.84 19.73H124.41C124.69 19.7326 124.958 19.8452 125.156 20.0434C125.355 20.2416 125.467 20.5097 125.47 20.79V23.38C125.455 23.5326 125.473 23.6866 125.521 23.832C125.57 23.9775 125.648 24.1112 125.751 24.2247C125.854 24.3381 125.98 24.4287 126.12 24.4907C126.26 24.5528 126.412 24.5848 126.565 24.5848C126.718 24.5848 126.87 24.5528 127.01 24.4907C127.15 24.4287 127.276 24.3381 127.379 24.2247C127.482 24.1112 127.56 23.9775 127.609 23.832C127.657 23.6866 127.674 23.5326 127.66 23.38V20.79C127.661 20.3624 127.578 19.9387 127.415 19.5432C127.253 19.1478 127.013 18.7883 126.711 18.4855C126.41 18.1826 126.051 17.9423 125.656 17.7784C125.261 17.6144 124.837 17.53 124.41 17.53Z" fill="#502D4B"/>
<path d="M118.86 27.4999C118.758 27.3971 118.636 27.3155 118.502 27.2599C118.369 27.2042 118.225 27.1755 118.08 27.1755C117.935 27.1755 117.792 27.2042 117.658 27.2599C117.524 27.3155 117.402 27.3971 117.3 27.4999L112.78 32.0299L108.25 27.4999C108.148 27.3975 108.026 27.3162 107.892 27.2608C107.758 27.2054 107.615 27.1768 107.47 27.1768C107.325 27.1768 107.182 27.2054 107.048 27.2608C106.914 27.3162 106.792 27.3975 106.69 27.4999C106.588 27.6023 106.506 27.7239 106.451 27.8578C106.395 27.9916 106.367 28.135 106.367 28.2799C106.367 28.4248 106.395 28.5682 106.451 28.702C106.506 28.8359 106.588 28.9575 106.69 29.0599L111.22 33.5799L106.69 38.1099C106.587 38.2121 106.506 38.3337 106.45 38.4675C106.394 38.6014 106.366 38.7449 106.366 38.8899C106.366 39.0349 106.394 39.1784 106.45 39.3123C106.506 39.4461 106.587 39.5677 106.69 39.6699C106.898 39.8751 107.178 39.9902 107.47 39.9902C107.762 39.9902 108.042 39.8751 108.25 39.6699L112.78 35.1399L117.3 39.6699C117.508 39.8751 117.788 39.9902 118.08 39.9902C118.372 39.9902 118.652 39.8751 118.86 39.6699C118.963 39.5677 119.044 39.4461 119.1 39.3123C119.156 39.1784 119.184 39.0349 119.184 38.8899C119.184 38.7449 119.156 38.6014 119.1 38.4675C119.044 38.3337 118.963 38.2121 118.86 38.1099L114.33 33.5799L118.86 29.0599C118.963 28.9577 119.044 28.8361 119.1 28.7023C119.156 28.5684 119.184 28.4249 119.184 28.2799C119.184 28.1349 119.156 27.9914 119.1 27.8575C119.044 27.7237 118.963 27.6021 118.86 27.4999Z" fill="#502D4B"/>
<path d="M76.85 64.4501C80.3349 64.4501 83.16 61.625 83.16 58.1401C83.16 54.6552 80.3349 51.8301 76.85 51.8301C73.3651 51.8301 70.54 54.6552 70.54 58.1401C70.54 61.625 73.3651 64.4501 76.85 64.4501Z" fill="#CDCCCC"/>
<path d="M89.4198 72.5799C89.4336 71.6813 89.177 70.7993 88.683 70.0485C88.189 69.2977 87.4805 68.7129 86.6498 68.3699L85.0298 67.9299C83.794 67.596 82.52 67.4245 81.2399 67.4199H72.3998C71.1172 67.4177 69.8399 67.5824 68.5998 67.9099L66.9799 68.3299C66.1459 68.6658 65.4326 69.2452 64.9331 69.9927C64.4336 70.7402 64.171 71.621 64.1798 72.52L63.9098 77.3899C63.9058 77.4901 63.9219 77.59 63.9571 77.6839C63.9924 77.7777 64.0461 77.8635 64.1151 77.9362C64.1841 78.0089 64.2669 78.0671 64.3588 78.1072C64.4506 78.1473 64.5495 78.1687 64.6498 78.1699L88.9098 78.2599C89.0113 78.2587 89.1117 78.2371 89.2047 78.1964C89.2978 78.1558 89.3817 78.0969 89.4517 78.0232C89.5216 77.9496 89.5759 77.8627 89.6117 77.7677C89.6475 77.6726 89.6638 77.5714 89.6598 77.4699L89.4198 72.5799Z" fill="#CDCCCC"/>
<path d="M76.82 65.5499C78.2859 65.5559 79.7207 65.1268 80.9428 64.3171C82.1648 63.5074 83.1193 62.3533 83.6853 61.001C84.2514 59.6487 84.4036 58.1589 84.1227 56.7201C83.8418 55.2813 83.1404 53.9581 82.1073 52.918C81.0742 51.8779 79.7558 51.1677 78.3189 50.877C76.882 50.5864 75.3912 50.7286 74.0351 51.2854C72.679 51.8423 71.5185 52.7889 70.7006 54.0055C69.8826 55.2221 69.4439 56.6539 69.44 58.1199C69.4347 60.0834 70.2089 61.9688 71.5927 63.3619C72.9764 64.755 74.8565 65.542 76.82 65.5499ZM76.87 52.9399C77.9005 52.9439 78.9066 53.2533 79.7611 53.8291C80.6157 54.4049 81.2804 55.2211 81.671 56.1746C82.0617 57.1281 82.1609 58.1761 81.956 59.1859C81.7511 60.1958 81.2512 61.1222 80.5198 61.848C79.7884 62.5739 78.8581 63.0665 77.8467 63.2637C76.8353 63.4608 75.7882 63.3536 74.8377 62.9556C73.8872 62.5576 73.0762 61.8867 72.507 61.0278C71.9378 60.1688 71.6361 59.1604 71.64 58.1299C71.6427 57.4457 71.78 56.7688 72.0442 56.1377C72.3085 55.5066 72.6944 54.9337 73.1801 54.4517C73.6657 53.9698 74.2415 53.5883 74.8747 53.3289C75.5078 53.0695 76.1858 52.9373 76.87 52.9399Z" fill="#502D4B"/>
<path d="M90.52 72.5299C90.5221 71.4088 90.1863 70.3132 89.5567 69.3856C88.927 68.4581 88.0327 67.7418 86.99 67.3299L85.37 66.8899C84.0394 66.5316 82.6679 66.3467 81.2899 66.3399H72.45C71.0733 66.337 69.702 66.5118 68.37 66.8599L66.75 67.2899C65.9456 67.5741 65.2237 68.0521 64.6481 68.6818C64.0725 69.3115 63.661 70.0733 63.45 70.8999C63.3766 71.1769 63.4143 71.4717 63.5549 71.7214C63.6956 71.9712 63.9283 72.1561 64.2033 72.2369C64.4783 72.3177 64.7738 72.288 65.0272 72.1541C65.2806 72.0201 65.4718 71.7926 65.56 71.5199C65.6681 71.0425 65.8914 70.5988 66.2103 70.2275C66.5293 69.8563 66.9344 69.5687 67.39 69.3899L68.98 68.9699C70.1261 68.6711 71.3056 68.5199 72.49 68.5199H81.33C82.5156 68.5204 83.696 68.6784 84.84 68.9899L86.4299 69.4299C87.0437 69.7039 87.5619 70.1548 87.9181 70.7248C88.2744 71.2948 88.4526 71.9581 88.4299 72.6299L88.6499 77.1199L65.14 77.0399L65.2 75.8899C65.2202 75.7399 65.2093 75.5873 65.1679 75.4417C65.1264 75.2961 65.0553 75.1606 64.9591 75.0438C64.8629 74.9269 64.7436 74.8311 64.6087 74.7625C64.4737 74.6938 64.3262 74.6538 64.1751 74.6448C64.024 74.6358 63.8726 74.6582 63.7305 74.7104C63.5884 74.7626 63.4586 74.8435 63.3493 74.9482C63.2399 75.0529 63.1534 75.179 63.095 75.3186C63.0366 75.4583 63.0077 75.6085 63.01 75.7599L62.9199 77.2899C62.9064 77.5403 62.9439 77.7908 63.0302 78.0263C63.1164 78.2617 63.2497 78.4772 63.4218 78.6596C63.5939 78.8419 63.8012 78.9874 64.0313 79.0872C64.2613 79.187 64.5093 79.2389 64.76 79.2399L89.01 79.3299C89.2607 79.3302 89.5089 79.2795 89.7394 79.181C89.9699 79.0824 90.1779 78.9381 90.351 78.7566C90.524 78.5752 90.6584 78.3605 90.7459 78.1255C90.8334 77.8906 90.8722 77.6403 90.86 77.3899L90.52 72.5299Z" fill="#502D4B"/>
</svg>
