<svg width="155" height="192" viewBox="0 0 155 192" fill="none" xmlns="http://www.w3.org/2000/svg">
<path d="M151.31 96.0601C150.061 98.6404 148.318 100.951 146.18 102.86C142.107 106.535 138.765 110.945 136.33 115.86C134.38 119.56 111.58 155.06 107.82 161.16C98.8698 177.16 80.2298 188.23 58.5998 188.23C56.5998 188.23 54.5998 188.23 52.5998 188.1C42.9895 188.07 33.5235 185.761 24.9798 181.36C24.8889 181.291 24.7876 181.237 24.6798 181.2C13.0398 174.39 5.57978 161.81 4.05978 139.79V51.7901C4.04453 51.6271 4.04453 51.4631 4.05978 51.3001C4.14469 49.7084 4.70319 48.1784 5.66354 46.9063C6.62388 45.6341 7.9423 44.6779 9.44979 44.1601C10.3091 43.8354 11.2212 43.6727 12.1399 43.6801C14.2899 43.6827 16.3512 44.538 17.8715 46.0584C19.3919 47.5787 20.2472 49.64 20.2498 51.7901V92.3201C20.2307 92.3717 20.2307 92.4285 20.2498 92.4801C20.3234 93.7287 20.8764 94.9007 21.7935 95.7512C22.7107 96.6017 23.9209 97.065 25.1715 97.0443C26.4221 97.0237 27.6164 96.5207 28.505 95.6404C29.3935 94.76 29.9075 93.5705 29.9398 92.3201V27.5101C29.9378 26.4445 30.1461 25.3889 30.5528 24.4039C30.9595 23.419 31.5566 22.5239 32.3098 21.7701L33.1898 21.0201C34.6515 20.0879 36.321 19.5314 38.0498 19.4001C40.1999 19.4027 42.2611 20.258 43.7815 21.7784C45.3018 23.2987 46.1571 25.36 46.1598 27.5101V85.8701V86.0401C46.2341 87.289 46.7882 88.4609 47.7063 89.3109C48.6243 90.1609 49.8353 90.6232 51.0863 90.6013C52.3372 90.5793 53.5313 90.0748 54.419 89.1931C55.3067 88.3115 55.8194 87.1208 55.8498 85.8701V12.8701C55.889 10.2985 56.9125 7.83978 58.7098 6.00009C60.0686 4.63853 61.8008 3.71077 63.6872 3.33426C65.5736 2.95775 67.5293 3.14941 69.3067 3.885C71.0841 4.62058 72.6033 5.867 73.672 7.46646C74.7406 9.06592 75.3105 10.9465 75.3098 12.8701V85.8701V86.0401C75.3323 87.3264 75.865 88.5511 76.7905 89.4447C77.716 90.3383 78.9585 90.8276 80.2448 90.8051C81.5311 90.7825 82.7558 90.25 83.6494 89.3245C84.543 88.399 85.0324 87.1564 85.0098 85.8701V35.6101C84.9994 34.6636 85.1411 33.7216 85.4298 32.8201C85.8692 31.2711 86.7071 29.8643 87.8598 28.7401C88.4605 28.1492 89.1323 27.6353 89.8598 27.2101L94.7598 25.8801C96.0375 25.8788 97.3028 26.1296 98.4834 26.6183C99.6639 27.1069 100.736 27.8237 101.639 28.7276C102.542 29.6315 103.258 30.7048 103.745 31.8858C104.233 33.0668 104.482 34.3324 104.48 35.6101V107.41C104.55 109.32 104.48 110.81 104.48 111.98C104.48 114.86 104.74 115.64 107.04 115.61C108.741 115.537 110.394 115.022 111.837 114.118C113.279 113.213 114.462 111.949 115.27 110.45C119.218 103.322 124.741 97.1891 131.42 92.5201C134.041 90.7576 136.918 89.4086 139.95 88.5201C142.104 87.8496 144.344 87.4893 146.6 87.4501C152.7 87.4601 151.66 95.4101 151.31 96.0601Z" fill="#FDD9A9"/>
<path d="M58.6001 191.47C31.8101 191.47 3.9901 185.36 0.850098 140.02V51.83C0.937786 48.8742 2.17363 46.0688 4.29541 44.009C6.41719 41.9493 9.25796 40.7972 12.2151 40.7972C15.1722 40.7972 18.013 41.9493 20.1348 44.009C22.2565 46.0688 23.4924 48.8742 23.5801 51.83V92.36C23.5801 92.7897 23.7508 93.2017 24.0546 93.5055C24.3584 93.8093 24.7704 93.98 25.2001 93.98C25.6297 93.98 26.0418 93.8093 26.3456 93.5055C26.6494 93.2017 26.8201 92.7897 26.8201 92.36V27.51C26.8201 24.4998 28.0159 21.6129 30.1444 19.4844C32.2729 17.3558 35.1598 16.16 38.17 16.16C41.1803 16.16 44.0673 17.3558 46.1958 19.4844C48.3243 21.6129 49.5201 24.4998 49.5201 27.51V85.87C49.5201 86.2997 49.6908 86.7117 49.9946 87.0155C50.2984 87.3193 50.7105 87.49 51.1401 87.49C51.5698 87.49 51.9818 87.3193 52.2856 87.0155C52.5895 86.7117 52.7601 86.2997 52.7601 85.87V12.87C52.9839 9.58261 54.4475 6.5028 56.8552 4.25336C59.263 2.00391 62.4351 0.752686 65.7301 0.752686C69.0251 0.752686 72.1971 2.00391 74.6049 4.25336C77.0126 6.5028 78.4763 9.58261 78.7001 12.87V85.87C78.7322 86.279 78.9173 86.6608 79.2185 86.9393C79.5197 87.2178 79.9149 87.3725 80.3251 87.3725C80.7353 87.3725 81.1304 87.2178 81.4316 86.9393C81.7328 86.6608 81.918 86.279 81.9501 85.87V35.61C82.1738 32.3226 83.6376 29.2428 86.0453 26.9933C88.453 24.7439 91.625 23.4927 94.92 23.4927C98.2151 23.4927 101.387 24.7439 103.795 26.9933C106.203 29.2428 107.666 32.3226 107.89 35.61V107.39C107.89 108.71 107.89 109.9 107.89 110.9C107.89 111.37 107.89 111.9 107.89 112.3C108.883 112.111 109.822 111.703 110.639 111.106C111.455 110.51 112.128 109.739 112.61 108.85C116.803 101.289 122.673 94.7888 129.77 89.85C134.803 86.434 140.692 84.4974 146.77 84.26C148.096 84.2163 149.41 84.5291 150.575 85.1658C151.739 85.8025 152.711 86.7398 153.39 87.88C154.171 89.3656 154.638 90.9962 154.762 92.6701C154.886 94.3441 154.664 96.0256 154.11 97.61C152.67 100.575 150.654 103.223 148.18 105.4C144.436 108.784 141.381 112.858 139.18 117.4C137.92 119.78 129.43 133.16 119.28 149.1C115.28 155.47 111.8 160.85 110.54 162.89C100.74 180.46 80.8001 191.47 58.6001 191.47ZM12.2101 46.96C11.5684 46.9574 10.9325 47.0813 10.3387 47.3248C9.74502 47.5682 9.20514 47.9264 8.75 48.3787C8.29486 48.8311 7.93336 49.3687 7.68628 49.961C7.4392 50.5532 7.31137 51.1883 7.31006 51.83V139.83C9.54006 171.83 24.3901 185.03 58.5801 185.03C78.4301 185.03 96.2001 175.29 104.96 159.61C106.31 157.43 109.74 152.03 113.82 145.61C121.15 134.11 132.22 116.72 133.45 114.37C136.047 109.047 139.67 104.29 144.11 100.37C145.838 98.8026 147.251 96.9187 148.27 94.82C148.491 93.5431 148.31 92.2289 147.75 91.06C147.66 90.94 147.5 90.74 146.75 90.74C141.967 90.9703 137.34 92.5172 133.38 95.21C127.102 99.595 121.916 105.363 118.22 112.07C117.123 114.051 115.535 115.716 113.609 116.905C111.682 118.094 109.482 118.767 107.22 118.86C105.658 118.982 104.111 118.478 102.92 117.46C101.32 115.89 101.32 113.79 101.33 110.89C101.33 109.95 101.33 108.82 101.33 107.49V35.61C101.33 33.8861 100.645 32.2328 99.4263 31.0138C98.2073 29.7948 96.554 29.11 94.8301 29.11C93.1062 29.11 91.4529 29.7948 90.2339 31.0138C89.0149 32.2328 88.3301 33.8861 88.3301 35.61V85.87C88.3683 86.9583 88.187 88.0432 87.7969 89.0599C87.4068 90.0766 86.816 91.0044 86.0596 91.7878C85.3032 92.5713 84.3967 93.1943 83.3943 93.6199C82.3919 94.0454 81.3141 94.2648 80.2251 94.2648C79.1361 94.2648 78.0583 94.0454 77.0559 93.6199C76.0535 93.1943 75.147 92.5713 74.3906 91.7878C73.6342 91.0044 73.0434 90.0766 72.6533 89.0599C72.2632 88.0432 72.0819 86.9583 72.1201 85.87V12.87C72.1201 11.1461 71.4353 9.49281 70.2163 8.27382C68.9973 7.05483 67.344 6.37003 65.6201 6.37003C63.8962 6.37003 62.2429 7.05483 61.0239 8.27382C59.8049 9.49281 59.1201 11.1461 59.1201 12.87V85.87C59.1201 88.0209 58.2657 90.0837 56.7448 91.6047C55.2238 93.1256 53.161 93.98 51.0101 93.98C48.8592 93.98 46.7963 93.1256 45.2754 91.6047C43.7545 90.0837 42.9 88.0209 42.9 85.87V27.51C42.9 26.2211 42.388 24.9849 41.4766 24.0735C40.5651 23.1621 39.329 22.65 38.04 22.65C36.7511 22.65 35.5149 23.1621 34.6035 24.0735C33.6921 24.9849 33.1801 26.2211 33.1801 27.51V92.36C33.1801 94.5109 32.3256 96.5737 30.8047 98.0947C29.2838 99.6156 27.221 100.47 25.0701 100.47C22.9192 100.47 20.8564 99.6156 19.3354 98.0947C17.8145 96.5737 16.9601 94.5109 16.9601 92.36V51.83C16.9605 50.559 16.4639 49.3381 15.5764 48.4281C14.6889 47.5182 13.4808 46.9913 12.2101 46.96Z" fill="#502D4B"/>
</svg>
