<svg width="489" height="296" viewBox="0 0 489 296" fill="none" xmlns="http://www.w3.org/2000/svg">
<rect x="95" y="24" width="308" height="243" fill="white"/>
<path d="M26.5701 41.95H137.84V258.61H26.5701V41.95Z" fill="#E1EBF8"/>
<path d="M351.3 41.95H462.57V258.61H351.3V41.95Z" fill="#E1EBF8"/>
<path d="M462.57 262.61H26.5701C25.5092 262.61 24.4918 262.189 23.7416 261.438C22.9915 260.688 22.5701 259.671 22.5701 258.61V41.95C22.5701 40.8891 22.9915 39.8717 23.7416 39.1216C24.4918 38.3714 25.5092 37.95 26.5701 37.95H462.57C463.631 37.95 464.648 38.3714 465.399 39.1216C466.149 39.8717 466.57 40.8891 466.57 41.95V258.61C466.57 259.671 466.149 260.688 465.399 261.438C464.648 262.189 463.631 262.61 462.57 262.61ZM30.5701 254.61H458.57V45.95H30.5701V254.61Z" fill="#3E61AA"/>
<path d="M437.93 129.98H406.93V73.98H437.93C438.991 73.98 440.008 74.4015 440.758 75.1516C441.509 75.9018 441.93 76.9191 441.93 77.98V125.98C441.93 127.041 441.509 128.058 440.758 128.808C440.008 129.559 438.991 129.98 437.93 129.98Z" fill="#A8C6E9"/>
<path d="M437.93 217.96H406.93V161.96H437.93C438.991 161.96 440.008 162.381 440.758 163.132C441.509 163.882 441.93 164.899 441.93 165.96V213.96C441.93 215.021 441.509 216.038 440.758 216.788C440.008 217.539 438.991 217.96 437.93 217.96Z" fill="#A8C6E9"/>
<path d="M82.21 129.96H51.21C50.1491 129.96 49.1317 129.539 48.3815 128.788C47.6314 128.038 47.21 127.021 47.21 125.96V77.96C47.21 76.8991 47.6314 75.8817 48.3815 75.1316C49.1317 74.3814 50.1491 73.96 51.21 73.96H82.21V129.96Z" fill="#A8C6E9"/>
<path d="M82.21 217.96H51.21C50.1491 217.96 49.1317 217.539 48.3815 216.788C47.6314 216.038 47.21 215.021 47.21 213.96V165.96C47.21 164.899 47.6314 163.882 48.3815 163.132C49.1317 162.381 50.1491 161.96 51.21 161.96H82.21V217.96Z" fill="#A8C6E9"/>
<path d="M406.93 129.96H375.93C374.869 129.96 373.852 129.539 373.102 128.788C372.351 128.038 371.93 127.021 371.93 125.96V77.96C371.93 76.8991 372.351 75.8817 373.102 75.1316C373.852 74.3814 374.869 73.96 375.93 73.96H406.93V129.96Z" fill="#A8C6E9"/>
<path d="M406.93 217.96H375.93C374.869 217.96 373.852 217.539 373.102 216.788C372.351 216.038 371.93 215.021 371.93 213.96V165.96C371.93 164.899 372.351 163.882 373.102 163.132C373.852 162.381 374.869 161.96 375.93 161.96H406.93V217.96Z" fill="#A8C6E9"/>
<path d="M113.21 129.96H82.21V73.96H113.21C114.271 73.96 115.288 74.3814 116.038 75.1316C116.789 75.8817 117.21 76.8991 117.21 77.96V125.96C117.21 127.021 116.789 128.038 116.038 128.788C115.288 129.539 114.271 129.96 113.21 129.96Z" fill="#A8C6E9"/>
<path d="M113.21 217.96H82.21V161.96H113.21C114.271 161.96 115.288 162.381 116.038 163.132C116.789 163.882 117.21 164.899 117.21 165.96V213.96C117.21 215.021 116.789 216.038 116.038 216.788C115.288 217.539 114.271 217.96 113.21 217.96Z" fill="#A8C6E9"/>
<path d="M437.93 133.98H406.93C405.869 133.98 404.852 133.559 404.102 132.808C403.351 132.058 402.93 131.041 402.93 129.98V73.98C402.93 72.9191 403.351 71.9018 404.102 71.1516C404.852 70.4015 405.869 69.98 406.93 69.98H437.93C440.052 69.98 442.087 70.8228 443.587 72.3231C445.087 73.8234 445.93 75.8582 445.93 77.98V125.98C445.93 128.102 445.087 130.137 443.587 131.637C442.087 133.137 440.052 133.98 437.93 133.98ZM410.93 125.98H437.93V77.98H410.93V125.98Z" fill="#3E61AA"/>
<path d="M437.94 221.96H406.94C405.879 221.96 404.862 221.539 404.112 220.788C403.361 220.038 402.94 219.021 402.94 217.96V161.96C402.94 160.899 403.361 159.882 404.112 159.132C404.862 158.381 405.879 157.96 406.94 157.96H437.94C440.062 157.96 442.097 158.803 443.597 160.303C445.097 161.803 445.94 163.838 445.94 165.96V213.96C445.94 216.082 445.097 218.117 443.597 219.617C442.097 221.117 440.062 221.96 437.94 221.96ZM410.94 213.96H437.94V165.96H410.94V213.96Z" fill="#3E61AA"/>
<path d="M82.21 133.96H51.21C49.0882 133.96 47.0534 133.117 45.5531 131.617C44.0528 130.117 43.21 128.082 43.21 125.96V77.96C43.21 75.8382 44.0528 73.8034 45.5531 72.3031C47.0534 70.8028 49.0882 69.96 51.21 69.96H82.21C83.2708 69.96 84.2882 70.3814 85.0384 71.1316C85.7885 71.8817 86.21 72.8991 86.21 73.96V129.96C86.21 131.021 85.7885 132.038 85.0384 132.788C84.2882 133.539 83.2708 133.96 82.21 133.96ZM51.21 77.96V125.96H78.21V77.96H51.21Z" fill="#3E61AA"/>
<path d="M82.21 221.96H51.21C49.0882 221.96 47.0534 221.117 45.5531 219.617C44.0528 218.117 43.21 216.082 43.21 213.96V165.96C43.21 163.838 44.0528 161.803 45.5531 160.303C47.0534 158.803 49.0882 157.96 51.21 157.96H82.21C83.2708 157.96 84.2882 158.381 85.0384 159.132C85.7885 159.882 86.21 160.899 86.21 161.96V217.96C86.21 219.021 85.7885 220.038 85.0384 220.788C84.2882 221.539 83.2708 221.96 82.21 221.96ZM51.21 165.96V213.96H78.21V165.96H51.21Z" fill="#3E61AA"/>
<path d="M406.94 133.96H375.94C373.818 133.96 371.783 133.117 370.283 131.617C368.783 130.117 367.94 128.082 367.94 125.96V77.96C367.94 75.8382 368.783 73.8034 370.283 72.3031C371.783 70.8028 373.818 69.96 375.94 69.96H406.94C408.001 69.96 409.018 70.3814 409.768 71.1316C410.519 71.8817 410.94 72.8991 410.94 73.96V129.96C410.94 131.021 410.519 132.038 409.768 132.788C409.018 133.539 408.001 133.96 406.94 133.96ZM375.94 77.96V125.96H402.94V77.96H375.94Z" fill="#3E61AA"/>
<path d="M406.94 221.96H375.94C373.818 221.96 371.783 221.117 370.283 219.617C368.783 218.117 367.94 216.082 367.94 213.96V165.96C367.94 163.838 368.783 161.803 370.283 160.303C371.783 158.803 373.818 157.96 375.94 157.96H406.94C408.001 157.96 409.018 158.381 409.768 159.132C410.519 159.882 410.94 160.899 410.94 161.96V217.96C410.94 219.021 410.519 220.038 409.768 220.788C409.018 221.539 408.001 221.96 406.94 221.96ZM375.94 165.96V213.96H402.94V165.96H375.94Z" fill="#3E61AA"/>
<path d="M113.21 133.96H82.21C81.1491 133.96 80.1317 133.539 79.3815 132.788C78.6314 132.038 78.21 131.021 78.21 129.96V73.96C78.21 72.8991 78.6314 71.8817 79.3815 71.1316C80.1317 70.3814 81.1491 69.96 82.21 69.96H113.21C115.332 69.96 117.367 70.8028 118.867 72.3031C120.367 73.8034 121.21 75.8382 121.21 77.96V125.96C121.21 128.082 120.367 130.117 118.867 131.617C117.367 133.117 115.332 133.96 113.21 133.96ZM86.21 125.96H113.21V77.96H86.21V125.96Z" fill="#3E61AA"/>
<path d="M113.21 221.96H82.21C81.1491 221.96 80.1317 221.539 79.3815 220.788C78.6314 220.038 78.21 219.021 78.21 217.96V161.96C78.21 160.899 78.6314 159.882 79.3815 159.132C80.1317 158.381 81.1491 157.96 82.21 157.96H113.21C115.332 157.96 117.367 158.803 118.867 160.303C120.367 161.803 121.21 163.838 121.21 165.96V213.96C121.21 216.082 120.367 218.117 118.867 219.617C117.367 221.117 115.332 221.96 113.21 221.96ZM86.21 213.96H113.21V165.96H86.21V213.96Z" fill="#3E61AA"/>
<path d="M476.57 294.61H12.5701C10.4483 294.61 8.4135 293.767 6.91321 292.267C5.41292 290.766 4.57007 288.732 4.57007 286.61V266.61C4.57007 264.488 5.41292 262.453 6.91321 260.953C8.4135 259.453 10.4483 258.61 12.5701 258.61H476.57C478.692 258.61 480.727 259.453 482.227 260.953C483.727 262.453 484.57 264.488 484.57 266.61V286.61C484.57 288.732 483.727 290.766 482.227 292.267C480.727 293.767 478.692 294.61 476.57 294.61Z" fill="#FAD0CF"/>
<path d="M476.57 295.61H12.5701C9.38747 295.61 6.33521 294.346 4.08478 292.095C1.83434 289.845 0.570068 286.792 0.570068 283.61V263.61C0.570068 260.427 1.83434 257.375 4.08478 255.125C6.33521 252.874 9.38747 251.61 12.5701 251.61H476.57C479.753 251.61 482.805 252.874 485.055 255.125C487.306 257.375 488.57 260.427 488.57 263.61V283.61C488.57 286.792 487.306 289.845 485.055 292.095C482.805 294.346 479.753 295.61 476.57 295.61V295.61ZM12.5701 259.61C11.5092 259.61 10.4918 260.031 9.74164 260.781C8.99149 261.532 8.57007 262.549 8.57007 263.61V283.61C8.57007 284.671 8.99149 285.688 9.74164 286.438C10.4918 287.188 11.5092 287.61 12.5701 287.61H476.57C477.631 287.61 478.648 287.188 479.399 286.438C480.149 285.688 480.57 284.671 480.57 283.61V263.61C480.57 262.549 480.149 261.532 479.399 260.781C478.648 260.031 477.631 259.61 476.57 259.61H12.5701Z" fill="#3E61AA"/>
<path d="M201.91 220.13H170.91C169.849 220.13 168.832 219.708 168.082 218.958C167.332 218.208 166.91 217.191 166.91 216.13V168.13C166.91 167.069 167.332 166.052 168.082 165.302C168.832 164.551 169.849 164.13 170.91 164.13H201.91V220.13Z" fill="#A8C6E9"/>
<path d="M232.55 220.22H201.55V164.22H232.55C233.611 164.22 234.628 164.641 235.378 165.392C236.129 166.142 236.55 167.159 236.55 168.22V216.22C236.55 217.281 236.129 218.298 235.378 219.048C234.628 219.799 233.611 220.22 232.55 220.22Z" fill="#A8C6E9"/>
<path d="M232.55 224.22H201.55C200.489 224.22 199.472 223.799 198.722 223.048C197.971 222.298 197.55 221.281 197.55 220.22V164.22C197.55 163.159 197.971 162.142 198.722 161.392C199.472 160.641 200.489 160.22 201.55 160.22H232.55C234.672 160.22 236.707 161.063 238.207 162.563C239.707 164.063 240.55 166.098 240.55 168.22V216.22C240.55 218.342 239.707 220.377 238.207 221.877C236.707 223.377 234.672 224.22 232.55 224.22ZM205.55 216.22H232.55V168.22H205.55V216.22Z" fill="#3E61AA"/>
<path d="M201.55 224.2H170.55C168.428 224.2 166.393 223.357 164.893 221.857C163.393 220.357 162.55 218.322 162.55 216.2V168.2C162.55 166.078 163.393 164.043 164.893 162.543C166.393 161.043 168.428 160.2 170.55 160.2H201.55C202.611 160.2 203.628 160.621 204.378 161.372C205.129 162.122 205.55 163.139 205.55 164.2V220.2C205.55 221.261 205.129 222.278 204.378 223.028C203.628 223.779 202.611 224.2 201.55 224.2ZM170.55 168.2V216.2H197.55V168.2H170.55Z" fill="#3E61AA"/>
<path d="M296.91 220.13H265.91C264.849 220.13 263.832 219.708 263.082 218.958C262.331 218.208 261.91 217.191 261.91 216.13V168.13C261.91 167.069 262.331 166.052 263.082 165.302C263.832 164.551 264.849 164.13 265.91 164.13H296.91V220.13Z" fill="#A8C6E9"/>
<path d="M327.55 220.22H296.55V164.22H327.55C328.611 164.22 329.628 164.641 330.379 165.392C331.129 166.142 331.55 167.159 331.55 168.22V216.22C331.55 217.281 331.129 218.298 330.379 219.048C329.628 219.799 328.611 220.22 327.55 220.22Z" fill="#A8C6E9"/>
<path d="M327.55 224.22H296.55C295.489 224.22 294.472 223.799 293.722 223.048C292.972 222.298 292.55 221.281 292.55 220.22V164.22C292.55 163.159 292.972 162.142 293.722 161.392C294.472 160.641 295.489 160.22 296.55 160.22H327.55C329.672 160.22 331.707 161.063 333.207 162.563C334.707 164.063 335.55 166.098 335.55 168.22V216.22C335.55 218.342 334.707 220.377 333.207 221.877C331.707 223.377 329.672 224.22 327.55 224.22ZM300.55 216.22H327.55V168.22H300.55V216.22Z" fill="#3E61AA"/>
<path d="M296.55 224.2H265.55C263.428 224.2 261.393 223.357 259.893 221.857C258.393 220.357 257.55 218.322 257.55 216.2V168.2C257.55 166.078 258.393 164.043 259.893 162.543C261.393 161.043 263.428 160.2 265.55 160.2H296.55C297.611 160.2 298.628 160.621 299.379 161.372C300.129 162.122 300.55 163.139 300.55 164.2V220.2C300.55 221.261 300.129 222.278 299.379 223.028C298.628 223.779 297.611 224.2 296.55 224.2ZM265.55 168.2V216.2H292.55V168.2H265.55Z" fill="#3E61AA"/>
<path d="M205.41 128.13H174.41C173.349 128.13 172.332 127.708 171.582 126.958C170.832 126.208 170.41 125.191 170.41 124.13V76.1299C170.41 75.069 170.832 74.0517 171.582 73.3015C172.332 72.5514 173.349 72.1299 174.41 72.1299H205.41V128.13Z" fill="#A8C6E9"/>
<path d="M236.05 128.22H205.05V72.22H236.05C237.111 72.22 238.128 72.6415 238.878 73.3916C239.629 74.1417 240.05 75.1591 240.05 76.22V124.22C240.05 125.281 239.629 126.298 238.878 127.048C238.128 127.799 237.111 128.22 236.05 128.22Z" fill="#A8C6E9"/>
<path d="M236.05 132.22H205.05C203.989 132.22 202.972 131.799 202.222 131.048C201.471 130.298 201.05 129.281 201.05 128.22V72.22C201.05 71.1591 201.471 70.1417 202.222 69.3916C202.972 68.6415 203.989 68.22 205.05 68.22H236.05C238.172 68.22 240.207 69.0628 241.707 70.5631C243.207 72.0634 244.05 74.0982 244.05 76.22V124.22C244.05 126.342 243.207 128.377 241.707 129.877C240.207 131.377 238.172 132.22 236.05 132.22ZM209.05 124.22H236.05V76.22H209.05V124.22Z" fill="#3E61AA"/>
<path d="M205.05 132.2H174.05C171.928 132.2 169.893 131.357 168.393 129.857C166.893 128.357 166.05 126.322 166.05 124.2V76.2C166.05 74.0782 166.893 72.0434 168.393 70.5431C169.893 69.0428 171.928 68.2 174.05 68.2H205.05C206.111 68.2 207.128 68.6214 207.878 69.3716C208.629 70.1217 209.05 71.1391 209.05 72.2V128.2C209.05 129.261 208.629 130.278 207.878 131.028C207.128 131.779 206.111 132.2 205.05 132.2ZM174.05 76.2V124.2H201.05V76.2H174.05Z" fill="#3E61AA"/>
<path d="M300.41 128.13H269.41C268.349 128.13 267.332 127.708 266.582 126.958C265.831 126.208 265.41 125.191 265.41 124.13V76.1299C265.41 75.069 265.831 74.0517 266.582 73.3015C267.332 72.5514 268.349 72.1299 269.41 72.1299H300.41V128.13Z" fill="#A8C6E9"/>
<path d="M331.05 128.22H300.05V72.22H331.05C332.111 72.22 333.128 72.6415 333.879 73.3916C334.629 74.1417 335.05 75.1591 335.05 76.22V124.22C335.05 125.281 334.629 126.298 333.879 127.048C333.128 127.799 332.111 128.22 331.05 128.22Z" fill="#A8C6E9"/>
<path d="M331.05 132.22H300.05C298.989 132.22 297.972 131.799 297.222 131.048C296.472 130.298 296.05 129.281 296.05 128.22V72.22C296.05 71.1591 296.472 70.1417 297.222 69.3916C297.972 68.6415 298.989 68.22 300.05 68.22H331.05C333.172 68.22 335.207 69.0628 336.707 70.5631C338.207 72.0634 339.05 74.0982 339.05 76.22V124.22C339.05 126.342 338.207 128.377 336.707 129.877C335.207 131.377 333.172 132.22 331.05 132.22ZM304.05 124.22H331.05V76.22H304.05V124.22Z" fill="#3E61AA"/>
<path d="M300.05 132.2H269.05C266.928 132.2 264.893 131.357 263.393 129.857C261.893 128.357 261.05 126.322 261.05 124.2V76.2C261.05 74.0782 261.893 72.0434 263.393 70.5431C264.893 69.0428 266.928 68.2 269.05 68.2H300.05C301.111 68.2 302.128 68.6214 302.879 69.3716C303.629 70.1217 304.05 71.1391 304.05 72.2V128.2C304.05 129.261 303.629 130.278 302.879 131.028C302.128 131.779 301.111 132.2 300.05 132.2ZM269.05 76.2V124.2H296.05V76.2H269.05Z" fill="#3E61AA"/>
<path d="M476.91 43.1299H12.9102C10.7884 43.1299 8.75359 42.287 7.2533 40.7867C5.753 39.2865 4.91016 37.2516 4.91016 35.1299V15.1299C4.91016 13.0082 5.753 10.9733 7.2533 9.47302C8.75359 7.97273 10.7884 7.12988 12.9102 7.12988H476.91C479.032 7.12988 481.067 7.97273 482.567 9.47302C484.067 10.9733 484.91 13.0082 484.91 15.1299V35.1299C484.91 37.2516 484.067 39.2865 482.567 40.7867C481.067 42.287 479.032 43.1299 476.91 43.1299Z" fill="#FAD0CF"/>
<path d="M476.91 44.1299H12.9102C9.72756 44.1299 6.6753 42.8655 4.42487 40.6151C2.17443 38.3647 0.910156 35.3125 0.910156 32.1299V12.1299C0.910156 8.94728 2.17443 5.89509 4.42487 3.64465C6.6753 1.39422 9.72756 0.129883 12.9102 0.129883H476.91C480.093 0.129883 483.145 1.39422 485.395 3.64465C487.646 5.89509 488.91 8.94728 488.91 12.1299V32.1299C488.91 35.3125 487.646 38.3647 485.395 40.6151C483.145 42.8655 480.093 44.1299 476.91 44.1299ZM12.9102 8.12988C11.8493 8.12988 10.8319 8.55137 10.0817 9.30151C9.33158 10.0517 8.91016 11.069 8.91016 12.1299V32.1299C8.91016 33.1907 9.33158 34.2081 10.0817 34.9583C10.8319 35.7084 11.8493 36.1299 12.9102 36.1299H476.91C477.971 36.1299 478.988 35.7084 479.739 34.9583C480.489 34.2081 480.91 33.1907 480.91 32.1299V12.1299C480.91 11.069 480.489 10.0517 479.739 9.30151C478.988 8.55137 477.971 8.12988 476.91 8.12988H12.9102Z" fill="#3E61AA"/>
</svg>
