<svg width="434" height="482" viewBox="0 0 434 482" fill="none" xmlns="http://www.w3.org/2000/svg">
<path d="M377.72 260.34H55.72C49.3548 260.34 43.2503 257.811 38.7494 253.311C34.2485 248.81 31.72 242.705 31.72 236.34V28C31.72 21.6348 34.2485 15.5303 38.7494 11.0294C43.2503 6.52855 49.3548 4 55.72 4H377.72C384.085 4 390.19 6.52855 394.691 11.0294C399.191 15.5303 401.72 21.6348 401.72 28V236.34C401.72 242.705 399.191 248.81 394.691 253.311C390.19 257.811 384.085 260.34 377.72 260.34V260.34Z" fill="#7CC9D1"/>
<path d="M299.72 346H133.72C130.537 346 127.485 344.736 125.235 342.485C122.984 340.235 121.72 337.182 121.72 334C121.72 330.817 122.984 327.765 125.235 325.515C127.485 323.264 130.537 322 133.72 322H299.72C302.903 322 305.955 323.264 308.205 325.515C310.456 327.765 311.72 330.817 311.72 334C311.72 337.182 310.456 340.235 308.205 342.485C305.955 344.736 302.903 346 299.72 346Z" fill="#E1EBF8"/>
<path d="M162.7 260.34L142.05 322H291.36L270.71 260.34H162.7Z" fill="#A8C6E9"/>
<path d="M401.72 236.34V208.67H31.72V236.34C31.72 242.705 34.2485 248.81 38.7494 253.31C43.2503 257.811 49.3548 260.34 55.72 260.34H377.72C384.085 260.34 390.19 257.811 394.691 253.31C399.191 248.81 401.72 242.705 401.72 236.34V236.34Z" fill="#E1EBF8"/>
<path d="M315.36 464.07H16C12.8174 464.07 9.76516 462.806 7.51472 460.555C5.26429 458.305 4 455.253 4 452.07V376.74C4 373.557 5.26429 370.505 7.51472 368.255C9.76516 366.004 12.8174 364.74 16 364.74H315.36C318.543 364.74 321.595 366.004 323.845 368.255C326.096 370.505 327.36 373.557 327.36 376.74V452.07C327.36 455.253 326.096 458.305 323.845 460.555C321.595 462.806 318.543 464.07 315.36 464.07Z" fill="#E1EBF8"/>
<path d="M46.2598 405.07H37.0598C35.4685 405.07 33.9424 404.438 32.8172 403.312C31.692 402.187 31.0598 400.661 31.0598 399.07V389.87C31.0598 388.279 31.692 386.752 32.8172 385.627C33.9424 384.502 35.4685 383.87 37.0598 383.87H46.2598C47.8511 383.87 49.3772 384.502 50.5025 385.627C51.6277 386.752 52.2598 388.279 52.2598 389.87V399.07C52.2598 400.661 51.6277 402.187 50.5025 403.312C49.3772 404.438 47.8511 405.07 46.2598 405.07V405.07Z" fill="#A8C6E9"/>
<path d="M86.2598 405.07H77.0598C75.4685 405.07 73.9424 404.438 72.8172 403.312C71.692 402.187 71.0598 400.661 71.0598 399.07V389.87C71.0598 388.279 71.692 386.752 72.8172 385.627C73.9424 384.502 75.4685 383.87 77.0598 383.87H86.2598C87.8511 383.87 89.3772 384.502 90.5025 385.627C91.6277 386.752 92.2598 388.279 92.2598 389.87V399.07C92.2598 400.661 91.6277 402.187 90.5025 403.312C89.3772 404.438 87.8511 405.07 86.2598 405.07V405.07Z" fill="#A8C6E9"/>
<path d="M126.26 405.07H117.06C115.469 405.07 113.942 404.438 112.817 403.312C111.692 402.187 111.06 400.661 111.06 399.07V389.87C111.06 388.279 111.692 386.752 112.817 385.627C113.942 384.502 115.469 383.87 117.06 383.87H126.26C127.851 383.87 129.377 384.502 130.502 385.627C131.628 386.752 132.26 388.279 132.26 389.87V399.07C132.26 400.661 131.628 402.187 130.502 403.312C129.377 404.438 127.851 405.07 126.26 405.07V405.07Z" fill="#A8C6E9"/>
<path d="M166.26 405.07H157.06C155.469 405.07 153.942 404.438 152.817 403.312C151.692 402.187 151.06 400.661 151.06 399.07V389.87C151.06 388.279 151.692 386.752 152.817 385.627C153.942 384.502 155.469 383.87 157.06 383.87H166.26C167.851 383.87 169.377 384.502 170.502 385.627C171.628 386.752 172.26 388.279 172.26 389.87V399.07C172.26 400.661 171.628 402.187 170.502 403.312C169.377 404.438 167.851 405.07 166.26 405.07V405.07Z" fill="#A8C6E9"/>
<path d="M206.26 405.07H197.06C195.469 405.07 193.942 404.438 192.817 403.312C191.692 402.187 191.06 400.661 191.06 399.07V389.87C191.06 388.279 191.692 386.752 192.817 385.627C193.942 384.502 195.469 383.87 197.06 383.87H206.26C207.851 383.87 209.377 384.502 210.502 385.627C211.628 386.752 212.26 388.279 212.26 389.87V399.07C212.26 400.661 211.628 402.187 210.502 403.312C209.377 404.438 207.851 405.07 206.26 405.07V405.07Z" fill="#A8C6E9"/>
<path d="M206.26 445.07H197.06C195.469 445.07 193.942 444.438 192.817 443.312C191.692 442.187 191.06 440.661 191.06 439.07V429.87C191.06 428.279 191.692 426.752 192.817 425.627C193.942 424.502 195.469 423.87 197.06 423.87H206.26C207.851 423.87 209.377 424.502 210.502 425.627C211.628 426.752 212.26 428.279 212.26 429.87V439.07C212.26 440.661 211.628 442.187 210.502 443.312C209.377 444.438 207.851 445.07 206.26 445.07Z" fill="#A8C6E9"/>
<path d="M166.26 445.07H76.8298C75.2385 445.07 73.7124 444.438 72.5872 443.312C71.462 442.187 70.8298 440.661 70.8298 439.07V429.87C70.8298 428.279 71.462 426.752 72.5872 425.627C73.7124 424.502 75.2385 423.87 76.8298 423.87H166.26C167.851 423.87 169.377 424.502 170.502 425.627C171.628 426.752 172.26 428.279 172.26 429.87V439.07C172.26 440.661 171.628 442.187 170.502 443.312C169.377 444.438 167.851 445.07 166.26 445.07Z" fill="#A8C6E9"/>
<path d="M46.2598 445.07H37.0598C35.4685 445.07 33.9424 444.438 32.8172 443.312C31.692 442.187 31.0598 440.661 31.0598 439.07V429.87C31.0598 428.279 31.692 426.752 32.8172 425.627C33.9424 424.502 35.4685 423.87 37.0598 423.87H46.2598C47.8511 423.87 49.3772 424.502 50.5025 425.627C51.6277 426.752 52.2598 428.279 52.2598 429.87V439.07C52.2598 440.661 51.6277 442.187 50.5025 443.312C49.3772 444.438 47.8511 445.07 46.2598 445.07V445.07Z" fill="#A8C6E9"/>
<path d="M294.26 405.07H285.06C283.469 405.07 281.942 404.438 280.817 403.312C279.692 402.187 279.06 400.661 279.06 399.07V389.87C279.06 388.279 279.692 386.752 280.817 385.627C281.942 384.502 283.469 383.87 285.06 383.87H294.26C295.851 383.87 297.377 384.502 298.502 385.627C299.628 386.752 300.26 388.279 300.26 389.87V399.07C300.26 400.661 299.628 402.187 298.502 403.312C297.377 404.438 295.851 405.07 294.26 405.07V405.07Z" fill="#A8C6E9"/>
<path d="M294.26 445.07H285.06C283.469 445.07 281.942 444.438 280.817 443.312C279.692 442.187 279.06 440.661 279.06 439.07V429.87C279.06 428.279 279.692 426.752 280.817 425.627C281.942 424.502 283.469 423.87 285.06 423.87H294.26C295.851 423.87 297.377 424.502 298.502 425.627C299.628 426.752 300.26 428.279 300.26 429.87V439.07C300.26 440.661 299.628 442.187 298.502 443.312C297.377 444.438 295.851 445.07 294.26 445.07V445.07Z" fill="#A8C6E9"/>
<path d="M252.98 405.07H239.71C238.119 405.07 236.593 404.438 235.467 403.312C234.342 402.187 233.71 400.661 233.71 399.07V389.87C233.71 388.279 234.342 386.752 235.467 385.627C236.593 384.502 238.119 383.87 239.71 383.87H252.98C254.571 383.87 256.097 384.502 257.223 385.627C258.348 386.752 258.98 388.279 258.98 389.87V399.07C258.98 400.661 258.348 402.187 257.223 403.312C256.097 404.438 254.571 405.07 252.98 405.07V405.07Z" fill="#A8C6E9"/>
<path d="M252.98 445.07H239.71C238.119 445.07 236.593 444.438 235.467 443.312C234.342 442.187 233.71 440.661 233.71 439.07V429.87C233.71 428.279 234.342 426.752 235.467 425.627C236.593 424.502 238.119 423.87 239.71 423.87H252.98C254.571 423.87 256.097 424.502 257.223 425.627C258.348 426.752 258.98 428.279 258.98 429.87V439.07C258.98 440.661 258.348 442.187 257.223 443.312C256.097 444.438 254.571 445.07 252.98 445.07V445.07Z" fill="#A8C6E9"/>
<path d="M391.87 477.88H384.04C374.076 477.88 364.52 473.922 357.474 466.876C350.428 459.83 346.47 450.274 346.47 440.31V392.42C346.47 381.413 350.842 370.858 358.625 363.075C366.408 355.292 376.963 350.92 387.97 350.92C398.976 350.92 409.532 355.292 417.315 363.075C425.098 370.858 429.47 381.413 429.47 392.42V440.31C429.47 450.274 425.512 459.83 418.466 466.876C411.42 473.922 401.864 477.88 391.9 477.88H391.87Z" fill="#E1EBF8"/>
<path d="M346.47 392.41V403.62H429.47V392.41C429.47 381.403 425.098 370.848 417.315 363.065C409.532 355.282 398.976 350.91 387.97 350.91C376.963 350.91 366.408 355.282 358.625 363.065C350.842 370.848 346.47 381.403 346.47 392.41Z" fill="#E1EBF8"/>
<path d="M391.87 481.88H384.04C373.019 481.867 362.453 477.483 354.66 469.69C346.867 461.897 342.483 451.331 342.47 440.31V392.42C342.47 380.353 347.264 368.779 355.797 360.247C364.33 351.714 375.903 346.92 387.97 346.92C400.037 346.92 411.61 351.714 420.143 360.247C428.676 368.779 433.47 380.353 433.47 392.42V440.31C433.459 451.332 429.076 461.899 421.283 469.693C413.489 477.486 402.922 481.869 391.9 481.88H391.87ZM387.96 354.88C378.022 354.89 368.494 358.842 361.466 365.869C354.438 372.895 350.483 382.422 350.47 392.36V440.25C350.478 449.152 354.017 457.687 360.311 463.982C366.604 470.278 375.138 473.819 384.04 473.83H391.87C400.772 473.819 409.306 470.278 415.599 463.982C421.893 457.687 425.432 449.152 425.44 440.25V392.36C425.429 382.423 421.477 372.896 414.451 365.869C407.424 358.843 397.897 354.89 387.96 354.88V354.88Z" fill="#3E61AA"/>
<path d="M429.44 407.62H346.44C345.379 407.62 344.362 407.199 343.612 406.448C342.861 405.698 342.44 404.681 342.44 403.62V392.41C342.44 380.343 347.234 368.769 355.767 360.237C364.3 351.704 375.873 346.91 387.94 346.91C400.007 346.91 411.58 351.704 420.113 360.237C428.646 368.769 433.44 380.343 433.44 392.41V403.62C433.44 404.681 433.019 405.698 432.268 406.448C431.518 407.199 430.501 407.62 429.44 407.62ZM350.44 399.62H425.44V392.41C425.44 382.464 421.489 372.926 414.456 365.893C407.424 358.861 397.886 354.91 387.94 354.91C377.994 354.91 368.456 358.861 361.423 365.893C354.391 372.926 350.44 382.464 350.44 392.41V399.62Z" fill="#3E61AA"/>
<path d="M387.96 407.62C386.899 407.62 385.882 407.199 385.132 406.448C384.381 405.698 383.96 404.681 383.96 403.62V350.93C383.96 349.869 384.381 348.852 385.132 348.102C385.882 347.351 386.899 346.93 387.96 346.93C389.021 346.93 390.038 347.351 390.788 348.102C391.539 348.852 391.96 349.869 391.96 350.93V403.62C391.96 404.681 391.539 405.698 390.788 406.448C390.038 407.199 389.021 407.62 387.96 407.62Z" fill="#3E61AA"/>
<path d="M387.75 389.72C386.424 389.72 385.152 389.193 384.214 388.256C383.277 387.318 382.75 386.046 382.75 384.72V369.78C382.75 368.454 383.277 367.182 384.214 366.245C385.152 365.307 386.424 364.78 387.75 364.78C389.076 364.78 390.348 365.307 391.286 366.245C392.223 367.182 392.75 368.454 392.75 369.78V384.72C392.75 386.046 392.223 387.318 391.286 388.256C390.348 389.193 389.076 389.72 387.75 389.72V389.72Z" fill="#A8C6E9"/>
<path d="M387.75 393.72C385.363 393.72 383.074 392.772 381.386 391.084C379.698 389.396 378.75 387.107 378.75 384.72V369.79C378.75 367.403 379.698 365.114 381.386 363.426C383.074 361.738 385.363 360.79 387.75 360.79C390.137 360.79 392.426 361.738 394.114 363.426C395.802 365.114 396.75 367.403 396.75 369.79V384.72C396.75 387.107 395.802 389.396 394.114 391.084C392.426 392.772 390.137 393.72 387.75 393.72V393.72ZM387.75 368.83C387.485 368.83 387.23 368.935 387.043 369.123C386.855 369.31 386.75 369.565 386.75 369.83V384.77C386.75 385.035 386.855 385.289 387.043 385.477C387.23 385.664 387.485 385.77 387.75 385.77C388.015 385.77 388.27 385.664 388.457 385.477C388.645 385.289 388.75 385.035 388.75 384.77V369.83C388.75 369.565 388.645 369.31 388.457 369.123C388.27 368.935 388.015 368.83 387.75 368.83Z" fill="#3E61AA"/>
<path d="M303.02 187.75H130.42C126.244 187.747 122.239 186.087 119.286 183.134C116.333 180.181 114.673 176.176 114.67 172V41.2598C114.688 37.093 116.355 33.1028 119.306 30.161C122.258 27.2193 126.253 25.5651 130.42 25.5598H303.02C307.196 25.5651 311.2 27.2258 314.155 30.1781C317.109 33.1304 318.772 37.1334 318.78 41.3098V172C318.772 176.176 317.109 180.179 314.155 183.132C311.2 186.084 307.196 187.745 303.02 187.75V187.75ZM130.42 33.5598C128.365 33.5625 126.396 34.3798 124.943 35.8326C123.49 37.2855 122.673 39.2552 122.67 41.3098V172C122.67 174.055 123.486 176.027 124.94 177.48C126.393 178.933 128.364 179.75 130.42 179.75H303.02C305.076 179.75 307.049 178.934 308.504 177.481C309.959 176.027 310.777 174.056 310.78 172V41.2598C310.775 39.2043 309.955 37.2346 308.501 35.782C307.046 34.3295 305.075 33.5125 303.02 33.5098L130.42 33.5598Z" fill="#3E61AA"/>
<path d="M377.72 264.34H55.72C48.2939 264.34 41.172 261.39 35.921 256.139C30.67 250.888 27.72 243.766 27.72 236.34V28C27.72 20.5739 30.67 13.452 35.921 8.20099C41.172 2.94997 48.2939 0 55.72 0H377.72C385.146 0 392.268 2.94997 397.519 8.20099C402.77 13.452 405.72 20.5739 405.72 28V236.34C405.72 243.766 402.77 250.888 397.519 256.139C392.268 261.39 385.146 264.34 377.72 264.34V264.34ZM55.72 8C50.4156 8 45.3286 10.1071 41.5778 13.8578C37.8271 17.6086 35.72 22.6957 35.72 28V236.34C35.72 241.644 37.8271 246.731 41.5778 250.482C45.3286 254.233 50.4156 256.34 55.72 256.34H377.72C383.024 256.34 388.111 254.233 391.862 250.482C395.613 246.731 397.72 241.644 397.72 236.34V28C397.72 22.6957 395.613 17.6086 391.862 13.8578C388.111 10.1071 383.024 8 377.72 8H55.72Z" fill="#3E61AA"/>
<path d="M377.72 264.34H55.72C48.2939 264.34 41.172 261.39 35.921 256.139C30.67 250.888 27.72 243.766 27.72 236.34V208.67C27.72 207.609 28.1414 206.592 28.8915 205.841C29.6417 205.091 30.6591 204.67 31.72 204.67H401.72C402.781 204.67 403.798 205.091 404.548 205.841C405.299 206.592 405.72 207.609 405.72 208.67V236.34C405.72 243.766 402.77 250.888 397.519 256.139C392.268 261.39 385.146 264.34 377.72 264.34V264.34ZM35.72 212.67V236.34C35.72 241.644 37.8271 246.731 41.5778 250.482C45.3286 254.233 50.4156 256.34 55.72 256.34H377.72C383.024 256.34 388.111 254.233 391.862 250.482C395.613 246.731 397.72 241.644 397.72 236.34V212.67H35.72Z" fill="#3E61AA"/>
<path d="M299.72 350H133.72C129.476 350 125.407 348.314 122.406 345.313C119.406 342.313 117.72 338.243 117.72 334C117.72 329.756 119.406 325.687 122.406 322.686C125.407 319.686 129.476 318 133.72 318H299.72C303.963 318 308.033 319.686 311.034 322.686C314.034 325.687 315.72 329.756 315.72 334C315.72 338.243 314.034 342.313 311.034 345.313C308.033 348.314 303.963 350 299.72 350ZM133.72 326C131.598 326 129.563 326.843 128.063 328.343C126.563 329.843 125.72 331.878 125.72 334C125.72 336.121 126.563 338.156 128.063 339.657C129.563 341.157 131.598 342 133.72 342H299.72C301.842 342 303.877 341.157 305.377 339.657C306.877 338.156 307.72 336.121 307.72 334C307.72 331.878 306.877 329.843 305.377 328.343C303.877 326.843 301.842 326 299.72 326H133.72Z" fill="#3E61AA"/>
<path d="M291.36 326H142.05C141.416 326 140.791 325.848 140.227 325.559C139.663 325.27 139.176 324.85 138.806 324.335C138.435 323.821 138.193 323.225 138.098 322.599C138.003 321.972 138.059 321.331 138.26 320.73L158.9 259.07C159.167 258.274 159.677 257.581 160.359 257.091C161.041 256.602 161.86 256.339 162.7 256.34H270.7C271.538 256.341 272.355 256.605 273.035 257.094C273.715 257.584 274.224 258.275 274.49 259.07L295.14 320.73C295.341 321.331 295.397 321.972 295.302 322.599C295.207 323.225 294.964 323.821 294.594 324.335C294.224 324.85 293.737 325.27 293.173 325.559C292.609 325.848 291.984 326 291.35 326H291.36ZM147.58 318H285.83L267.83 264.34H165.57L147.58 318Z" fill="#3E61AA"/>
<path d="M315.36 468.07H16C11.7565 468.07 7.68688 466.384 4.68629 463.384C1.68571 460.383 0 456.313 0 452.07V376.74C0 372.497 1.68571 368.427 4.68629 365.426C7.68688 362.426 11.7565 360.74 16 360.74H315.36C319.603 360.74 323.673 362.426 326.674 365.426C329.674 368.427 331.36 372.497 331.36 376.74V452.07C331.36 456.313 329.674 460.383 326.674 463.384C323.673 466.384 319.603 468.07 315.36 468.07ZM16.03 368.74C13.9083 368.74 11.8734 369.583 10.3732 371.083C8.87286 372.583 8.03 374.618 8.03 376.74V452.07C8.03 454.192 8.87286 456.227 10.3732 457.727C11.8734 459.227 13.9083 460.07 16.03 460.07H315.36C317.482 460.07 319.517 459.227 321.017 457.727C322.517 456.227 323.36 454.192 323.36 452.07V376.74C323.36 374.618 322.517 372.583 321.017 371.083C319.517 369.583 317.482 368.74 315.36 368.74H16.03Z" fill="#3E61AA"/>
<path d="M46.2598 409.07H37.0598C34.4076 409.07 31.8641 408.016 29.9888 406.141C28.1134 404.266 27.0598 401.722 27.0598 399.07V389.87C27.0598 387.218 28.1134 384.674 29.9888 382.799C31.8641 380.923 34.4076 379.87 37.0598 379.87H46.2598C48.912 379.87 51.4555 380.923 53.3309 382.799C55.2063 384.674 56.2598 387.218 56.2598 389.87V399.07C56.2598 401.722 55.2063 404.266 53.3309 406.141C51.4555 408.016 48.912 409.07 46.2598 409.07V409.07ZM37.0598 387.87C36.5294 387.87 36.0207 388.08 35.6456 388.456C35.2705 388.831 35.0598 389.339 35.0598 389.87V399.07C35.0598 399.6 35.2705 400.109 35.6456 400.484C36.0207 400.859 36.5294 401.07 37.0598 401.07H46.2598C46.7902 401.07 47.299 400.859 47.674 400.484C48.0491 400.109 48.2598 399.6 48.2598 399.07V389.87C48.2598 389.339 48.0491 388.831 47.674 388.456C47.299 388.08 46.7902 387.87 46.2598 387.87H37.0598Z" fill="#3E61AA"/>
<path d="M86.2598 409.07H77.0598C74.4076 409.07 71.8641 408.016 69.9888 406.141C68.1134 404.266 67.0598 401.722 67.0598 399.07V389.87C67.0598 387.218 68.1134 384.674 69.9888 382.799C71.8641 380.923 74.4076 379.87 77.0598 379.87H86.2598C88.912 379.87 91.4555 380.923 93.3309 382.799C95.2063 384.674 96.2598 387.218 96.2598 389.87V399.07C96.2598 401.722 95.2063 404.266 93.3309 406.141C91.4555 408.016 88.912 409.07 86.2598 409.07V409.07ZM77.0598 387.87C76.5294 387.87 76.0207 388.08 75.6456 388.456C75.2705 388.831 75.0598 389.339 75.0598 389.87V399.07C75.0598 399.6 75.2705 400.109 75.6456 400.484C76.0207 400.859 76.5294 401.07 77.0598 401.07H86.2598C86.7902 401.07 87.299 400.859 87.674 400.484C88.0491 400.109 88.2598 399.6 88.2598 399.07V389.87C88.2598 389.339 88.0491 388.831 87.674 388.456C87.299 388.08 86.7902 387.87 86.2598 387.87H77.0598Z" fill="#3E61AA"/>
<path d="M126.26 409.07H117.06C114.408 409.07 111.864 408.016 109.989 406.141C108.113 404.266 107.06 401.722 107.06 399.07V389.87C107.06 387.218 108.113 384.674 109.989 382.799C111.864 380.923 114.408 379.87 117.06 379.87H126.26C128.912 379.87 131.456 380.923 133.331 382.799C135.206 384.674 136.26 387.218 136.26 389.87V399.07C136.26 401.722 135.206 404.266 133.331 406.141C131.456 408.016 128.912 409.07 126.26 409.07ZM117.06 387.87C116.529 387.87 116.021 388.08 115.646 388.456C115.271 388.831 115.06 389.339 115.06 389.87V399.07C115.06 399.6 115.271 400.109 115.646 400.484C116.021 400.859 116.529 401.07 117.06 401.07H126.26C126.79 401.07 127.299 400.859 127.674 400.484C128.049 400.109 128.26 399.6 128.26 399.07V389.87C128.26 389.339 128.049 388.831 127.674 388.456C127.299 388.08 126.79 387.87 126.26 387.87H117.06Z" fill="#3E61AA"/>
<path d="M166.26 409.07H157.06C154.408 409.07 151.864 408.016 149.989 406.141C148.113 404.266 147.06 401.722 147.06 399.07V389.87C147.06 387.218 148.113 384.674 149.989 382.799C151.864 380.923 154.408 379.87 157.06 379.87H166.26C168.912 379.87 171.456 380.923 173.331 382.799C175.206 384.674 176.26 387.218 176.26 389.87V399.07C176.26 401.722 175.206 404.266 173.331 406.141C171.456 408.016 168.912 409.07 166.26 409.07ZM157.06 387.87C156.529 387.87 156.021 388.08 155.646 388.456C155.271 388.831 155.06 389.339 155.06 389.87V399.07C155.06 399.6 155.271 400.109 155.646 400.484C156.021 400.859 156.529 401.07 157.06 401.07H166.26C166.79 401.07 167.299 400.859 167.674 400.484C168.049 400.109 168.26 399.6 168.26 399.07V389.87C168.26 389.339 168.049 388.831 167.674 388.456C167.299 388.08 166.79 387.87 166.26 387.87H157.06Z" fill="#3E61AA"/>
<path d="M206.26 409.07H197.06C194.408 409.07 191.864 408.016 189.989 406.141C188.113 404.266 187.06 401.722 187.06 399.07V389.87C187.06 387.218 188.113 384.674 189.989 382.799C191.864 380.923 194.408 379.87 197.06 379.87H206.26C208.912 379.87 211.456 380.923 213.331 382.799C215.206 384.674 216.26 387.218 216.26 389.87V399.07C216.26 401.722 215.206 404.266 213.331 406.141C211.456 408.016 208.912 409.07 206.26 409.07ZM197.06 387.87C196.529 387.87 196.021 388.08 195.646 388.456C195.271 388.831 195.06 389.339 195.06 389.87V399.07C195.06 399.6 195.271 400.109 195.646 400.484C196.021 400.859 196.529 401.07 197.06 401.07H206.26C206.79 401.07 207.299 400.859 207.674 400.484C208.049 400.109 208.26 399.6 208.26 399.07V389.87C208.26 389.339 208.049 388.831 207.674 388.456C207.299 388.08 206.79 387.87 206.26 387.87H197.06Z" fill="#3E61AA"/>
<path d="M206.26 449.07H197.06C194.408 449.07 191.864 448.016 189.989 446.141C188.113 444.266 187.06 441.722 187.06 439.07V429.87C187.06 427.218 188.113 424.674 189.989 422.799C191.864 420.923 194.408 419.87 197.06 419.87H206.26C208.912 419.87 211.456 420.923 213.331 422.799C215.206 424.674 216.26 427.218 216.26 429.87V439.07C216.26 441.722 215.206 444.266 213.331 446.141C211.456 448.016 208.912 449.07 206.26 449.07ZM197.06 427.87C196.529 427.87 196.021 428.08 195.646 428.456C195.271 428.831 195.06 429.339 195.06 429.87V439.07C195.06 439.6 195.271 440.109 195.646 440.484C196.021 440.859 196.529 441.07 197.06 441.07H206.26C206.79 441.07 207.299 440.859 207.674 440.484C208.049 440.109 208.26 439.6 208.26 439.07V429.87C208.26 429.339 208.049 428.831 207.674 428.456C207.299 428.08 206.79 427.87 206.26 427.87H197.06Z" fill="#3E61AA"/>
<path d="M166.26 449.07H76.8298C74.1777 449.07 71.6341 448.016 69.7588 446.141C67.8834 444.266 66.8298 441.722 66.8298 439.07V429.87C66.8298 427.218 67.8834 424.674 69.7588 422.799C71.6341 420.923 74.1777 419.87 76.8298 419.87H166.26C168.912 419.87 171.456 420.923 173.331 422.799C175.206 424.674 176.26 427.218 176.26 429.87V439.07C176.26 441.722 175.206 444.266 173.331 446.141C171.456 448.016 168.912 449.07 166.26 449.07ZM76.8298 427.87C76.2994 427.87 75.7907 428.08 75.4156 428.456C75.0405 428.831 74.8298 429.339 74.8298 429.87V439.07C74.8298 439.6 75.0405 440.109 75.4156 440.484C75.7907 440.859 76.2994 441.07 76.8298 441.07H166.26C166.79 441.07 167.299 440.859 167.674 440.484C168.049 440.109 168.26 439.6 168.26 439.07V429.87C168.26 429.339 168.049 428.831 167.674 428.456C167.299 428.08 166.79 427.87 166.26 427.87H76.8298Z" fill="#3E61AA"/>
<path d="M46.2598 449.07H37.0598C34.4076 449.07 31.8641 448.016 29.9888 446.141C28.1134 444.266 27.0598 441.722 27.0598 439.07V429.87C27.0598 427.218 28.1134 424.674 29.9888 422.799C31.8641 420.923 34.4076 419.87 37.0598 419.87H46.2598C48.912 419.87 51.4555 420.923 53.3309 422.799C55.2063 424.674 56.2598 427.218 56.2598 429.87V439.07C56.2598 441.722 55.2063 444.266 53.3309 446.141C51.4555 448.016 48.912 449.07 46.2598 449.07V449.07ZM37.0598 427.87C36.5294 427.87 36.0207 428.08 35.6456 428.456C35.2705 428.831 35.0598 429.339 35.0598 429.87V439.07C35.0598 439.6 35.2705 440.109 35.6456 440.484C36.0207 440.859 36.5294 441.07 37.0598 441.07H46.2598C46.7902 441.07 47.299 440.859 47.674 440.484C48.0491 440.109 48.2598 439.6 48.2598 439.07V429.87C48.2598 429.339 48.0491 428.831 47.674 428.456C47.299 428.08 46.7902 427.87 46.2598 427.87H37.0598Z" fill="#3E61AA"/>
<path d="M294.26 409.07H285.06C282.408 409.07 279.864 408.016 277.989 406.141C276.113 404.266 275.06 401.722 275.06 399.07V389.87C275.06 387.218 276.113 384.674 277.989 382.799C279.864 380.923 282.408 379.87 285.06 379.87H294.26C296.912 379.87 299.456 380.923 301.331 382.799C303.206 384.674 304.26 387.218 304.26 389.87V399.07C304.26 401.722 303.206 404.266 301.331 406.141C299.456 408.016 296.912 409.07 294.26 409.07V409.07ZM285.06 387.87C284.529 387.87 284.021 388.08 283.646 388.456C283.271 388.831 283.06 389.339 283.06 389.87V399.07C283.06 399.6 283.271 400.109 283.646 400.484C284.021 400.859 284.529 401.07 285.06 401.07H294.26C294.79 401.07 295.299 400.859 295.674 400.484C296.049 400.109 296.26 399.6 296.26 399.07V389.87C296.26 389.339 296.049 388.831 295.674 388.456C295.299 388.08 294.79 387.87 294.26 387.87H285.06Z" fill="#3E61AA"/>
<path d="M294.26 449.07H285.06C282.408 449.07 279.864 448.016 277.989 446.141C276.113 444.266 275.06 441.722 275.06 439.07V429.87C275.06 427.218 276.113 424.674 277.989 422.799C279.864 420.923 282.408 419.87 285.06 419.87H294.26C296.912 419.87 299.456 420.923 301.331 422.799C303.206 424.674 304.26 427.218 304.26 429.87V439.07C304.26 441.722 303.206 444.266 301.331 446.141C299.456 448.016 296.912 449.07 294.26 449.07V449.07ZM285.06 427.87C284.529 427.87 284.021 428.08 283.646 428.456C283.271 428.831 283.06 429.339 283.06 429.87V439.07C283.06 439.6 283.271 440.109 283.646 440.484C284.021 440.859 284.529 441.07 285.06 441.07H294.26C294.79 441.07 295.299 440.859 295.674 440.484C296.049 440.109 296.26 439.6 296.26 439.07V429.87C296.26 429.339 296.049 428.831 295.674 428.456C295.299 428.08 294.79 427.87 294.26 427.87H285.06Z" fill="#3E61AA"/>
<path d="M252.98 409.07H239.71C237.058 409.07 234.514 408.016 232.639 406.141C230.764 404.266 229.71 401.722 229.71 399.07V389.87C229.71 387.218 230.764 384.674 232.639 382.799C234.514 380.923 237.058 379.87 239.71 379.87H252.98C255.632 379.87 258.176 380.923 260.051 382.799C261.926 384.674 262.98 387.218 262.98 389.87V399.07C262.98 401.722 261.926 404.266 260.051 406.141C258.176 408.016 255.632 409.07 252.98 409.07ZM239.71 387.87C239.18 387.87 238.671 388.08 238.296 388.456C237.921 388.831 237.71 389.339 237.71 389.87V399.07C237.71 399.6 237.921 400.109 238.296 400.484C238.671 400.859 239.18 401.07 239.71 401.07H252.98C253.51 401.07 254.019 400.859 254.394 400.484C254.769 400.109 254.98 399.6 254.98 399.07V389.87C254.98 389.339 254.769 388.831 254.394 388.456C254.019 388.08 253.51 387.87 252.98 387.87H239.71Z" fill="#3E61AA"/>
<path d="M252.98 449.07H239.71C237.058 449.07 234.514 448.016 232.639 446.141C230.764 444.266 229.71 441.722 229.71 439.07V429.87C229.71 427.218 230.764 424.674 232.639 422.799C234.514 420.923 237.058 419.87 239.71 419.87H252.98C255.632 419.87 258.176 420.923 260.051 422.799C261.926 424.674 262.98 427.218 262.98 429.87V439.07C262.98 441.722 261.926 444.266 260.051 446.141C258.176 448.016 255.632 449.07 252.98 449.07ZM239.71 427.87C239.18 427.87 238.671 428.08 238.296 428.456C237.921 428.831 237.71 429.339 237.71 429.87V439.07C237.71 439.6 237.921 440.109 238.296 440.484C238.671 440.859 239.18 441.07 239.71 441.07H252.98C253.51 441.07 254.019 440.859 254.394 440.484C254.769 440.109 254.98 439.6 254.98 439.07V429.87C254.98 429.339 254.769 428.831 254.394 428.456C254.019 428.08 253.51 427.87 252.98 427.87H239.71Z" fill="#3E61AA"/>
<path d="M235.27 88.5598H151.1C149.111 88.5598 147.203 87.7696 145.797 86.3631C144.39 84.9566 143.6 83.0489 143.6 81.0598C143.6 79.0707 144.39 77.1631 145.797 75.7565C147.203 74.35 149.111 73.5598 151.1 73.5598H235.27C237.259 73.5598 239.167 74.35 240.573 75.7565C241.98 77.1631 242.77 79.0707 242.77 81.0598C242.77 83.0489 241.98 84.9566 240.573 86.3631C239.167 87.7696 237.259 88.5598 235.27 88.5598Z" fill="#3E61AA"/>
<path d="M235.27 113.01H151.1C149.111 113.01 147.203 112.22 145.797 110.813C144.39 109.407 143.6 107.499 143.6 105.51C143.6 103.521 144.39 101.613 145.797 100.207C147.203 98.8002 149.111 98.01 151.1 98.01H235.27C237.259 98.01 239.167 98.8002 240.573 100.207C241.98 101.613 242.77 103.521 242.77 105.51C242.77 107.499 241.98 109.407 240.573 110.813C239.167 112.22 237.259 113.01 235.27 113.01Z" fill="#3E61AA"/>
<path d="M235.27 137.5H151.1C149.111 137.5 147.203 136.71 145.797 135.303C144.39 133.897 143.6 131.989 143.6 130C143.6 128.011 144.39 126.103 145.797 124.697C147.203 123.29 149.111 122.5 151.1 122.5H235.27C237.259 122.5 239.167 123.29 240.573 124.697C241.98 126.103 242.77 128.011 242.77 130C242.77 131.989 241.98 133.897 240.573 135.303C239.167 136.71 237.259 137.5 235.27 137.5Z" fill="#3E61AA"/>
<path d="M301.36 88.5598H258C256.011 88.5598 254.103 87.7696 252.697 86.3631C251.29 84.9566 250.5 83.0489 250.5 81.0598C250.5 79.0707 251.29 77.1631 252.697 75.7565C254.103 74.35 256.011 73.5598 258 73.5598H301.36C303.349 73.5598 305.257 74.35 306.663 75.7565C308.07 77.1631 308.86 79.0707 308.86 81.0598C308.86 83.0489 308.07 84.9566 306.663 86.3631C305.257 87.7696 303.349 88.5598 301.36 88.5598Z" fill="#3E61AA"/>
<path d="M301.36 113.01H258C256.011 113.01 254.103 112.22 252.697 110.813C251.29 109.407 250.5 107.499 250.5 105.51C250.5 103.521 251.29 101.613 252.697 100.207C254.103 98.8002 256.011 98.01 258 98.01H301.36C303.349 98.01 305.257 98.8002 306.663 100.207C308.07 101.613 308.86 103.521 308.86 105.51C308.86 107.499 308.07 109.407 306.663 110.813C305.257 112.22 303.349 113.01 301.36 113.01Z" fill="#3E61AA"/>
<path d="M301.36 137.5H258C256.011 137.5 254.103 136.71 252.697 135.303C251.29 133.897 250.5 131.989 250.5 130C250.5 128.011 251.29 126.103 252.697 124.697C254.103 123.29 256.011 122.5 258 122.5H301.36C303.349 122.5 305.257 123.29 306.663 124.697C308.07 126.103 308.86 128.011 308.86 130C308.86 131.989 308.07 133.897 306.663 135.303C305.257 136.71 303.349 137.5 301.36 137.5Z" fill="#3E61AA"/>
</svg>
