<svg width="513" height="327" viewBox="0 0 513 327" fill="none" xmlns="http://www.w3.org/2000/svg">
<path d="M380.15 150.08H327.19L336.02 105.94H371.33L380.15 150.08Z" fill="#B0B9D2"/>
<path d="M433.12 123.6H274.21C271.868 123.6 269.622 122.67 267.966 121.014C266.31 119.358 265.38 117.112 265.38 114.77V8.84003C265.38 6.49817 266.31 4.2522 267.966 2.59625C269.622 0.940306 271.868 0.0100098 274.21 0.0100098H433.1C435.442 0.0100098 437.688 0.940306 439.344 2.59625C441 4.2522 441.93 6.49817 441.93 8.84003V114.77C441.93 117.108 441.002 119.351 439.351 121.007C437.699 122.662 435.458 123.595 433.12 123.6Z" fill="#E1EBF8"/>
<path d="M433.12 0.0100098H274.21C271.868 0.0100098 269.622 0.940306 267.966 2.59625C266.31 4.2522 265.38 6.49817 265.38 8.84003V105.94H441.93V8.84003C441.93 6.50163 441.002 4.25871 439.351 2.60333C437.699 0.94796 435.458 0.0153063 433.12 0.0100098Z" fill="#3E61AA"/>
<path d="M424.29 17.6599H283.05V88.28H424.29V17.6599Z" fill="#7CC9D1"/>
<path d="M486.09 150.08H150.64V185.39H486.09V150.08Z" fill="#E1EBF8"/>
<path d="M486.09 326.63C483.748 326.63 481.502 325.7 479.846 324.044C478.19 322.388 477.26 320.142 477.26 317.8V150.13H494.91V317.85C494.899 320.182 493.965 322.415 492.312 324.061C490.66 325.706 488.422 326.63 486.09 326.63Z" fill="#E1EBF8"/>
<path d="M150.64 326.63H27.0499C25.8908 326.63 24.7431 326.401 23.6724 325.958C22.6016 325.514 21.6288 324.863 20.8097 324.043C19.9906 323.223 19.3411 322.249 18.8984 321.178C18.4558 320.107 18.2287 318.959 18.23 317.8V150.13H159.47V317.85C159.457 320.183 158.521 322.416 156.866 324.061C155.212 325.706 152.973 326.63 150.64 326.63V326.63Z" fill="#E1EBF8"/>
<path d="M503.74 158.91H9.39978C7.05792 158.91 4.81207 157.98 3.15613 156.324C1.50018 154.668 0.569824 152.422 0.569824 150.08V150.08C0.569824 147.738 1.50018 145.492 3.15613 143.836C4.81207 142.18 7.05792 141.25 9.39978 141.25H503.74C506.082 141.25 508.328 142.18 509.984 143.836C511.64 145.492 512.57 147.738 512.57 150.08V150.08C512.57 152.422 511.64 154.668 509.984 156.324C508.328 157.98 506.082 158.91 503.74 158.91V158.91Z" fill="#486EB5"/>
<path d="M159.46 203.04H18.22V220.69H159.46V203.04Z" fill="#A8C6E9"/>
<path d="M101.05 176.56H76.6498C75.0097 176.561 73.4019 176.104 72.0066 175.242C70.6112 174.38 69.4836 173.147 68.7499 171.68L62.3599 158.91H115.36L108.97 171.68C108.236 173.151 107.105 174.387 105.706 175.249C104.306 176.111 102.694 176.566 101.05 176.56V176.56Z" fill="#3E61AA"/>
<path d="M101.05 300.13H76.6498C75.0097 300.131 73.4019 299.674 72.0066 298.812C70.6112 297.95 69.4836 296.717 68.7499 295.25L62.3599 282.47H115.36L108.97 295.25C108.236 296.721 107.105 297.957 105.706 298.819C104.306 299.681 102.694 300.135 101.05 300.13Z" fill="#3E61AA"/>
<path d="M101.05 238.35H76.6498C75.0097 238.35 73.4019 237.894 72.0066 237.032C70.6112 236.17 69.4836 234.937 68.7499 233.47L62.3599 220.7H115.36L108.97 233.47C108.236 234.941 107.105 236.177 105.706 237.039C104.306 237.901 102.694 238.355 101.05 238.35V238.35Z" fill="#3E61AA"/>
<path d="M159.46 264.83H18.22V282.48H159.46V264.83Z" fill="#A8C6E9"/>
<path d="M227.88 141.25H144.02C143.434 141.25 142.872 141.017 142.457 140.603C142.043 140.188 141.81 139.626 141.81 139.04V125.8C141.81 125.51 141.867 125.224 141.979 124.956C142.09 124.688 142.253 124.445 142.458 124.241C142.663 124.037 142.907 123.875 143.175 123.765C143.443 123.655 143.73 123.599 144.02 123.6H227.88C228.17 123.599 228.457 123.655 228.725 123.765C228.993 123.875 229.237 124.037 229.442 124.241C229.647 124.445 229.81 124.688 229.922 124.956C230.033 125.224 230.09 125.51 230.09 125.8V139.04C230.09 139.626 229.857 140.188 229.443 140.603C229.028 141.017 228.466 141.25 227.88 141.25Z" fill="#707588"/>
<path d="M227.88 105.94H152.88C152.59 105.94 152.302 105.883 152.034 105.772C151.766 105.661 151.522 105.498 151.317 105.293C151.112 105.088 150.949 104.844 150.838 104.576C150.727 104.308 150.67 104.02 150.67 103.73V90.4901C150.67 90.2003 150.727 89.9135 150.838 89.6459C150.95 89.3783 151.113 89.1354 151.318 88.9309C151.523 88.7265 151.767 88.5646 152.035 88.4547C152.303 88.3447 152.59 88.2887 152.88 88.2901H227.88C228.17 88.2887 228.457 88.3447 228.725 88.4547C228.993 88.5646 229.237 88.7265 229.442 88.9309C229.647 89.1354 229.81 89.3783 229.922 89.6459C230.033 89.9135 230.09 90.2003 230.09 90.4901V103.73C230.09 104.316 229.857 104.878 229.443 105.293C229.028 105.707 228.466 105.94 227.88 105.94V105.94Z" fill="#B0B9D2"/>
<path d="M236.71 123.6H161.71C161.126 123.597 160.566 123.363 160.154 122.949C159.741 122.535 159.51 121.974 159.51 121.39V108.13C159.51 107.546 159.741 106.985 160.154 106.571C160.566 106.157 161.126 105.923 161.71 105.92H236.71C237.296 105.92 237.858 106.153 238.273 106.567C238.687 106.982 238.92 107.544 238.92 108.13V121.37C238.923 121.662 238.867 121.951 238.758 122.222C238.648 122.492 238.485 122.738 238.28 122.946C238.074 123.153 237.83 123.317 237.56 123.43C237.291 123.542 237.002 123.6 236.71 123.6V123.6Z" fill="#C8CFE2"/>
<path d="M44.7098 141.25C42.368 141.25 40.122 140.32 38.4661 138.664C36.8101 137.008 35.8799 134.762 35.8799 132.42V61.8001C35.8803 60.6408 36.1093 59.493 36.5537 58.4222C36.9981 57.3515 37.6492 56.3789 38.4698 55.5601L66.0199 28.0101C69.2946 24.7162 73.1907 22.1052 77.4822 20.3285C81.7737 18.5518 86.3752 17.6448 91.0199 17.6601H106.53C108.872 17.6601 111.118 18.5904 112.774 20.2463C114.43 21.9023 115.36 24.1482 115.36 26.4901V52.9701C115.36 55.312 114.43 57.5579 112.774 59.2138C111.118 60.8698 108.872 61.8001 106.53 61.8001C104.188 61.8001 101.942 60.8698 100.286 59.2138C98.6302 57.5579 97.6998 55.312 97.6998 52.9701V35.3201H91.0199C88.6998 35.3145 86.4014 35.7685 84.2577 36.6558C82.114 37.5432 80.1672 38.8463 78.5298 40.4901L53.5298 65.4901V132.49C53.5113 134.818 52.5743 137.045 50.9225 138.685C49.2707 140.326 47.0379 141.248 44.7098 141.25V141.25Z" fill="#C8CFE2"/>
<path d="M97.6699 52.97H115.33C120.012 52.9726 124.501 54.8344 127.811 58.146C131.121 61.4576 132.98 65.948 132.98 70.6299V77.2499C132.981 77.5397 132.925 77.8268 132.815 78.0949C132.705 78.363 132.544 78.6067 132.339 78.8121C132.135 79.0174 131.892 79.1803 131.624 79.2915C131.357 79.4027 131.07 79.46 130.78 79.46H82.21C81.6238 79.46 81.0617 79.2271 80.6472 78.8126C80.2328 78.3982 80 77.8361 80 77.2499V70.6299C80 68.31 80.4571 66.0127 81.3452 63.8694C82.2333 61.7262 83.5351 59.7789 85.176 58.1389C86.817 56.4989 88.7649 55.1983 90.9087 54.3113C93.0525 53.4244 95.3499 52.9687 97.6699 52.97V52.97Z" fill="#B0B9D2"/>
<path d="M27.0498 141.25H88.8499V132.42C88.8472 130.079 87.916 127.835 86.2606 126.179C84.6052 124.524 82.3609 123.593 80.0199 123.59H35.8799C33.5388 123.593 31.2944 124.524 29.639 126.179C27.9837 127.835 27.0525 130.079 27.0498 132.42V141.25Z" fill="#B0B9D2"/>
<path d="M106.5 35.3199C111.377 35.3199 115.33 31.3666 115.33 26.4899C115.33 21.6133 111.377 17.6599 106.5 17.6599C101.623 17.6599 97.6699 21.6133 97.6699 26.4899C97.6699 31.3666 101.623 35.3199 106.5 35.3199Z" fill="#959CB3"/>
<path d="M44.7001 70.63C49.5767 70.63 53.5302 66.6767 53.5302 61.8C53.5302 56.9233 49.5767 52.97 44.7001 52.97C39.8234 52.97 35.8701 56.9233 35.8701 61.8C35.8701 66.6767 39.8234 70.63 44.7001 70.63Z" fill="#959CB3"/>
</svg>
