<svg width="513" height="283" viewBox="0 0 513 283" fill="none" xmlns="http://www.w3.org/2000/svg">
<path d="M461.37 222.58H444.3V273.78H461.37V222.58Z" fill="#8D6051"/>
<path d="M486.97 205.51C486.817 214.462 483.153 222.996 476.768 229.272C470.383 235.549 461.788 239.066 452.835 239.066C443.882 239.066 435.287 235.549 428.902 229.272C422.517 222.996 418.853 214.462 418.7 205.51C418.7 145.78 433.99 68.98 452.84 68.98C471.69 68.98 486.97 145.78 486.97 205.51Z" fill="#A2C859"/>
<path d="M444.3 205.51C444.3 156.51 452.02 96.13 462.59 75.96C459.5 71.54 456.23 68.96 452.84 68.96C433.99 68.96 418.7 145.76 418.7 205.49C418.63 210.825 419.828 216.1 422.196 220.882C424.563 225.663 428.033 229.814 432.318 232.992C436.604 236.171 441.583 238.286 446.846 239.163C452.109 240.041 457.505 239.656 462.59 238.04C452.04 233.84 444.3 220.95 444.3 205.51Z" fill="#8CBF4C"/>
<path d="M256.57 188.44H239.5V231.11H256.57V188.44Z" fill="#969DB6"/>
<path d="M376.04 188.44H358.97V231.11H376.04V188.44Z" fill="#969DB6"/>
<path d="M290.7 111.64H273.63V273.77H290.7V111.64Z" fill="#8D6051"/>
<path d="M128.57 205.51H111.5V273.78H128.57V205.51Z" fill="#8D6051"/>
<path d="M68.84 222.58H51.77V273.78H68.84V222.58Z" fill="#8D6051"/>
<path d="M196.84 196.98C194.578 196.98 192.408 197.879 190.808 199.478C189.209 201.078 188.31 203.248 188.31 205.51C188.31 207.772 189.209 209.942 190.808 211.542C192.408 213.141 194.578 214.04 196.84 214.04C199.103 214.043 201.273 214.944 202.872 216.545C204.472 218.146 205.37 220.317 205.37 222.58V273.78H222.44V222.58C222.432 215.793 219.732 209.286 214.933 204.487C210.134 199.688 203.627 196.988 196.84 196.98Z" fill="#486EB5"/>
<path d="M418.7 196.98C411.913 196.988 405.406 199.688 400.607 204.487C395.808 209.286 393.108 215.793 393.1 222.58V273.78H410.21V222.58C410.213 220.318 411.112 218.148 412.711 216.548C414.31 214.947 416.478 214.045 418.74 214.04C421.002 214.04 423.172 213.141 424.772 211.542C426.371 209.942 427.27 207.772 427.27 205.51C427.27 203.248 426.371 201.078 424.772 199.478C423.172 197.879 421.002 196.98 418.74 196.98H418.7Z" fill="#486EB5"/>
<path d="M179.77 162.84C179.77 178.681 173.477 193.874 162.276 205.075C151.074 216.277 135.881 222.57 120.04 222.57C104.199 222.57 89.0061 216.277 77.8046 205.075C66.603 193.874 60.3101 178.681 60.3101 162.84C60.3101 86.04 87.0501 0.709961 120.04 0.709961C153.03 0.709961 179.77 86.04 179.77 162.84Z" fill="#A2C859"/>
<path d="M111.5 191.4C111.5 218.04 88.5801 239.64 60.3001 239.64C32.0201 239.64 9.1001 218.04 9.1001 191.4C9.1001 129.4 32.0301 60.3999 60.3001 60.3999C88.5701 60.3999 111.5 129.37 111.5 191.4Z" fill="#A2C859"/>
<path d="M282.17 128.71C315.158 128.71 341.9 101.968 341.9 68.98C341.9 35.992 315.158 9.25 282.17 9.25C249.182 9.25 222.44 35.992 222.44 68.98C222.44 101.968 249.182 128.71 282.17 128.71Z" fill="#A2C859"/>
<path d="M504.04 282.31H9.1001C6.88704 282.234 4.78993 281.302 3.25116 279.709C1.71239 278.117 0.852295 275.989 0.852295 273.775C0.852295 271.561 1.71239 269.433 3.25116 267.841C4.78993 266.248 6.88704 265.316 9.1001 265.24H504.04C506.253 265.316 508.35 266.248 509.889 267.841C511.428 269.433 512.288 271.561 512.288 273.775C512.288 275.989 511.428 278.117 509.889 279.709C508.35 281.302 506.253 282.234 504.04 282.31Z" fill="#B4D16F"/>
<path d="M94.44 162.84C94.44 92.79 109.27 15.67 128.57 2.65997C125.899 1.40664 122.99 0.741627 120.04 0.709961C87.04 0.709961 60.31 86.04 60.31 162.84C60.2462 171.422 62.0459 179.916 65.5849 187.734C69.1239 195.553 74.3179 202.51 80.808 208.125C87.2982 213.741 94.9298 217.881 103.176 220.259C111.422 222.637 120.086 223.197 128.57 221.9C109.28 217.75 94.44 192.93 94.44 162.84Z" fill="#8CBF4C"/>
<path d="M43.2101 191.4C43.2101 135.4 54.1101 74 68.3601 62.52C65.8527 61.2403 63.0937 60.53 60.2801 60.4399C32.0001 60.4399 9.08008 129.37 9.08008 191.44C9.08008 218.08 32.0001 239.68 60.2801 239.68C62.9862 239.663 65.6872 239.443 68.3601 239.02C54.1401 235.32 43.2101 215.44 43.2101 191.4Z" fill="#8CBF4C"/>
<path d="M256.57 68.9798C256.572 56.1221 260.723 43.6083 268.405 33.2977C276.087 22.9872 286.89 15.4303 299.21 11.7499C290.29 9.07648 280.869 8.52522 271.699 10.1401C262.528 11.7549 253.862 15.4911 246.392 21.0505C238.922 26.6099 232.855 33.8386 228.675 42.1595C224.496 50.4804 222.319 59.6631 222.319 68.9748C222.319 78.2865 224.496 87.4693 228.675 95.7903C232.855 104.111 238.922 111.34 246.392 116.899C253.862 122.459 262.528 126.195 271.699 127.81C280.869 129.425 290.29 128.873 299.21 126.2C286.89 122.523 276.086 114.968 268.404 104.659C260.722 94.3498 256.571 81.8366 256.57 68.9798V68.9798Z" fill="#8CBF4C"/>
<path d="M376.04 196.98H239.5C238.379 196.98 237.269 196.759 236.233 196.33C235.198 195.9 234.257 195.271 233.465 194.478C232.673 193.685 232.044 192.743 231.616 191.707C231.188 190.671 230.969 189.561 230.97 188.44V171.38C230.969 170.259 231.188 169.149 231.616 168.113C232.044 167.077 232.673 166.135 233.465 165.342C234.257 164.549 235.198 163.92 236.233 163.49C237.269 163.061 238.379 162.84 239.5 162.84H376.04C378.303 162.843 380.473 163.744 382.072 165.345C383.672 166.946 384.57 169.117 384.57 171.38V188.44C384.571 189.561 384.352 190.671 383.924 191.707C383.495 192.743 382.867 193.685 382.075 194.478C381.283 195.271 380.342 195.9 379.307 196.33C378.271 196.759 377.161 196.98 376.04 196.98V196.98Z" fill="#7CC9D1"/>
<path d="M401.64 239.64H213.9C211.638 239.64 209.468 238.741 207.869 237.142C206.269 235.542 205.37 233.372 205.37 231.11C205.37 228.848 206.269 226.678 207.869 225.078C209.468 223.479 211.638 222.58 213.9 222.58H401.64C403.902 222.58 406.072 223.479 407.672 225.078C409.271 226.678 410.17 228.848 410.17 231.11C410.17 233.372 409.271 235.542 407.672 237.142C406.072 238.741 403.902 239.64 401.64 239.64V239.64Z" fill="#7CC9D1"/>
</svg>
