<svg class="comillas" viewBox="0 0 128 96" xmlns="http://www.w3.org/2000/svg">
<path d="M51.6359 75.9461C51.6359 81.8025 49.3732 86.594 44.8479 90.3207C40.5887 93.7813 34.8655 95.5116 27.6782 95.5116C20.7571 95.5116 14.5015 92.1841 8.91133 85.5292C3.3212 78.8743 0.526131 70.2229 0.526131 59.575C0.526131 48.9272 5.31767 38.0131 14.9008 26.8328C24.4838 15.6526 39.1247 6.86809 58.8232 0.47937L62.4169 9.26384C33.6676 22.3075 19.293 39.8765 19.293 61.9708C23.0198 57.9778 27.5451 55.9814 32.869 55.9814C38.193 55.9814 42.5852 57.8448 46.0458 61.5715C49.7725 65.2983 51.6359 70.0898 51.6359 75.9461ZM116.721 75.9461C116.721 81.8025 114.458 86.594 109.933 90.3207C105.674 93.7813 99.9506 95.5116 92.7633 95.5116C85.8422 95.5116 79.5866 92.1841 73.9964 85.5292C68.4063 78.8743 65.6112 70.2229 65.6112 59.575C65.6112 48.9272 70.4028 38.0131 79.9858 26.8328C89.5689 15.6526 104.21 6.86809 123.908 0.47937L127.502 9.26384C98.7527 22.3075 84.3781 39.8765 84.3781 61.9708C88.1048 57.9778 92.6302 55.9814 97.9541 55.9814C103.278 55.9814 107.67 57.8448 111.131 61.5715C114.858 65.2983 116.721 70.0898 116.721 75.9461Z"/>
</svg>
