<svg width="38" height="28" viewBox="0 0 38 28" fill="none" xmlns="http://www.w3.org/2000/svg">
<path d="M2.89439 0.26738H16.3349C17.0478 0.26738 17.7315 0.55059 18.2356 1.05471C18.7398 1.55882 19.023 2.24255 19.023 2.95547C19.023 3.6684 18.7398 4.35213 18.2356 4.85624C17.7315 5.36036 17.0478 5.64357 16.3349 5.64357H2.89439C2.18147 5.64357 1.49774 5.36036 0.993624 4.85624C0.489509 4.35213 0.206299 3.6684 0.206299 2.95547C0.206299 2.24255 0.489509 1.55882 0.993624 1.05471C1.49774 0.55059 2.18147 0.26738 2.89439 0.26738ZM21.7111 21.7721H35.1515C35.8645 21.7721 36.5482 22.0553 37.0523 22.5595C37.5564 23.0636 37.8396 23.7473 37.8396 24.4602C37.8396 25.1732 37.5564 25.8569 37.0523 26.361C36.5482 26.8651 35.8645 27.1483 35.1515 27.1483H21.7111C20.9981 27.1483 20.3144 26.8651 19.8103 26.361C19.3062 25.8569 19.023 25.1732 19.023 24.4602C19.023 23.7473 19.3062 23.0636 19.8103 22.5595C20.3144 22.0553 20.9981 21.7721 21.7111 21.7721ZM2.89439 11.0198H35.1515C35.8645 11.0198 36.5482 11.303 37.0523 11.8071C37.5564 12.3112 37.8396 12.9949 37.8396 13.7079C37.8396 14.4208 37.5564 15.1045 37.0523 15.6086C36.5482 16.1127 35.8645 16.396 35.1515 16.396H2.89439C2.18147 16.396 1.49774 16.1127 0.993624 15.6086C0.489509 15.1045 0.206299 14.4208 0.206299 13.7079C0.206299 12.9949 0.489509 12.3112 0.993624 11.8071C1.49774 11.303 2.18147 11.0198 2.89439 11.0198Z" fill="#5E3656"/>
</svg>
