<svg xmlns="http://www.w3.org/2000/svg" xmlns:xlink="http://www.w3.org/1999/xlink" viewBox="0 0 792 634.46"><defs><style>.cls-1,.cls-2,.cls-6{fill:#4b2e83;}.cls-1,.cls-4{clip-rule:evenodd;}.cls-3,.cls-4,.cls-5{fill:none;}.cls-5,.cls-6{fill-rule:evenodd;}.cls-7{clip-path:url(#clip-path);}.cls-8{clip-path:url(#clip-path-2);}.cls-9{clip-path:url(#clip-path-3);}.cls-10{clip-path:url(#clip-path-4);}.cls-11{fill:#fff;}.cls-12{fill:#f3de61;}.cls-13{clip-path:url(#clip-path-5);}.cls-14{isolation:isolate;}.cls-15{clip-path:url(#clip-path-7);}.cls-16{clip-path:url(#clip-path-8);}.cls-17{clip-path:url(#clip-path-9);}.cls-18{fill:#920089;}.cls-19{clip-path:url(#clip-path-12);}.cls-20{clip-path:url(#clip-path-13);}.cls-21{clip-path:url(#clip-path-15);}.cls-22{clip-path:url(#clip-path-17);}.cls-23{clip-path:url(#clip-path-18);}.cls-24{fill:#f05e6e;}.cls-25{clip-path:url(#clip-path-22);}.cls-26{clip-path:url(#clip-path-23);}.cls-27{clip-path:url(#clip-path-27);}.cls-28{clip-path:url(#clip-path-28);}.cls-29{clip-path:url(#clip-path-30);}.cls-30{clip-path:url(#clip-path-32);}.cls-31{clip-path:url(#clip-path-33);}</style><clipPath id="clip-path" transform="translate(-45.17 -42.4)"><path class="cls-1" d="M223.67,63.59H783.94a19.87,19.87,0,0,1,19.87,19.86L767.37,631a19.87,19.87,0,0,1-19.87,19.87l-496,18.39a19.87,19.87,0,0,1-19.86-19.87L203.81,83.45A19.86,19.86,0,0,1,223.67,63.59Z"/></clipPath><clipPath id="clip-path-2" transform="translate(-45.17 -42.4)"><rect class="cls-2" x="203.81" y="63.59" width="600" height="600"/></clipPath><clipPath id="clip-path-3" transform="translate(-45.17 -42.4)"><path class="cls-4" d="M384.17,117c2.43-.17,201-1.5,229.83-2a6.79,6.79,0,0,1,.9,0c36.68,4.84,13.65,65.43-19.61,65.43-37-.44-69.19-2.1-90.6-2.4a6.06,6.06,0,0,0-6.15,6.09c.07,25.07.38,115.7.46,140.2a6.07,6.07,0,0,0,6.16,6.05c32.12-.45,65.77-.86,84.23-.39,18.18.48,26,12.7,26,24.43,0,13.68-12.27,25.41-34.86,26.88-32.65,2.5-62.44,4.28-76.31,5.37a6.07,6.07,0,0,0-5.6,6.2c.62,24.67,3.4,119.7,4.12,144.33a6.09,6.09,0,0,0,6,5.9c17.72.09,71.76.28,109.07-.53,38.8-1,36.84,57.18-.49,58.16-33.74.87-180,5.24-211.24,6.18a6.07,6.07,0,0,1-6.24-5.68L385.55,381.37s-8.67-261.91-8.67-257.66c0,0-.2-3.16,1.82-4.86A8.87,8.87,0,0,1,384.17,117Z"/></clipPath><clipPath id="clip-path-4" transform="translate(-45.17 -42.4)"><rect class="cls-3" width="1010.74" height="1010.74"/></clipPath><clipPath id="clip-path-5" transform="translate(-45.17 -42.4)"><path class="cls-4" d="M382.89,116.39a6.08,6.08,0,0,0-6,6.27L385,381.15,398.24,601.7a6.08,6.08,0,0,0,6.23,5.71c31-.85,175.46-4.84,208.8-5.72,36.91-1,39.34-59.3.48-58.32-36.82.41-90.14.15-107.76,0a6.08,6.08,0,0,1-6-5.92L496.35,393a6.08,6.08,0,0,1,5.35-6.19c10.08-1.23,34.41-3.71,75.63-5.15,41.76-1.47,46.62-49,8.25-51.46-13.23-1-17.4-.57-28.76-.12-9.72.39-24.7.78-55.12.24a6.09,6.09,0,0,1-6-6.08v-140a6.08,6.08,0,0,1,6.41-6.07c15.73.86,57.34,2.87,89.76,2.09,33-.49,56.33-61.27,19.42-65.67-5.15-.4-17.65-.56-34.33-.56C518.88,114,409.86,115.9,382.89,116.39Z"/></clipPath><clipPath id="clip-path-7" transform="translate(-45.17 -42.4)"><rect class="cls-3" x="393.56" y="125.22" width="93.92" height="156.53"/></clipPath><clipPath id="clip-path-8" transform="translate(-45.17 -42.4)"><path class="cls-4" d="M451.05,213.05c19.91-4.9,33-22.05,33-43.13,0-24.5-19.92-44.6-44.2-44.6s-44.2,20.1-44.2,44.6c0,21.57,15.06,39.7,35.46,43.62v18.63H412.68v20.09h18.46v28.43h19.91V252.75h21.37V232.66H451.05Z"/></clipPath><clipPath id="clip-path-9" transform="translate(-45.17 -42.4)"><rect class="cls-3" x="375.67" y="111.81" width="277.28" height="496.42"/></clipPath><clipPath id="clip-path-12" transform="translate(-45.17 -42.4)"><rect class="cls-3" x="317.53" y="290.7" width="143.11" height="241.5"/></clipPath><clipPath id="clip-path-13" transform="translate(-45.17 -42.4)"><path class="cls-4" d="M407.82,423.79a67,67,0,0,0,47.6-66.16c-1.46-36.76-32.05-65.67-68.48-64.7-36.43,1.47-65.08,32.35-64.11,69.6a66.85,66.85,0,0,0,55.85,63.71l1,27.45-29.63,1,1,29.89,29.63-1,1.45,44.6,29.63-1-1.94-45.58,31.57-1-1-29.9-31.57,1.48Z"/></clipPath><clipPath id="clip-path-15" transform="translate(-45.17 -42.4)"><path class="cls-4" d="M376.74,116.51,385,381.15,398.24,601.7a6.08,6.08,0,0,0,6.23,5.71c31-.85,175.46-4.84,208.8-5.72,36.91-1,39.34-59.3.48-58.32-36.82.41-90.14.15-107.76,0a6.08,6.08,0,0,1-6-5.92L496.35,393a6.08,6.08,0,0,1,5.35-6.19c10.08-1.23,34.41-3.71,75.63-5.15,41.76-1.47,46.62-49,8.25-51.46-13.23-1-17.4-.57-28.76-.12-9.72.39-24.7.78-55.12.24a6.09,6.09,0,0,1-6-6.08v-140a6.08,6.08,0,0,1,6.41-6.07c15.73.86,57.34,2.87,89.76,2.09,33-.49,56.33-61.27,19.42-65.67-5.15-.4-17.65-.56-34.33-.56-66.65,0-200.25,2.52-200.25,2.52"/></clipPath><clipPath id="clip-path-17" transform="translate(-45.17 -42.4)"><rect class="cls-3" x="335.42" y="308.59" width="107.33" height="107.33"/></clipPath><clipPath id="clip-path-18" transform="translate(-45.17 -42.4)"><path class="cls-4" d="M441.34,362c0,28.42-22.83,51.46-51,51.46s-51-23-51-51.46,22.83-51.46,51-51.46,51,23,51,51.46"/></clipPath><clipPath id="clip-path-22" transform="translate(-45.17 -42.4)"><rect class="cls-3" x="402.51" y="134.17" width="76.03" height="71.56"/></clipPath><clipPath id="clip-path-23" transform="translate(-45.17 -42.4)"><path class="cls-4" d="M475.34,170.41a34.49,34.49,0,1,1-34.49-34.79,34.78,34.78,0,0,1,34.49,34.79"/></clipPath><clipPath id="clip-path-27" transform="translate(-45.17 -42.4)"><rect class="cls-3" x="420.4" y="500.9" width="62.61" height="102.86"/></clipPath><clipPath id="clip-path-28" transform="translate(-45.17 -42.4)"><path class="cls-4" d="M460.28,559.05c14.08-3.43,21.85-14.7,21.85-28.42A29.36,29.36,0,0,0,453,501.22c-16,0-29.62,13.24-29.62,29.41,0,14.21,12.14,26,22.82,28.92V571.8H435.51V586h10.68v17.16h14.09V586h14.08V571.8H460.28Z"/></clipPath><clipPath id="clip-path-30" transform="translate(-45.17 -42.4)"><path class="cls-4" d="M385,381.15,398.24,601.7a6.08,6.08,0,0,0,6.23,5.71c31-.85,175.46-4.84,208.8-5.72,36.91-1,39.34-59.3.48-58.32-36.82.41-90.14.15-107.76,0a6.08,6.08,0,0,1-6-5.92L496.35,393a6.08,6.08,0,0,1,5.35-6.19c10.08-1.23,34.41-3.71,75.63-5.15,41.76-1.47,46.62-49,8.25-51.46-13.23-1-17.4-.57-28.76-.12-9.72.39-24.7.78-55.12.24a6.09,6.09,0,0,1-6-6.08v-140a6.08,6.08,0,0,1,6.41-6.07c15.73.86,57.34,2.87,89.76,2.09,33-.49,56.33-61.27,19.42-65.67-5.15-.4-17.65-.56-34.33-.56-58.11,0-167.13,2.27-194.1,2.4-6,0-6.06,2.88-6,6.27Z"/></clipPath><clipPath id="clip-path-32" transform="translate(-45.17 -42.4)"><rect class="cls-3" x="429.34" y="505.37" width="49.2" height="49.2"/></clipPath><clipPath id="clip-path-33" transform="translate(-45.17 -42.4)"><path class="cls-4" d="M474.36,531.61a21.86,21.86,0,1,1-21.85-22.05c12.14.48,21.85,10.29,21.85,22.05"/></clipPath></defs><title>logo-ellas_1</title><g id="Layer_2" data-name="Layer 2"><g id="Capa_1" data-name="Capa 1"><path class="cls-6" d="M223.67,63.59H783.94a19.87,19.87,0,0,1,19.87,19.86L767.37,631a19.87,19.87,0,0,1-19.87,19.87l-496,18.39a19.87,19.87,0,0,1-19.86-19.87L203.81,83.45A19.86,19.86,0,0,1,223.67,63.59Z" transform="translate(-45.17 -42.4)"/><g class="cls-7"><rect class="cls-2" x="158.63" y="21.19" width="600" height="600"/><g class="cls-8"><rect class="cls-2" x="145.36" y="7.91" width="626.55" height="626.55"/></g></g><g class="cls-9"><g class="cls-10"><rect class="cls-11" x="309.18" y="50.26" width="314.2" height="536.85"/></g><path class="cls-12" d="M46.25,77.84c15.2,91.11,34,191.54,83,263.79,42.79,63.18,97.8,91.13,149,96.91,58.41,6.6,114.24-10.37,165.2-37.43a372.14,372.14,0,0,0,75.82-53.8,481.46,481.46,0,0,0,37.86-39,313.54,313.54,0,0,0,28.08-36.44c18.79-29.07,34.69-67.81,34.36-115-.12-16.73-4.9-35.66-13.66-49A51.87,51.87,0,0,0,577.21,86c-15.8-5.22-31.84-5.67-46.91-4.08-29.62,3.12-57.16,18.27-81.49,38.64-24.65,20.64-46.89,47-67.54,75.59-19.42,26.86-37.14,56.64-51.35,91.09a338.71,338.71,0,0,0-25.89,122c-.52,22.1,1.56,46.28,7.54,68.85,7,26.6,18,48.94,32.91,67.35,25.13,31.12,57.1,39,84.87,44.8,63.82,13.32,126.31,8.28,185.68-7.29,60.08-15.76,117.44-42.09,173.81-70.8q20.17-10.28,40.22-21c4-2.13,7.11-10.22,7.86-16.7a51.74,51.74,0,0,0-3.51-24.23c-3.14-7.15-7.54-13.74-12.68-16.55-5.6-3.06-10.11-2.47-15,.11-26.43,14-53,27.73-79.81,40.45l4.67-2.21c-58.72,27.77-119.2,50.93-182.79,59.89a396.91,396.91,0,0,1-54.32,3.92h5.18a357.15,357.15,0,0,1-76.08-8.13c-6-1.31-12-2.73-18-4.46-2.55-.74-5.11-1.53-7.66-2.41-1.19-.41-2.39-.83-3.59-1.28l-2-.79c-3.33-1.28,3.95,1.73,1.55.64A112.72,112.72,0,0,1,377.26,511c-2.28-1.49-4.51-3.46-6.79-4.89,5.85,3.68,1.86,1.56.14,0q-1.85-1.68-3.65-3.51-2-2.07-4-4.33c-.88-1-4.72-5.85-1.68-1.93,2.78,3.6.76.95.08,0s-1.35-1.95-2-2.95c-1.09-1.65-2.15-3.36-3.17-5.11-.52-.89-1-1.82-1.52-2.7-2.81-4.78,2.43,5.17,1,2.11-1-2.15-2-4.24-2.93-6.44-1.84-4.37-3.44-8.88-4.88-13.49l2.51,8.06a189.94,189.94,0,0,1-6-27.08l1.19,8.37q-1.56-11.2-2-22.28c-.15-3.61-.21-7.2-.21-10.76,0-1.4.13-7.93,0-2.69s.09-1.34.16-2.63q.6-11.39,2.12-22.28.69-5,1.56-9.87c.27-1.48.54-3,.83-4.43.15-.73.3-1.45.44-2.18,1.1-5.5-1.08,4.73-.33,1.55a387,387,0,0,1,11.16-39.11q3.27-9.3,6.94-18.14,1.9-4.59,3.91-9.06c.56-1.26,1.08-2.67,1.73-3.81.13-.23-2.33,4.9-1.18,2.53.5-1,1-2.09,1.5-3.13A430.85,430.85,0,0,1,409,249.41q10.48-14.76,21.55-28.51,5.67-7,11.51-13.69l2.62-3c2.41-2.71-.84.9-1.09,1.2.43-.51.89-1,1.33-1.44q3.1-3.37,6.26-6.61c18.32-18.83,38.15-34.71,59.86-45l-4.67,2.21c15.2-7.07,31.22-11.27,48-11.48h-5.17a108,108,0,0,1,26.16,3.14c2,.49,3.93,1.06,5.91,1.68,3.44,1.08-4.81-2.55-1.17-.5.81.46,1.62.84,2.43,1.33s1.58,1.23,2.36,1.63q-4.71-4.07-2.6-2a16.82,16.82,0,0,1,1.28,1.37q-4.17-5.7-2.32-2.93c.38.57.75,1.17,1.09,1.81-.61.32-3.31-7.81-.94-.84l-2.52-8.06a57.37,57.37,0,0,1,1.8,8.38l-1.19-8.37c.4,3.48.11,7,.54,10.41l.1-4.4c-.06,1.12-.13,2.22-.21,3.32s-.17,2.09-.27,3.12c-.57,6.19-1.52,12.08-2.58,17.95-1,5.51,1.56-6.48.28-1.21-.34,1.39-.66,2.79-1,4.17q-.89,3.45-1.89,6.8c-1.6,5.37-3.43,10.52-5.43,15.46-.84,2.08-1.73,4.08-2.6,6.11-2,4.61,2.61-5.29.44-.92-.57,1.17-1.14,2.34-1.73,3.5q-3.52,6.94-7.44,13.35a247,247,0,0,1-15.63,22.65c-6,7.73-12.17,15-18.44,22.11-3.19,3.63,3.38-3.66.13-.14-.9,1-1.8,2-2.71,2.95q-2.27,2.43-4.56,4.83Q511,275.56,505.38,281a396.27,396.27,0,0,1-44.52,37.34,355.27,355.27,0,0,1-54.3,32.17l4.67-2.22c-37.61,17.78-77.8,29.51-119.48,29.64h5.17A192,192,0,0,1,253.07,373a175.7,175.7,0,0,1-21.43-6.47c-1.61-.6-3.22-1.25-4.83-1.88,7.21,2.81.08,0-1.59-.79q-5.25-2.4-10.47-5.21a178,178,0,0,1-20.46-13c-1.83-1.33-3.64-2.72-5.45-4.14-.6-.48-1.2-1-1.8-1.45,6.14,4.8,2.62,2.17,1.26,1q-5.12-4.35-10.09-9.25-4.56-4.46-9-9.36c-3.23-3.59-7.08-7.4-9.9-11.83,0,0,4.44,5.9,1.9,2.45-.8-1.08-1.6-2.14-2.39-3.23q-2-2.73-3.92-5.55-5.08-7.43-9.8-15.45-2.53-4.29-4.94-8.74c-.8-1.47-1.58-3-2.38-4.46-2.93-5.48,3.22,6.61.47.93C135.07,270,132,263.29,129,256.36,123.41,243,118.47,229.11,114,215l2.52,8.07C101,173.09,91.89,121,83.3,69.48,82,61.94,77.14,53.26,72.94,48.85c-4.43-4.64-10.61-7.48-15.15-6.09-4.7,1.44-9.08,5.18-11,12-2.06,7.15-1.94,14.39-.49,23.08Z" transform="translate(-45.17 -42.4)"/></g><g class="cls-13"><g class="cls-10"><g class="cls-14"><g class="cls-15"><g class="cls-16"><g class="cls-17"><rect class="cls-18" x="328.15" y="60.56" width="133.12" height="200.08"/></g></g></g></g></g></g><g class="cls-13"><g class="cls-10"><g class="cls-14"><g class="cls-19"><g class="cls-20"><g class="cls-17"><rect class="cls-18" x="255.27" y="228.15" width="177.37" height="279.99"/></g></g></g></g></g></g><g class="cls-21"><g class="cls-10"><g class="cls-14"><g class="cls-22"><g class="cls-23"><g class="cls-17"><rect class="cls-24" x="271.81" y="245.82" width="146.72" height="147.64"/></g></g></g></g></g></g><g class="cls-21"><g class="cls-10"><g class="cls-14"><g class="cls-25"><g class="cls-26"><g class="cls-17"><rect class="cls-24" x="338.83" y="70.85" width="113.69" height="114.31"/></g></g></g></g></g></g><g class="cls-13"><g class="cls-10"><g class="cls-14"><g class="cls-27"><g class="cls-28"><g class="cls-17"><rect class="cls-18" x="355.83" y="436.46" width="103.49" height="146.67"/></g></g></g></g></g></g><g class="cls-29"><g class="cls-10"><g class="cls-14"><g class="cls-30"><g class="cls-31"><g class="cls-17"><rect class="cls-24" x="363.12" y="444.79" width="88.43" height="88.83"/></g></g></g></g></g></g></g></g></svg>