<svg width="24" height="33" viewBox="0 0 24 33" fill="none" xmlns="http://www.w3.org/2000/svg">
<path d="M23.9215 11.8299C23.9215 10.3744 23.6244 8.93319 23.0473 7.58848C22.4701 6.24377 21.6241 5.02194 20.5576 3.99274C19.4911 2.96355 18.225 2.14714 16.8316 1.59015C15.4382 1.03315 13.9447 0.746468 12.4365 0.746468C10.9282 0.746468 9.43476 1.03315 8.04133 1.59015C6.6479 2.14714 5.38179 2.96355 4.31531 3.99274C3.24882 5.02194 2.40284 6.24377 1.82566 7.58848C1.24849 8.93319 0.951416 10.3744 0.951416 11.8299C0.951416 14.0261 1.62411 16.0686 2.76441 17.7913H2.75129C6.62339 23.6418 12.4365 32.4135 12.4365 32.4135L22.1216 17.7913H22.1102C23.2921 16.0122 23.9208 13.9433 23.9215 11.8299ZM12.4365 16.58C11.131 16.58 9.87905 16.0796 8.95597 15.1887C8.03288 14.2979 7.5143 13.0897 7.5143 11.8299C7.5143 10.5701 8.03288 9.36195 8.95597 8.47114C9.87905 7.58033 11.131 7.07988 12.4365 7.07988C13.7419 7.07988 14.9939 7.58033 15.917 8.47114C16.84 9.36195 17.3586 10.5701 17.3586 11.8299C17.3586 13.0897 16.84 14.2979 15.917 15.1887C14.9939 16.0796 13.7419 16.58 12.4365 16.58Z" fill="#FF5F6F"/>
</svg>
